<?xml version="1.0" standalone="no"?>
<!DOCTYPE svg PUBLIC "-//W3C//DTD SVG 1.1//EN" "http://www.w3.org/Graphics/SVG/1.1/DTD/svg11.dtd" >
<svg xmlns="http://www.w3.org/2000/svg" xmlns:xlink="http://www.w3.org/1999/xlink" version="1.1">
<metadata>
Created by FontForge 20141024 at Sat Oct  3 10:37:13 2015
 By Jimmy Warting
Copyright (c) 2015 by www.fontiran.com (Moslem Ebrahimi). All rights reserved.
</metadata>
<defs>
<font id="IRANSans-UltraLight" horiz-adv-x="0" >
  <font-face 
    font-family="IRANSans"
    font-weight="250"
    font-stretch="normal"
    units-per-em="2048"
    panose-1="2 4 5 3 5 2 1 2 2 3"
    ascent="1638"
    descent="-410"
    x-height="1082"
    cap-height="1456"
    bbox="-231 -1126 2950 2477"
    underline-thickness="102"
    underline-position="-205"
    unicode-range="U+0020-FEFC"
  />
<missing-glyph horiz-adv-x="1229" 
d="M1012 -248v1577h-795v-1577h795zM102 1444h1024v-1806h-1024v1806z" />
    <glyph glyph-name="uniFDF2" unicode="&#xfedf;&#xfee0;&#xfe7c;&#xfeea;" horiz-adv-x="1922" arabic-form="isolated" 
d="M1290 1952q15 -62 15 -140q0 -87 -17 -166l-58 16q16 64 16 136q0 68 -16 137zM1532 1437q0 -76 -28.5 -121t-90.5 -45q-48 0 -76 30.5t-49 82.5q-25 -53 -55.5 -84.5t-80.5 -31.5q-46 0 -79 36v-1q-33 48 -33 127v21q3 43 8 76q11 -2 30 -7t29 -7l-2 -23q-3 -19 -3 -42
v-22q0 -96 50 -96q82 0 109 193q11 -1 33 -1h9.5h11.5h10q0 -55 17 -105t46 -75q10 -9 25 -9q34 0 45.5 27t11.5 77q0 79 -50 160l53 30q19 -39 27.5 -57.5t20 -58t11.5 -74.5zM639 754q-193 -74 -313 -198q-63 -65 -76 -118q-3 -12 -3 -22q0 -35 14 -53t47 -37
q56 -34 200 -34q58 0 192 15zM963 37q-79 15 -129.5 53.5t-92.5 105.5q-168 -22 -240 -22q-237 0 -328 111q-45 53 -45 129q0 47 18 88q115 234 473 369l-15 163q3 0 117 11q25 -301 53 -496q28 -194 48 -248q53 -142 156 -146q12 -1 36 -1h60q64 0 110 28.5t69 76.5
q8 22 8 76q0 55 -2.5 120t-5 109.5t-8 125t-7.5 118.5q-1 19 -7 119t-10 162q23 2 64 6.5t63 6.5q4 -64 11.5 -201t13.5 -214q10 -138 15 -283q1 -46 2.5 -67t7.5 -50.5t18 -50.5q38 -64 72 -78q23 -9 54 -11h18q109 0 164.5 35.5t55.5 130.5q0 9 -19 251q-13 168 -53 646
l57 12q19 4 57 14q39 -515 61 -870q4 -64 4 -91q-5 -236 -322 -236q-152 0 -227 97q-86 -99 -263 -99h-112z" />
    <glyph glyph-name="uniFDFC" unicode="&#x631;&#xfef3;&#xfe8e;&#x644;" horiz-adv-x="2894" arabic-form="isolated" 
d="M2064 -239l-134 134l132 132l132 -135zM1731 -236l-135 132l131 131l135 -132zM2660 275q0 18 -1.5 37.5t-2.5 34t-5 35t-5.5 31t-7.5 33t-7.5 29.5t-8.5 32.5t-8 30.5q-24 88 -53 177l116 37q4 -18 16.5 -52.5t16.5 -54.5q50 -162 68 -278q7 -45 7 -95q0 -143 -74 -272
q-152 -267 -503 -449l-52 107q184 92 321 229q112 112 157 240q26 75 26 148zM2071 895q28 0 87 31v-1l28 13l7 -3q47 -106 81 -217t34 -225q0 -73 -26 -138t-69 -110q-121 -100 -352 -100l-72 1q-128 10 -211.5 70.5t-100.5 171.5q-1 4 -1 14q0 2 -0.5 11t-0.5 16v54
q0 9 0.5 41t0.5 54q0 21 5 366q0 39 -1.5 78.5t-7 93t-7.5 73.5t-10.5 90t-8.5 73q-6 53 -25 158l130 22q2 -21 8.5 -54.5t8.5 -49.5q38 -301 38 -609q0 -178 -16 -330q5 -114 64 -166.5t183 -57.5q6 0 18 -0.5t18 -0.5q297 0 315 200v13q0 57 -12.5 118.5t-25.5 99.5
t-36 98t-43 102zM283 384q-79 -128 -79 -334v-40q0 -114 60.5 -194t155.5 -124q96 -45 197 -45q158 0 293 93q162 113 176 320q4 60 4 92v33q-30 886 -45 1330q9 0 27.5 2t32.5 2l61 4l26 -745q3 -107 9.5 -320.5t9.5 -320.5q0 -190 -64.5 -313.5t-191.5 -202.5
q-150 -94 -337 -94q-164 0 -282 72.5t-189 192.5q-63 108 -63 227q0 272 109 441q15 -12 45 -38t45 -38z" />
    <glyph glyph-name="uniFEF5" unicode="&#xfedf;&#xfe82;" horiz-adv-x="1350" arabic-form="isolated" 
d="M374 -32q10 61 21 114q52 -4 85 -4q160 0 282 28q21 50 21 110q0 4 -0.5 11t-0.5 11q-8 138 -96 315q-116 236 -366 569q-35 46 -52 73l98 69q8 -11 51 -71.5t57 -80t51 -72.5t56.5 -83t49.5 -75t54 -84.5t46 -78.5q122 -214 151 -399q6 -37 6 -73q0 -52 -14 -105
q100 35 171.5 110.5t98.5 179.5q13 46 13 100q0 13 -2 41l-44 455q-7 63 -27 209t-28 226l119 13q68 -425 97 -895v-2v-15q0 -8 1.5 -26t1.5 -26q0 -157 -94 -295q-44 -65 -114.5 -112t-141.5 -72t-177 -51l1 1q-115 -21 -258 -21h-29q-47 1 -88 6zM650 1598q16 -10 44 -28
t39 -25q-53 -79 -151 -121q-36 -15 -77 -15h-7q-51 2 -128 29t-85 29q-20 5 -39 5q-84 0 -129 -124l-93 30q21 71 69 125t114 66q2 0 6.5 1t8 1.5t6.5 0.5h18q56 0 132.5 -30.5t124.5 -32.5h7q29 0 59 17t44.5 31.5t36.5 40.5z" />
    <glyph glyph-name="uniFEF6" unicode="&#xfee0;&#xfe82;" horiz-adv-x="1470" arabic-form="final" 
d="M996 1474q24 2 61 6.5t58 6.5q1 -1 6 -51q51 -558 83 -1032q17 -248 257 -248h9q24 0 41.5 -17t17.5 -41q0 -25 -17 -41.5t-42 -16.5h-49q-101 0 -198 82q-46 38 -90 110q-49 -73 -132 -123.5t-194 -77.5t-221.5 -39t-251.5 -16q11 62 21 114q205 0 349 33q11 49 11 97
q0 102 -41 220q-56 163 -188 362q-119 180 -286 372q42 29 97 70q112 -146 156 -204.5t122 -174t131 -211.5q72 -132 102 -253q17 -67 17 -139q0 -50 -9 -99q94 35 157 81t93 118q16 39 16 88v16q-8 154 -22 322.5t-34 371t-29 310.5l-1 1v1v2zM658 1579q16 -10 44 -28
t39 -25q-53 -79 -151 -121q-36 -15 -77 -15h-7q-51 2 -128 29t-85 29q-20 5 -39 5q-84 0 -129 -124l-93 30q21 71 69 125t114 66q2 0 6.5 1t8 1.5t6.5 0.5h18q56 0 132.5 -30.5t124.5 -32.5h7q29 0 59 17t44.5 31.5t36.5 40.5z" />
    <glyph glyph-name="uniFEF7" unicode="&#xfedf;&#xfe84;" horiz-adv-x="1247" arabic-form="isolated" 
d="M272 -32q11 61 21 114q52 -4 85 -4q160 0 282 28q21 50 21 110q0 4 -0.5 11t-0.5 11q-8 138 -96 315q-116 236 -366 569q-35 46 -52 73l98 69q8 -11 51 -71.5t57 -80t51 -72.5t56.5 -83t49.5 -75t54 -84.5t46 -78.5q122 -214 151 -399q6 -37 6 -73q0 -52 -14 -105
q100 35 171.5 110.5t98.5 179.5q13 46 13 100q0 13 -2 41l-44 455q-7 63 -27 209t-28 226l119 13q68 -425 97 -895v-2v-15q0 -8 1.5 -26t1.5 -26q0 -157 -94 -295q-44 -65 -114.5 -112t-141.5 -72t-177 -51l1 1q-116 -21 -258 -21h-29q-47 1 -88 6zM-27 1717
q0 95 66.5 153.5t164.5 58.5q44 0 82 -10l38 -9l-28 -92l-27 6q-6 1 -18.5 3t-24 3t-22.5 1q-37 0 -62 -12v2q-30 -13 -50.5 -40.5t-20.5 -63.5q0 -14 8 -36l-1 1q15 -36 48.5 -59t79.5 -23q26 0 55.5 10.5t40.5 17t42 25.5q20 11 43 29l59 -78q-21 -15 -41.5 -28.5
t-50.5 -31t-42.5 -24.5t-56 -30.5t-51.5 -27.5l-227 -126l-48 87l179 100q-57 23 -96 74.5t-39 119.5z" />
    <glyph glyph-name="uniFEF8" unicode="&#xfee0;&#xfe84;" horiz-adv-x="1470" arabic-form="final" 
d="M996 1474q24 2 61 6.5t58 6.5q1 -1 6 -51q51 -558 83 -1032q17 -248 257 -248h9q24 0 41.5 -17t17.5 -41q0 -25 -17 -41.5t-42 -16.5h-49q-101 0 -198 82q-46 38 -90 110q-49 -73 -132 -123.5t-194 -77.5t-221.5 -39t-251.5 -16q11 62 21 114q205 0 349 33q11 49 11 97
q0 102 -41 220q-56 163 -188 362q-119 180 -286 372q42 29 97 70q112 -146 156 -204.5t122 -174t131 -211.5q72 -132 102 -253q17 -67 17 -139q0 -50 -9 -99q94 35 157 81t93 118q16 39 16 88v16q-8 154 -22 322.5t-34 371t-29 310.5l-1 1v1v2zM70 1748q0 95 66.5 153.5
t164.5 58.5q44 0 82 -10l38 -9l-28 -92l-27 6q-6 1 -18.5 3t-24 3t-22.5 1q-37 0 -62 -12v2q-30 -13 -50.5 -40.5t-20.5 -63.5q0 -14 8 -36l-1 1q15 -36 48.5 -59t79.5 -23q26 0 55.5 10.5t40.5 17t42 25.5q20 11 43 29l59 -78q-21 -15 -41.5 -28.5t-50.5 -31t-42.5 -24.5
t-56 -30.5t-51.5 -27.5l-227 -126l-48 87l179 100q-57 23 -96 74.5t-39 119.5z" />
    <glyph glyph-name="uniFEF9" unicode="&#xfedf;&#xfe88;" horiz-adv-x="1247" arabic-form="isolated" 
d="M272 -32q11 61 21 114q52 -4 85 -4q160 0 282 28q21 50 21 110q0 4 -0.5 11t-0.5 11q-8 138 -96 315q-116 236 -366 569q-35 46 -52 73l98 69q8 -11 51 -71.5t57 -80t51 -72.5t56.5 -83t49.5 -75t54 -84.5t46 -78.5q122 -214 151 -399q6 -37 6 -73q0 -52 -14 -105
q100 35 171.5 110.5t98.5 179.5q13 46 13 100q0 13 -2 41l-44 455q-7 63 -27 209t-28 226l119 13q68 -425 97 -895v-2v-15q0 -8 1.5 -26t1.5 -26q0 -157 -94 -295q-44 -65 -114.5 -112t-141.5 -72t-177 -51l1 1q-116 -21 -258 -21h-29q-47 1 -88 6zM473 -393
q0 95 66.5 153.5t164.5 58.5q44 0 82 -10l38 -9l-28 -92l-27 6q-6 1 -18.5 3t-24 3t-22.5 1q-37 0 -62 -12v2q-30 -13 -50.5 -40.5t-20.5 -63.5q0 -14 8 -36l-1 1q15 -36 48.5 -59t79.5 -23q26 0 55.5 10.5t40.5 17t42 25.5q20 11 43 29l59 -78q-21 -15 -41.5 -28.5
t-50.5 -31t-42.5 -24.5t-56 -30.5t-51.5 -27.5l-227 -126l-48 87l179 100q-57 23 -96 74.5t-39 119.5z" />
    <glyph glyph-name="uniFEFA" unicode="&#xfee0;&#xfe88;" horiz-adv-x="1470" arabic-form="final" 
d="M996 1474q24 2 61 6.5t58 6.5q1 -1 6 -51q51 -558 83 -1032q17 -248 257 -248h9q24 0 41.5 -17t17.5 -41q0 -25 -17 -41.5t-42 -16.5h-49q-101 0 -198 82q-46 38 -90 110q-49 -73 -132 -123.5t-194 -77.5t-221.5 -39t-251.5 -16q11 62 21 114q205 0 349 33q11 49 11 97
q0 102 -41 220q-56 163 -188 362q-119 180 -286 372q42 29 97 70q112 -146 156 -204.5t122 -174t131 -211.5q72 -132 102 -253q17 -67 17 -139q0 -50 -9 -99q94 35 157 81t93 118q16 39 16 88v16q-8 154 -22 322.5t-34 371t-29 310.5l-1 1v1v2zM625 -351q0 95 66.5 153.5
t164.5 58.5q44 0 82 -10l38 -9l-28 -92l-27 6q-6 1 -18.5 3t-24 3t-22.5 1q-37 0 -62 -12v2q-30 -13 -50.5 -40.5t-20.5 -63.5q0 -14 8 -36l-1 1q15 -36 48.5 -59t79.5 -23q26 0 55.5 10.5t40.5 17t42 25.5q20 11 43 29l59 -78q-21 -15 -41.5 -28.5t-50.5 -31t-42.5 -24.5
t-56 -30.5t-51.5 -27.5l-227 -126l-48 87l179 100q-57 23 -96 74.5t-39 119.5z" />
    <glyph glyph-name="uniFEFB" unicode="&#xfedf;&#xfe8e;" horiz-adv-x="1247" arabic-form="isolated" 
d="M272 -32q11 61 21 114q52 -4 85 -4q160 0 282 28q21 50 21 110q0 4 -0.5 11t-0.5 11q-8 138 -96 315q-116 236 -366 569q-35 46 -52 73l98 69q8 -11 51 -71.5t57 -80t51 -72.5t56.5 -83t49.5 -75t54 -84.5t46 -78.5q122 -214 151 -399q6 -37 6 -73q0 -52 -14 -105
q100 35 171.5 110.5t98.5 179.5q13 46 13 100q0 13 -2 41l-44 455q-7 63 -27 209t-28 226l119 13q68 -425 97 -895v-2v-15q0 -8 1.5 -26t1.5 -26q0 -157 -94 -295q-44 -65 -114.5 -112t-141.5 -72t-177 -51l1 1q-116 -21 -258 -21h-29q-47 1 -88 6z" />
    <glyph glyph-name="uniFEFC" unicode="&#xfee0;&#xfe8e;" horiz-adv-x="1461" arabic-form="final" 
d="M996 1474q24 2 61 6.5t58 6.5q1 -1 6 -51q51 -558 83 -1032q17 -248 257 -248h9q24 0 41.5 -17t17.5 -41q0 -25 -17 -41.5t-42 -16.5h-49q-101 0 -198 82q-46 38 -90 110q-49 -73 -132 -123.5t-194 -77.5t-221.5 -39t-251.5 -16q11 62 21 114q205 0 349 33q11 49 11 97
q0 102 -41 220q-56 163 -188 362q-119 180 -286 372q42 29 97 70q112 -146 156 -204.5t122 -174t131 -211.5q72 -132 102 -253q17 -67 17 -139q0 -50 -9 -99q94 35 157 81t93 118q16 39 16 88v16q-8 154 -22 322.5t-34 371t-29 310.5l-1 1v1v2z" />
    <glyph glyph-name="uni06440671.isol" unicode="&#xfedf;&#xfb51;" horiz-adv-x="1247" 
d="M272 -32q11 61 21 114q52 -4 85 -4q160 0 282 28q21 50 21 110q0 4 -0.5 11t-0.5 11q-8 138 -96 315q-116 236 -366 569q-35 46 -52 73l98 69q8 -11 51 -71.5t57 -80t51 -72.5t56.5 -83t49.5 -75t54 -84.5t46 -78.5q122 -214 151 -399q6 -37 6 -73q0 -52 -14 -105
q100 35 171.5 110.5t98.5 179.5q13 46 13 100q0 13 -2 41l-44 455q-7 63 -27 209t-28 226l119 13q68 -425 97 -895v-2v-15q0 -8 1.5 -26t1.5 -26q0 -157 -94 -295q-44 -65 -114.5 -112t-141.5 -72t-177 -51l1 1q-116 -21 -258 -21h-29q-47 1 -88 6zM354 1477q52 0 96 8
t80 33t39 64q0 33 -23 52.5t-57 19.5q-114 0 -196 -148q-12 -21 -13 -24zM164 1484q-3 2 -8 6t-10 6.5t-10 2.5q-16 0 -29 -4l-30 -9q-15 -5 -49 -22l-9 47l3 6q63 35 114 35q46 0 90 -52q37 68 72 112t86 70q53 28 106 28q52 0 93.5 -36t41.5 -86v-10q-2 -44 -26 -75.5
t-64 -49t-85 -25.5t-98 -8q-127 0 -185 62h1l-4 3v-1z" />
    <glyph glyph-name="uni06440671.fina" unicode="&#xfee0;&#xfb51;" horiz-adv-x="1470" 
d="M996 1474q24 2 61 6.5t58 6.5q1 -1 6 -51q51 -558 83 -1032q17 -248 257 -248h9q24 0 41.5 -17t17.5 -41q0 -25 -17 -41.5t-42 -16.5h-49q-101 0 -198 82q-46 38 -90 110q-49 -73 -132 -123.5t-194 -77.5t-221.5 -39t-251.5 -16q11 62 21 114q205 0 349 33q11 49 11 97
q0 102 -41 220q-56 163 -188 362q-119 180 -286 372q42 29 97 70q112 -146 156 -204.5t122 -174t131 -211.5q72 -132 102 -253q17 -67 17 -139q0 -50 -9 -99q94 35 157 81t93 118q16 39 16 88v16q-8 154 -22 322.5t-34 371t-29 310.5l-1 1v1v2zM387 1438q52 0 96 8t80 33
t39 64q0 33 -23 52.5t-57 19.5q-114 0 -196 -148q-12 -21 -13 -24zM197 1445q-3 2 -8 6t-10 6.5t-10 2.5q-16 0 -29 -4l-30 -9q-15 -5 -49 -22l-9 47l3 6q63 35 114 35q46 0 90 -52q37 68 72 112t86 70q53 28 106 28q52 0 93.5 -36t41.5 -86v-10q-2 -44 -26 -75.5t-64 -49
t-85 -25.5t-98 -8q-127 0 -185 62h1l-4 3v-1z" />
    <glyph glyph-name="uni0621" unicode="&#x621;" horiz-adv-x="1019" arabic-form="isolated" 
d="M218 -57q-6 18 -17 46.5t-17 46.5l287 109q-59 38 -104.5 89.5t-60.5 110.5q-7 24 -7 57q0 92 52 157.5t131 96.5q50 20 110 20q81 0 191 -46l-43 -87q-75 35 -157 35t-134 -47.5t-52 -125.5q0 -106 111 -167q43 -24 82 -24q2 0 8 -0.5t10 -0.5q42 0 90.5 13.5t68.5 22
t72 33.5q10 -18 23.5 -43.5t21.5 -40.5q-30 -16 -65.5 -31.5t-62.5 -25.5t-74 -27t-74 -27q-25 -9 -57.5 -21t-79 -29t-78.5 -29z" />
    <glyph glyph-name="uni0622" unicode="&#x622;" horiz-adv-x="609" arabic-form="isolated" 
d="M315 42q18 326 18 544v108q0 220 -15 397l-4 61q-10 181 -28 315q32 5 37 5h14q20 0 64 7q49 -427 49 -872q0 -308 -18 -571zM606 1886q16 -10 44 -28t39 -25q-53 -79 -151 -121q-36 -15 -77 -15h-7q-51 2 -128 29t-85 29q-20 5 -39 5q-84 0 -129 -124l-93 30
q21 71 69 125t114 66l21 3h18q56 0 132.5 -30.5t124.5 -32.5h7q29 0 59 17t44.5 31.5t36.5 40.5z" />
    <glyph glyph-name="uni0623" unicode="&#x623;" horiz-adv-x="525" arabic-form="isolated" 
d="M242 42q18 326 18 544v108q0 220 -15 397l-4 61q-10 181 -28 315q32 5 37 5h14q20 0 64 7q49 -427 49 -872q0 -308 -18 -571zM75 1937q0 95 66.5 153.5t164.5 58.5q44 0 82 -10l38 -9l-28 -92l-27 6q-6 1 -18.5 3t-24 3t-22.5 1q-37 0 -62 -12v2q-30 -13 -50.5 -40.5
t-20.5 -63.5q0 -14 8 -36l-1 1q15 -36 48.5 -59t79.5 -23q26 0 55.5 10.5t40.5 17t42 25.5q20 11 43 29l59 -78q-21 -15 -41.5 -28.5t-50.5 -31t-42.5 -24.5t-56 -30.5t-51.5 -27.5l-227 -126l-48 87l179 100q-57 23 -96 74.5t-39 119.5z" />
    <glyph glyph-name="uni0624" unicode="&#x624;" horiz-adv-x="1043" arabic-form="isolated" 
d="M749 692q84 -93 131.5 -226t47.5 -296q0 -310 -234 -548q-102 -104 -241.5 -177t-299.5 -101l-29 115q207 47 368 151.5t251 255.5q52 87 64 174h-101q-8 -1 -24 -1h-24q-135 0 -242 33t-158 103q-62 86 -62 188q5 140 88 283q94 161 234 161q124 0 231 -116v1zM698 158
q73 0 113 6q-6 168 -60.5 301.5t-151.5 198.5q-40 26 -81 26q-34 0 -65.5 -20.5t-48.5 -41t-37 -52.5q-70 -112 -70 -214q0 -73 41 -120.5t101.5 -65.5t140.5 -18h118zM179 1237q0 95 66.5 153.5t164.5 58.5q44 0 82 -10l38 -9l-28 -92l-27 6q-2 0 -26.5 3.5t-38.5 3.5
q-35 0 -62 -12v2q-29 -12 -50 -41t-21 -63q0 -14 8 -36l-1 1q15 -36 48.5 -59t79.5 -23q26 0 55.5 10.5t40.5 17t42 25.5q20 11 43 29l59 -78q-21 -15 -41.5 -28.5t-50.5 -31t-42.5 -24.5t-56 -30.5t-51.5 -27.5l-227 -126l-48 87l179 100q-57 23 -96 74.5t-39 119.5z" />
    <glyph glyph-name="uni0625" unicode="&#x625;" horiz-adv-x="525" arabic-form="isolated" 
d="M223 42q18 326 18 544v108q0 220 -15 397l-4 61q-10 181 -28 315q32 5 37 5h14q20 0 64 7q49 -427 49 -872q0 -308 -18 -571zM65 -332q0 95 66.5 153.5t164.5 58.5q44 0 82 -10l38 -9l-28 -92l-27 6q-6 1 -18.5 3t-24 3t-22.5 1q-37 0 -62 -12v2q-30 -13 -50.5 -40.5
t-20.5 -63.5q0 -14 8 -36l-1 1q15 -36 48.5 -59t79.5 -23q26 0 55.5 10.5t40.5 17t42 25.5q20 11 43 29l59 -78q-21 -15 -41.5 -28.5t-50.5 -31t-42.5 -24.5t-56 -30.5t-51.5 -27.5l-227 -126l-48 87l179 100q-57 23 -96 74.5t-39 119.5z" />
    <glyph glyph-name="uni0626" unicode="&#x626;" horiz-adv-x="1723" arabic-form="isolated" 
d="M242 -464q-127 153 -127 364q0 44 6 94q12 91 39 205.5t43 170t56 186.5l116 -43q-95 -291 -131 -532q-5 -57 -5 -81q0 -162 96 -281q151 -157 450 -157q288 0 479 94q174 86 187 208v9q0 29 -18.5 51.5t-55.5 38t-59.5 22t-63.5 16.5q-69 20 -111.5 34t-95 41.5
t-85.5 61.5q-58 61 -58 190q0 194 140 359q155 184 388 213q24 3 47 3q90 0 191 -33q-9 -21 -27 -56t-27 -55q-61 21 -139 21q-131 0 -241 -84q-142 -107 -192 -254q-17 -49 -17 -95q0 -48 18 -84.5t43 -58t67.5 -39.5t77 -26t85.5 -20t80 -21q82 -25 131 -71t49 -129
q0 -24 -6 -60q-34 -181 -252 -291q-215 -110 -535 -110q-178 0 -316.5 52t-226.5 148v-1zM369 1025q0 95 66.5 153.5t164.5 58.5q44 0 82 -10l38 -9l-28 -92l-27 6q-2 0 -26.5 3.5t-38.5 3.5q-35 0 -62 -12v2q-29 -12 -50 -41t-21 -63q0 -14 8 -36l-1 1q15 -36 48.5 -59
t79.5 -23q26 0 55.5 10.5t40.5 17t42 25.5q20 11 43 29l59 -78q-21 -15 -41.5 -28.5t-50.5 -31t-42.5 -24.5t-56 -30.5t-51.5 -27.5l-227 -126l-48 87l179 100q-57 23 -96 74.5t-39 119.5z" />
    <glyph glyph-name="uni0627" unicode="&#x627;" horiz-adv-x="482" arabic-form="isolated" 
d="M275 1530q28 -472 34 -976v-45q0 -231 -15 -364q-9 -82 -23 -113l-115 25q10 21 16 79q12 113 16 311q0 16 0.5 49.5t0.5 51.5q0 17 -0.5 52.5t-0.5 53.5q-6 426 -28 852z" />
    <glyph glyph-name="uni0628" unicode="&#x628;" horiz-adv-x="1975" arabic-form="isolated" 
d="M998 158q223 0 422.5 48t356.5 134q-19 200 -166 435l99 64q126 -198 168 -391q11 -50 11 -90q0 -38 -23 -72q-24 -35 -73 -68h1q-206 -119 -592 -166q-100 -12 -185 -12h-19q-334 3 -561 81q-63 27 -111 57t-92.5 73.5t-68.5 104t-24 134.5q0 144 99 308q14 -10 93 -71
l-2 -2t-1 -2q0 -3 -17 -37l-28 -60q-29 -73 -29 -135q0 -72 30 -117.5t88 -83.5q199 -132 624 -132zM1011 -493l-134 134l133 133l134 -134z" />
    <glyph glyph-name="uni0629" unicode="&#x629;" horiz-adv-x="1020" arabic-form="isolated" 
d="M526 762q-170 -152 -241 -305q-27 -59 -27 -113q0 -104 111 -158q62 -31 153 -31q3 0 12 0.5t16 0.5q67 0 121 24.5t87 64.5q29 35 29 93q0 71 -68 178q-69 108 -193 246zM522 36q-105 0 -192.5 41.5t-130.5 107.5q-43 67 -43 158q0 78 41 169q42 93 112 182
q70 78 148 148l-77 74l80 80q21 -18 41.5 -38t53 -54.5t39.5 -42.5q146 -153 228 -306q68 -126 68 -212q0 -151 -101 -229t-267 -78zM639 1226l-134 134l132 132l133 -134zM283 1228l-134 133l132 133l134 -134z" />
    <glyph glyph-name="uni062A" unicode="&#x62a;" horiz-adv-x="1948" arabic-form="isolated" 
d="M979 158q447 0 779 182q-19 200 -166 435l99 64q126 -198 168 -391q11 -50 11 -90q0 -38 -23 -72q-24 -35 -73 -68h1q-206 -119 -592 -166q-101 -12 -185 -12h-19q-334 3 -561 81q-63 27 -111 57t-92.5 73.5t-68.5 104t-24 134.5q0 144 99 308q14 -10 93 -71
q0 -1 -1.5 -2t-1.5 -2q0 -3 -17 -37l-28 -60q-29 -73 -29 -135q0 -72 30 -117.5t88 -83.5q199 -132 624 -132zM1182 856l-134 134l132 132l133 -134zM826 858l-134 133l132 133l134 -134z" />
    <glyph glyph-name="uni062B" unicode="&#x62b;" horiz-adv-x="1964" arabic-form="isolated" 
d="M986 158q223 0 422.5 48t356.5 134q-19 200 -166 435l99 64q126 -198 168 -391q11 -50 11 -90q0 -38 -23 -72q-24 -35 -73 -68h1q-206 -119 -592 -166q-100 -12 -185 -12h-19q-334 3 -561 81q-63 27 -111 57t-92.5 73.5t-68.5 104t-24 134.5q0 144 99 308q14 -10 93 -71
l-2 -2t-1 -2q0 -3 -17 -37l-28 -60q-29 -73 -29 -135q0 -72 30 -117.5t88 -83.5q199 -132 624 -132zM1005 1374l133 -133l-132 -132l-133 133zM798 1103l134 -134l-132 -133l-134 134zM1204 1101l134 -134l-132 -132l-134 134z" />
    <glyph glyph-name="uni062C" unicode="&#x62c;" horiz-adv-x="1647" arabic-form="isolated" 
d="M312 700q-20 11 -51.5 33.5t-43.5 30.5q118 174 309 231q68 20 141 20q138 0 286 -73q97 -49 263.5 -170.5t255.5 -168.5l-33 -138l-169 2q-48 2 -73 2q-342 0 -623 -167q-191 -113 -280 -277q-42 -77 -50 -165v-9q0 -230 194 -361q178 -120 436 -120q153 0 274 40
t236 117l67 -96q-136 -90 -282 -139.5t-325 -49.5q-301 0 -503 156q-210 163 -210 426v9q0 222 155 399q114 130 291 213.5t399 116.5q131 19 259 19q9 0 27 -0.5t27 -0.5q-58 32 -143 94t-145 103.5t-156.5 77.5t-202.5 40q-80 0 -179 -61q-93 -58 -151 -134zM892 -221
l-134 134l133 133l134 -134z" />
    <glyph glyph-name="uni062D" unicode="&#x62d;" horiz-adv-x="1596" arabic-form="isolated" 
d="M306 700q-20 11 -51.5 33.5t-43.5 30.5q118 174 309 231q68 20 141 20q138 0 286 -73q97 -49 263.5 -170.5t255.5 -168.5l-33 -138l-169 2q-48 2 -73 2q-342 0 -623 -167q-191 -113 -280 -277q-42 -77 -50 -165v-9q0 -230 194 -361q178 -120 436 -120q153 0 274 40
t236 117l67 -96q-136 -90 -282 -139.5t-325 -49.5q-301 0 -503 156q-210 163 -210 426v9q0 222 155 399q114 130 291 213.5t399 116.5q131 19 259 19q9 0 27 -0.5t27 -0.5q-58 32 -143 94t-145 103.5t-156.5 77.5t-202.5 40q-80 0 -179 -61q-93 -58 -151 -134z" />
    <glyph glyph-name="uni062E" unicode="&#x62e;" horiz-adv-x="1633" arabic-form="isolated" 
d="M306 700q-20 11 -51.5 33.5t-43.5 30.5q118 174 309 231q68 20 141 20q138 0 286 -73q97 -49 263.5 -170.5t255.5 -168.5l-33 -138l-169 2q-48 2 -73 2q-342 0 -623 -167q-191 -113 -280 -277q-42 -77 -50 -165v-9q0 -230 194 -361q178 -120 436 -120q153 0 274 40
t236 117l67 -96q-136 -90 -282 -139.5t-325 -49.5q-301 0 -503 156q-210 163 -210 426v9q0 222 155 399q114 130 291 213.5t399 116.5q131 19 259 19q9 0 27 -0.5t27 -0.5q-58 32 -143 94t-145 103.5t-156.5 77.5t-202.5 40q-80 0 -179 -61q-93 -58 -151 -134zM609 1229
l-134 134l133 133l134 -134z" />
    <glyph glyph-name="uni062F" unicode="&#x62f;" horiz-adv-x="1127" arabic-form="isolated" 
d="M545 41q-123 0 -313 67q-49 17 -81 37l52 117q190 -98 381 -98q181 0 266 101q33 40 33 101q0 40 -14.5 84t-29.5 72t-40 68q-103 166 -285 318q-44 37 -87 63l56 104q279 -184 427 -449q82 -148 82 -274q0 -95 -51 -160q-127 -151 -396 -151z" />
    <glyph glyph-name="uni0630" unicode="&#x630;" horiz-adv-x="1138" arabic-form="isolated" 
d="M545 41q-123 0 -313 67q-49 17 -81 37l52 117q190 -98 381 -98q181 0 266 101q33 40 33 101q0 40 -14.5 84t-29.5 72t-40 68q-103 166 -285 318q-44 37 -87 63l56 104q279 -184 427 -449q82 -148 82 -274q0 -95 -51 -160q-127 -151 -396 -151zM463 1331l-134 134l133 133
l134 -134z" />
    <glyph glyph-name="uni0631" unicode="&#x631;" horiz-adv-x="717" arabic-form="isolated" 
d="M468 600q73 -238 100 -400q11 -68 11 -110q0 -151 -87 -301q-150 -260 -516 -451l-51 104q367 195 493 455q45 93 45 193q0 65 -12.5 137t-23 110t-39 123.5l-34.5 103.5z" />
    <glyph glyph-name="uni0632" unicode="&#x632;" horiz-adv-x="722" arabic-form="isolated" 
d="M468 600q73 -238 100 -400q11 -68 11 -110q0 -151 -87 -301q-150 -260 -516 -451l-51 104q367 195 493 455q45 93 45 193q0 65 -12.5 137t-23 110t-39 123.5l-34.5 103.5zM399 924l-134 134l133 133l134 -134z" />
    <glyph glyph-name="uni0633" unicode="&#x633;" horiz-adv-x="2654" arabic-form="isolated" 
d="M391 451q-125 -225 -125 -477q0 -229 120 -343t352 -131q147 7 256 37t193 91t127 162.5t43 243.5q0 52 -7.5 105t-15 88.5t-27.5 91.5t-28.5 76.5t-36 82.5t-32.5 74q43 23 102 57q1 -4 3.5 -10t4.5 -10l37 -83q47 -110 101.5 -189.5t131.5 -123.5q52 -30 116 -31
q44 3 79 18t58 37.5t40 58.5t26 71t14 85t6.5 90t1.5 97l114 8q4 -70 5.5 -91.5t7 -82t13 -88t20 -69.5t31.5 -69t44 -47q34 -27 84 -27q59 0 100.5 40.5t59 98t17.5 123.5v16q-5 99 -35.5 187.5t-80.5 189.5l101 61q77 -146 116 -321q15 -67 15 -133q-3 -170 -75.5 -269.5
t-224.5 -102.5h-6q-163 0 -242 165q-99 -159 -283 -166h-9q-141 0 -228 92v-90q0 -227 -101.5 -378.5t-277.5 -225.5q-141 -60 -310 -60q-30 0 -45 1q-248 0 -395 125.5t-188 349.5q-11 60 -11 131q0 271 154 525q16 -13 46.5 -32.5t43.5 -28.5z" />
    <glyph glyph-name="uni0634" unicode="&#x634;" horiz-adv-x="2681" arabic-form="isolated" 
d="M391 451q-125 -225 -125 -477q0 -229 120 -343t352 -131q147 7 256 37t193 91t127 162.5t43 243.5q0 52 -7.5 105t-15 88.5t-27.5 91.5t-28.5 76.5t-36 82.5t-32.5 74q43 23 102 57q1 -4 3.5 -10t4.5 -10l37 -83q47 -110 101.5 -189.5t131.5 -123.5q52 -30 116 -31
q44 3 79 18t58 37.5t40 58.5t26 71t14 85t6.5 90t1.5 97l114 8q4 -70 5.5 -91.5t7 -82t13 -88t20 -69.5t31.5 -69t44 -47q34 -27 84 -27q59 0 100.5 40.5t59 98t17.5 123.5v16q-5 99 -35.5 187.5t-80.5 189.5l101 61q77 -146 116 -321q15 -67 15 -133q-3 -170 -75.5 -269.5
t-224.5 -102.5h-6q-163 0 -242 165q-99 -159 -283 -166h-9q-141 0 -228 92v-90q0 -227 -101.5 -378.5t-277.5 -225.5q-141 -60 -310 -60q-30 0 -45 1q-248 0 -395 125.5t-188 349.5q-11 60 -11 131q0 271 154 525q16 -13 46.5 -32.5t43.5 -28.5zM1899 1548l133 -133
l-132 -132l-133 133zM1692 1277l134 -134l-132 -133l-134 134zM2098 1275l134 -134l-132 -132l-134 134z" />
    <glyph glyph-name="uni0635" unicode="&#x635;" horiz-adv-x="2867" arabic-form="isolated" 
d="M1738 196q170 -72 366 -72q201 0 346.5 65.5t199.5 196.5q14 34 17 70q0 3 0.5 8.5t0.5 7.5q0 90 -90 158q-90 66 -198 69q-124 -2 -257 -83q-224 -136 -385 -420zM820 -609q-289 0 -451.5 135.5t-162.5 406.5q0 273 141 539q22 -14 54 -35t44 -29q-124 -237 -124 -478
q0 -199 111.5 -298t315.5 -119q35 -4 78 -4q254 0 382 119q171 161 171 415q0 135 -31 261.5t-84 269.5l109 42q31 -74 52.5 -118.5t53.5 -96t70.5 -89.5t88.5 -68q116 216 300 378q136 121 282 170q75 25 156 25q125 0 222 -62t144 -157q30 -63 30 -129q0 -3 -0.5 -9.5
t-0.5 -9.5q-9 -141 -121 -263q-32 -35 -75 -65v1q-197 -117 -478 -117q-189 0 -327 49.5t-279 146.5q2 -34 2 -101q0 -199 -49.5 -332t-158.5 -233v1q-82 -69 -201.5 -107.5t-263.5 -38.5z" />
    <glyph glyph-name="uni0636" unicode="&#x636;" horiz-adv-x="2894" arabic-form="isolated" 
d="M1738 196q170 -72 366 -72q201 0 346.5 65.5t199.5 196.5q14 34 17 70q0 3 0.5 8.5t0.5 7.5q0 90 -90 158q-90 66 -198 69q-124 -2 -257 -83q-224 -136 -385 -420zM820 -609q-289 0 -451.5 135.5t-162.5 406.5q0 273 141 539q22 -14 54 -35t44 -29q-124 -237 -124 -478
q0 -199 111.5 -298t315.5 -119q35 -4 78 -4q254 0 382 119q171 161 171 415q0 135 -31 261.5t-84 269.5l109 42q31 -74 52.5 -118.5t53.5 -96t70.5 -89.5t88.5 -68q116 216 300 378q136 121 282 170q75 25 156 25q125 0 222 -62t144 -157q30 -63 30 -129q0 -3 -0.5 -9.5
t-0.5 -9.5q-9 -141 -121 -263q-32 -35 -75 -65v1q-197 -117 -478 -117q-189 0 -327 49.5t-279 146.5q2 -34 2 -101q0 -199 -49.5 -332t-158.5 -233v1q-82 -69 -201.5 -107.5t-263.5 -38.5zM2274 1117l-134 134l133 133l134 -134z" />
    <glyph glyph-name="uni0637" unicode="&#x637;" horiz-adv-x="1776" arabic-form="isolated" 
d="M566 176q22 -2 64 -6.5t68.5 -7t64.5 -4.5t72 -2h25q192 0 296 26q177 44 303 168q76 76 99 182q4 17 4 40q0 95 -74 148.5t-179 53.5q-140 0 -298 -112q-99 -69 -251 -229zM856 40q-44 0 -126 4h-3q-299 20 -583 124l42 109q119 -43 253 -76q100 144 163 223
q18 118 18 238q0 11 0.5 35t0.5 37q0 238 -53 698q-6 49 -11 74l114 25q3 -27 22 -216.5t25 -262t14 -216t8 -261.5q205 217 408 291q77 28 160 28q108 0 191.5 -43.5t128.5 -116.5q32 -53 37 -124q0 -4 0.5 -10t0.5 -10q0 -93 -38 -174.5t-94 -137.5q-117 -114 -289.5 -176
t-388.5 -62z" />
    <glyph glyph-name="uni0638" unicode="&#x638;" horiz-adv-x="1787" arabic-form="isolated" 
d="M566 176q22 -2 64 -6.5t68.5 -7t64.5 -4.5t72 -2h25q192 0 296 26q177 44 303 168q76 76 99 182q4 17 4 40q0 95 -74 148.5t-179 53.5q-140 0 -298 -112q-99 -69 -251 -229zM856 40q-44 0 -126 4h-3q-299 20 -583 124l42 109q119 -43 253 -76q100 144 163 223
q18 118 18 238q0 11 0.5 35t0.5 37q0 238 -53 698q-6 49 -11 74l114 25q3 -27 22 -216.5t25 -262t14 -216t8 -261.5q205 217 408 291q77 28 160 28q108 0 191.5 -43.5t128.5 -116.5q32 -53 37 -124q0 -4 0.5 -10t0.5 -10q0 -93 -38 -174.5t-94 -137.5q-117 -114 -289.5 -176
t-388.5 -62zM1299 1205l-134 134l133 133l134 -134z" />
    <glyph glyph-name="uni0639" unicode="&#x639;" horiz-adv-x="1477" arabic-form="isolated" 
d="M1381 -577q-245 -178 -553 -178q-342 0 -547 220q-141 153 -141 372q0 210 142 393v-1q131 163 352 257l97 32q-104 40 -164 121t-60 205q0 125 68.5 216.5t172.5 137.5q68 30 148 35h12q187 0 353 -146l-74 -92q-66 66 -182 107q-42 15 -85 15q-102 0 -178.5 -49
t-109.5 -128q-18 -44 -18 -93q0 -67 29 -116t80 -76.5t111.5 -40t133.5 -12.5q90 0 232 28q47 9 72 19l18 -130q-131 -21 -211.5 -35t-188.5 -40.5t-186 -57.5q-330 -132 -422 -410q-19 -58 -24 -136q0 -216 176 -348q156 -119 398 -119q273 0 479 151z" />
    <glyph glyph-name="uni063A" unicode="&#x63a;" horiz-adv-x="1477" arabic-form="isolated" 
d="M1381 -577q-245 -178 -553 -178q-342 0 -547 220q-141 153 -141 372q0 210 142 393v-1q131 163 352 257l97 32q-104 40 -164 121t-60 205q0 125 68.5 216.5t172.5 137.5q68 30 148 35h12q187 0 353 -146l-74 -92q-66 66 -182 107q-42 15 -85 15q-102 0 -178.5 -49
t-109.5 -128q-18 -44 -18 -93q0 -67 29 -116t80 -76.5t111.5 -40t133.5 -12.5q90 0 232 28q47 9 72 19l18 -130q-131 -21 -211.5 -35t-188.5 -40.5t-186 -57.5q-330 -132 -422 -410q-19 -58 -24 -136q0 -216 176 -348q156 -119 398 -119q273 0 479 151zM888 1432l-134 134
l133 133l134 -134z" />
    <glyph glyph-name="uni0641" unicode="&#x641;" horiz-adv-x="1953" arabic-form="isolated" 
d="M1551 507q83 0 183 25q-3 119 -40.5 219t-101.5 164q-47 47 -110 60h-6q-24 0 -48.5 -16.5t-37 -30.5t-32.5 -40q-73 -94 -73 -190q0 -191 266 -191zM1735 419q-92 -21 -182 -21q-131 0 -223.5 46t-129.5 135q-16 39 -16 102q0 105 37.5 194t97.5 149q68 68 155 68
q116 0 210 -105q108 -122 148 -326q13 -65 13 -137q0 -107 -19 -162q-25 -70 -72.5 -123t-114.5 -87.5t-140.5 -57.5t-169.5 -34.5t-181 -15.5t-193 -4q-583 0 -750 285q-61 100 -61 233q0 155 52 259l104 -58q-38 -98 -38 -200q0 -90 46 -175q71 -115 227.5 -166t388.5 -61
q15 -1 44 -1h41q444 0 627 136q69 51 99 127zM1483 1332l-134 134l133 133l134 -134z" />
    <glyph glyph-name="uni0642" unicode="&#x642;" horiz-adv-x="1592" arabic-form="isolated" 
d="M1257 156q31 0 65 4q-6 154 -51.5 277.5t-126.5 196.5q-57 51 -115 51h-2q-86 -8 -151 -131q-55 -104 -55 -199q0 -75 36 -113.5t105 -62.5q64 -23 168 -23q10 0 28 -0.5t26 -0.5q4 0 15.5 0.5t18.5 0.5h39zM245 -2q0 -230 145.5 -355t389.5 -125h19q196 0 341 158
q130 141 176 362l-252 3q-94 8 -170.5 41t-121.5 86q-61 79 -61 183q0 185 117 340q85 113 201 113q123 0 231 -117v1q83 -91 130 -225.5t47 -296.5q0 -33 -4 -93q1 -1 -1 -31q-3 -58 -40 -180q-33 -108 -102 -203t-151 -151q-155 -107 -374 -107q-194 0 -329 72
q-152 73 -225 206q-85 137 -85 318q0 125 44 273q33 112 89 222l105 -56q-119 -235 -119 -438zM1181 1032l-134 134l132 132l133 -134zM825 1034l-134 133l132 133l134 -134z" />
    <glyph glyph-name="uni0643" unicode="&#x643;" horiz-adv-x="1996" arabic-form="isolated" 
d="M1052 891q-60 0 -101.5 -34t-41.5 -90q0 -44 29.5 -74t71.5 -45q22 -8 44 -8q43 0 117 40q39 22 61 37l49 -62l-449 -250l-44 63l191 107q-68 34 -108 77.5t-40 114.5q0 90 64 146t157 56q43 0 109 -16l-25 -71l-33 4q-38 5 -51 5zM1672 1456q24 2 59.5 6t56.5 6
q24 -251 34 -514l14 -446q-3 -79 -27 -143.5t-67.5 -111t-94.5 -79.5t-117 -60q-235 -85 -559 -85q-339 3 -561 82q-216 91 -275 245q-21 56 -21 124q0 106 62 242q19 41 37 66q88 -68 92 -72q-73 -116 -73 -235q0 -99 59.5 -159.5t158.5 -99.5q193 -74 521 -74
q218 0 376.5 31.5t262.5 110.5q103 80 110 227l-17 433q-10 277 -31 506z" />
    <glyph glyph-name="uni0644" unicode="&#x644;" horiz-adv-x="1440" arabic-form="isolated" 
d="M311 321q-30 -72 -48.5 -122t-35 -128.5t-16.5 -152.5q0 -254 241 -370q100 -48 192 -48h17q181 0 304.5 89.5t170.5 238.5q22 69 22 158q0 175 -5.5 386t-12 359.5t-17.5 392t-16 357.5q4 0 10 0.5t9 0.5h20q15 0 40.5 2.5t36.5 3.5q7 -136 43 -1090q8 -219 8 -412
q0 -206 -90 -341t-248 -205q-127 -56 -269 -56h-17q-202 0 -372 132q-183 143 -183 392v10q4 266 109 451z" />
    <glyph glyph-name="uni0645" unicode="&#x645;" horiz-adv-x="1178" arabic-form="isolated" 
d="M883 187q45 31 70.5 98t25.5 145q0 80 -29 138t-80 88q-48 28 -96 28q-44 0 -98 -51q-72 -67 -130 -205q-8 -18 -21 -52.5t-21 -53.5l100 -39l-1 1q151 -66 239 -89q21 -5 41 -8zM559 174q-174 69 -224 86h-3h-1q-1 1 -2 1q-21 7 -35 7q-40 0 -40 -43v-23l34 -893h-116
l-35 889q0 82 40 135t116 53q37 0 104 -20q79 231 192 351q84 84 180 84h10q146 -6 231 -115v1q32 -49 55 -116.5t23 -134.5v-21q0 -126 -47.5 -224t-136.5 -119q-16 -2 -23 -2q-35 0 -103 22q-80 25 -219 83v-1z" />
    <glyph glyph-name="uni0646" unicode="&#x646;" horiz-adv-x="1592" arabic-form="isolated" 
d="M1318 580q159 -289 159 -571q0 -231 -109 -386.5t-294 -224.5q-126 -47 -273 -47q-2 0 -8 0.5t-9 0.5h-17q-218 4 -366.5 93t-210.5 251q-43 112 -43 252q0 283 148 544l96 -70q-79 -129 -113 -334q-12 -72 -12 -146q0 -224 134.5 -342.5t368.5 -128.5q204 0 345 83
t203 232q41 99 41 218q0 215 -101 424q-29 60 -44 84q16 10 50 32.5t55 35.5zM819 509l-134 134l133 133l134 -134z" />
    <glyph glyph-name="uni0647" unicode="&#x647;" horiz-adv-x="974" arabic-form="isolated" 
d="M489 762q-170 -152 -241 -305q-27 -59 -27 -113q0 -104 111 -158q62 -31 153 -31q3 0 12 0.5t16 0.5q67 0 121 24.5t87 64.5q29 35 29 93q0 71 -68 178q-69 108 -193 246zM485 36q-105 0 -192.5 41.5t-130.5 107.5q-43 67 -43 158q0 78 41 169q42 93 112 182
q70 78 148 148l-77 74l80 80q21 -18 41.5 -38t53 -54.5t39.5 -42.5q146 -153 228 -306q68 -126 68 -212q0 -151 -101 -229t-267 -78z" />
    <glyph glyph-name="uni0648" unicode="&#x648;" horiz-adv-x="1051" arabic-form="isolated" 
d="M749 692q84 -93 131.5 -226t47.5 -296q0 -310 -234 -548q-102 -104 -241.5 -177t-299.5 -101l-29 115q207 47 368 151.5t251 255.5q52 87 64 174h-101q-8 -1 -24 -1h-24q-135 0 -242 33t-158 103q-62 86 -62 188q5 140 88 283q94 161 234 161q124 0 231 -116v1zM698 158
q73 0 113 6q-6 168 -60.5 301.5t-151.5 198.5q-40 26 -81 26q-34 0 -65.5 -20.5t-48.5 -41t-37 -52.5q-70 -112 -70 -214q0 -73 41 -120.5t101.5 -65.5t140.5 -18h118z" />
    <glyph glyph-name="uni0649" unicode="&#x649;" horiz-adv-x="1733" arabic-form="isolated" 
d="M242 -464q-127 153 -127 364q0 44 6 94q12 91 39 205.5t43 170t56 186.5l116 -43q-95 -291 -131 -532q-5 -57 -5 -81q0 -162 96 -281q151 -157 450 -157q288 0 479 94q174 86 187 208v9q0 29 -18.5 51.5t-55.5 38t-59.5 22t-63.5 16.5q-69 20 -111.5 34t-95 41.5
t-85.5 61.5q-58 61 -58 190q0 194 140 359q155 184 388 213q24 3 47 3q90 0 191 -33q-9 -21 -27 -56t-27 -55q-61 21 -139 21q-131 0 -241 -84q-142 -107 -192 -254q-17 -49 -17 -95q0 -48 18 -84.5t43 -58t67.5 -39.5t77 -26t85.5 -20t80 -21q82 -25 131 -71t49 -129
q0 -24 -6 -60q-34 -181 -252 -291q-215 -110 -535 -110q-178 0 -316.5 52t-226.5 148v-1z" />
    <glyph glyph-name="uni064A" unicode="&#x64a;" horiz-adv-x="1781" arabic-form="isolated" 
d="M242 -464q-127 153 -127 364q0 44 6 94q12 91 39 205.5t43 170t56 186.5l116 -43q-95 -291 -131 -532q-5 -57 -5 -81q0 -162 96 -281q151 -157 450 -157q288 0 479 94q174 86 187 208v9q0 29 -18.5 51.5t-55.5 38t-59.5 22t-63.5 16.5q-69 20 -111.5 34t-95 41.5
t-85.5 61.5q-58 61 -58 190q0 194 140 359q155 184 388 213q24 3 47 3q90 0 191 -33q-9 -21 -27 -56t-27 -55q-61 21 -139 21q-131 0 -241 -84q-142 -107 -192 -254q-17 -49 -17 -95q0 -48 18 -84.5t43 -58t67.5 -39.5t77 -26t85.5 -20t80 -21q82 -25 131 -71t49 -129
q0 -24 -6 -60q-34 -181 -252 -291q-215 -110 -535 -110q-178 0 -316.5 52t-226.5 148v-1zM983 -1126l-134 134l132 132l133 -134zM627 -1124l-134 133l132 133l134 -134z" />
    <glyph glyph-name="uni066E.init" unicode="&#x66e;" horiz-adv-x="700" 
d="M466 393q0 87 -36.5 206.5t-81.5 216.5q24 11 107 54q86 -202 115 -347q13 -65 13 -128q0 -81 -26 -144q-44 -91 -126 -146t-200 -62q-47 -3 -92 -3h-146q-25 0 -41.5 16.5t-16.5 41.5t16.5 41.5t41.5 16.5h148q325 0 325 237z" />
    <glyph glyph-name="uni066E.medi" unicode="&#x66e;" horiz-adv-x="705" 
d="M4 40q-26 0 -42 16t-16 42q0 25 16.5 41.5t41.5 16.5h17q178 0 272 63.5t94 212.5q0 21 -1.5 42t-3 34.5t-6 36.5t-6.5 31.5t-9 37t-9 36.5q23 6 60.5 17.5t51.5 15.5q41 -153 43 -268q3 -134 42.5 -196.5t154.5 -62.5q24 0 41.5 -17t17.5 -41q0 -25 -17 -41.5t-41 -16.5
q-160 0 -270 144q-150 -144 -414 -144h-17z" />
    <glyph glyph-name="uni066E.fina" unicode="&#x66e;" horiz-adv-x="2316" 
d="M2375 98q0 -25 -16.5 -41.5t-42.5 -16.5h-8q-288 3 -392 210q-18 37 -39 97q-298 -310 -849 -310q-138 1 -250.5 14.5t-213 44.5t-175.5 85t-120 131q-61 102 -61 233q0 150 73 306q20 -10 54.5 -30.5t49.5 -28.5q-2 -4 -12 -28.5t-13 -31.5t-11 -29t-11 -35t-8 -33
t-6.5 -39t-1.5 -39q0 -91 45 -176q74 -118 248.5 -171.5t412.5 -53.5q303 0 499.5 76.5t294.5 253.5q42 75 73 177l114 -33q-26 -76 -26 -172q4 -147 90.5 -224.5t242.5 -77.5q26 0 42.5 -16.5t16.5 -41.5z" />
    <glyph glyph-name="uni066F.init" unicode="&#x66f;" horiz-adv-x="895" 
d="M-3 40q-24 0 -41 17t-17 41q0 25 17 41.5t43 16.5q208 0 351 25.5t240 96.5q63 46 108 110h-192q-103 0 -185.5 32t-130.5 89q-51 46 -51 180q0 88 43 187q57 135 148 183q49 26 98 26q114 0 210 -105q75 -85 118.5 -204.5t43.5 -264.5q0 -98 -30 -174t-86.5 -126
t-124 -82t-155.5 -53q-148 -36 -363 -36h-44zM229 685q0 -63 31 -99h-1q33 -41 103 -60.5t154 -19.5h96q12 0 80 6q-22 286 -164 412q-49 43 -100 43q-47 0 -106 -61q-71 -75 -89 -176q-3 -10 -3 -22q0 -3 -0.5 -11t-0.5 -12z" />
    <glyph glyph-name="uni066F.medi" unicode="&#x66f;" horiz-adv-x="1019" 
d="M0 40q-26 0 -42 16t-16 42t16 42t42 16q180 0 379 26q-68 31 -118.5 95.5t-74.5 144.5q-13 43 -13 78q0 119 57.5 212.5t145.5 145.5q61 35 133 40q109 -9 183.5 -74t107.5 -164q21 -63 21 -130q0 -80 -37 -164q-38 -86 -118 -172q168 -38 352 -38q26 0 42.5 -16.5
t16.5 -41.5t-16.5 -41.5t-42.5 -16.5h-9q-284 0 -487 73q-188 -73 -514 -73h-8zM508 781q-71 0 -125 -45t-84 -110q-24 -52 -24 -123q0 -66 63 -149q71 -92 181 -125q136 59 183 199q13 39 13 78q0 81 -38.5 147t-96.5 105q-35 23 -72 23z" />
    <glyph glyph-name="uni066F.fina" unicode="&#x66f;" horiz-adv-x="1570" 
d="M1630 98q0 -23 -18 -40.5t-41 -17.5h-148q-58 -364 -292 -530h1q-155 -107 -375 -107q-196 0 -335 73t-220 205q-83 140 -83 322q0 4 0.5 13.5t0.5 14.5q0 19 1 28q18 199 131 437l104 -56q-119 -243 -119 -438q0 -149 67 -258.5t180 -165.5t273 -56q314 0 468 273
q50 94 81 242h-74q-76 0 -177 6q-196 15 -291 127q-60 78 -60 184q0 191 116 338q90 114 202 114q182 0 300 -219q101 -186 110 -428q3 0 12 -0.5t16 -0.5h36q6 0 20 -1t20 -1h35q24 0 41.5 -17t17.5 -41zM813 353q0 -41 13.5 -72.5t32.5 -52t54 -35t64 -21.5t78.5 -11
t80 -4.5t84.5 -0.5h12h83q-9 224 -97 378q-32 57 -66.5 92t-86.5 54q-22 8 -43 8q-53 0 -109 -68q-100 -124 -100 -267z" />
    <glyph glyph-name="uni0671" unicode="&#x671;" horiz-adv-x="573" arabic-form="isolated" 
d="M238 42q18 326 18 544v108q0 220 -15 397l-4 61q-10 181 -28 315q33 5 37 5h14q20 0 64 7q49 -427 49 -872q0 -308 -18 -571zM325 1771q52 0 96 8t80 33t39 64q0 33 -23 52.5t-57 19.5q-114 0 -196 -148q-12 -21 -13 -24zM135 1778q-3 2 -8 6t-10 6.5t-10 2.5
q-16 0 -29 -4l-30 -9q-15 -5 -49 -22l-9 47l3 6q63 35 114 35q46 0 90 -52q37 68 72 112t86 70q53 28 106 28q52 0 93.5 -36t41.5 -86v-10q-2 -44 -26 -75.5t-64 -49t-85 -25.5t-98 -8q-127 0 -185 62h1l-4 3v-1z" />
    <glyph glyph-name="uni0679" unicode="&#x679;" horiz-adv-x="1970" arabic-form="isolated" 
d="M993 158q447 0 779 182q-19 200 -166 435l99 64q126 -198 168 -391q11 -50 11 -90q0 -38 -23 -72q-24 -35 -73 -68h1q-206 -119 -592 -166q-101 -12 -185 -12h-19q-334 3 -561 81q-63 27 -111 57t-92.5 73.5t-68.5 104t-24 134.5q0 144 99 308q14 -10 93 -71
q0 -1 -1.5 -2t-1.5 -2q0 -3 -17 -37l-28 -60q-29 -73 -29 -135q0 -72 30 -117.5t88 -83.5q199 -132 624 -132zM863 915q10 -1 40.5 -4t49.5 -3h31q222 0 280 124q12 26 12 45q0 39 -28.5 64t-70.5 25q-7 0 -21 -2q-106 -25 -214 -147zM1168 1222q67 0 115.5 -36.5
t48.5 -97.5q0 -10 -4 -32q-22 -101 -117.5 -153.5t-228.5 -52.5q-159 0 -313 55l24 54q48 -20 107 -33l64 86q5 47 5 118q0 122 -30 349l62 15q31 -236 33 -352v-53q65 60 116 91q69 42 118 42z" />
    <glyph glyph-name="uni067E" unicode="&#x67e;" horiz-adv-x="1964" arabic-form="isolated" 
d="M992 158q223 0 422.5 48t356.5 134q-19 200 -166 435l99 64q126 -198 168 -391q11 -50 11 -90q0 -38 -23 -72q-24 -35 -73 -68h1q-206 -119 -592 -166q-100 -12 -185 -12h-19q-334 3 -561 81q-63 27 -111 57t-92.5 73.5t-68.5 104t-24 134.5q0 144 99 308q14 -10 93 -71
l-2 -2t-1 -2q0 -3 -17 -37l-28 -60q-29 -73 -29 -135q0 -72 30 -117.5t88 -83.5q199 -132 624 -132zM1149 -578l-134 -134l-132 132l134 134zM937 -309l-134 -134l-132 133l134 134zM1343 -307l-134 -134l-132 132l134 134z" />
    <glyph glyph-name="uni0686" unicode="&#x686;" horiz-adv-x="1670" arabic-form="isolated" 
d="M321 700q-20 11 -51.5 33.5t-43.5 30.5q118 174 309 231q68 20 141 20q138 0 286 -73q97 -49 263.5 -170.5t255.5 -168.5l-33 -138l-169 2q-48 2 -73 2q-342 0 -623 -167q-191 -113 -280 -277q-42 -77 -50 -165v-9q0 -230 194 -361q178 -120 436 -120q153 0 274 40
t236 117l67 -96q-136 -90 -282 -139.5t-325 -49.5q-301 0 -503 156q-210 163 -210 426v9q0 222 155 399q114 130 291 213.5t399 116.5q131 19 259 19q9 0 27 -0.5t27 -0.5q-58 32 -143 94t-145 103.5t-156.5 77.5t-202.5 40q-80 0 -179 -61q-93 -58 -151 -134zM1050 -257
l-129 -129l-127 127l129 129zM846 2l-129 -129l-127 128l129 129zM1237 4l-129 -129l-127 127l129 129z" />
    <glyph glyph-name="uni0688" unicode="&#x688;" horiz-adv-x="1149" arabic-form="isolated" 
d="M553 41q-123 0 -313 67q-49 17 -81 37l52 117q190 -98 381 -98q181 0 266 101q33 40 33 101q0 40 -14.5 84t-29.5 72t-40 68q-103 166 -285 318q-44 37 -87 63l56 104q279 -184 427 -449q82 -148 82 -274q0 -95 -51 -160q-127 -151 -396 -151zM367 1357q10 -1 40.5 -4
t49.5 -3h31q222 0 280 124q12 26 12 45q0 39 -28.5 64t-70.5 25q-7 0 -21 -2q-106 -25 -214 -147zM672 1664q67 0 115.5 -36.5t48.5 -97.5q0 -10 -4 -32q-22 -101 -117.5 -153.5t-228.5 -52.5q-159 0 -313 55l24 54q48 -20 107 -33l64 86q5 48 5 118q0 122 -30 349l62 15
q31 -236 33 -352v-53q65 60 116 91q69 42 118 42z" />
    <glyph glyph-name="uni0691" unicode="&#x691;" horiz-adv-x="864" arabic-form="isolated" 
d="M468 600q73 -238 100 -400q11 -68 11 -110q0 -151 -87 -301q-150 -260 -516 -451l-51 104q367 195 493 455q45 93 45 193q0 65 -12.5 137t-23 110t-39 123.5l-34.5 103.5zM277 1009q10 -1 40.5 -4t49.5 -3h31q222 0 280 124q12 26 12 45q0 39 -28.5 64t-70.5 25
q-7 0 -21 -2q-106 -25 -214 -147zM582 1316q67 0 115.5 -36.5t48.5 -97.5q0 -10 -4 -32q-22 -101 -117.5 -153.5t-228.5 -52.5q-159 0 -313 55l24 54q48 -20 107 -33l64 86q5 48 5 118q0 122 -30 349l62 15q31 -236 33 -352v-53q65 60 116 91q69 42 118 42z" />
    <glyph glyph-name="uni0698" unicode="&#x698;" horiz-adv-x="930" arabic-form="isolated" 
d="M576 570q73 -238 100 -400q11 -68 11 -110q0 -151 -87 -301q-150 -260 -516 -451l-51 104q367 195 493 455q45 93 45 193q0 65 -12.5 137t-23 110t-39 123.5l-34.5 103.5zM478 1378l133 -133l-132 -132l-133 133zM271 1107l134 -134l-132 -133l-134 134zM677 1105
l134 -134l-132 -132l-134 134z" />
    <glyph glyph-name="uni06A9" unicode="&#x6a9;" horiz-adv-x="2059" arabic-form="isolated" 
d="M314 730q-77 -130 -77 -238q0 -71 29 -118t84 -84q181 -124 626 -129q39 -3 42 -3h41q210 0 393 50q52 14 76 24l-1 -1q109 37 161 97t52 127q0 54 -21.5 101t-58.5 102q-67 98 -160.5 186.5t-226.5 195.5l-56 46l20 171l800 333l47 -107l-787 -325q81 -68 132 -111.5
t120 -109t118 -121.5q77 -88 125 -176t48 -175v-37q0 -77 -35 -130t-96 -99q-207 -157 -645 -157h-44q-356 0 -605 80q-135 59 -217 150q-79 89 -79 219q0 140 100 308q77 -56 95 -69z" />
    <glyph glyph-name="uni06AA.init" unicode="&#x6aa;" horiz-adv-x="2138" 
d="M347 498q-69 44 -69 112v12q0 131 130 252q69 65 159.5 115t225.5 107q127 55 285 109l34 -105q-341 -114 -566 -265q-118 -79 -161 -153q-21 -36 -21 -74v-5q71 -36 264 -55q73 -7 181 -7q193 0 309 11q33 3 122.5 13.5t159.5 16.5t135 6q181 0 275 -53
q121 -76 190 -197q45 -79 62 -123l-59 -99q-605 -60 -854 -73l-1177 -3v116q96 0 277.5 -1t276.5 -1q586 0 1250 57q91 8 145 12q-2 4 -19 53q-40 71 -84.5 112.5t-113.5 63.5t-171 22h-43q-2 0 -47 -3q-1 0 -3 -0.5t-3 -0.5h-6q-55 -4 -215 -21.5t-262 -20.5
q-39 -1 -145 -1h-54q-141 3 -242.5 17.5t-166.5 53.5h1z" />
    <glyph glyph-name="uni06AA.medi" unicode="&#x6aa;" horiz-adv-x="2665" 
d="M638 593q140 -62 419 -62q193 0 309 11q17 2 126.5 14t181.5 17.5t141 5.5q92 0 149.5 -7t97.5 -32q90 -52 185 -210l28 -53q46 -70 148 -95.5t251 -25.5v-116q-133 2 -228 17.5t-170 53.5q-22 0 -69 -5.5t-67 -6.5q-88 -6 -286.5 -23t-355 -27t-298.5 -12
q-126 -2 -186 -2q-6 0 -19 0.5t-20 0.5h-151q-6 0 -18 0.5t-19 0.5h-72q-17 0 -53.5 0.5t-55.5 0.5h-220q-18 0 -48.5 0.5t-43.5 0.5q-48 1 -153 1h-153v116h54q146 -2 214 -2h409q33 0 104.5 1t109.5 1h127q482 0 721 18q125 9 284 25l164 16l-28 57q-78 132 -149 172
q-3 3 -9 5t-16.5 3.5t-15.5 2.5q-46 10 -142 10q-48 0 -106.5 -4t-90 -7t-106.5 -11.5t-88 -9.5h-7l-115 -8q-120 -8 -250 -8h-48q-173 3 -297 29q-71 17 -113 42h1q-69 45 -69 112v12q0 44 15 87.5t38.5 79t59.5 71t70.5 62t80 55t79 47t75.5 39.5q214 98 379 146
q6 -24 16.5 -60t14.5 -50q-202 -63 -356.5 -136.5t-257.5 -176.5q-96 -96 -102 -183z" />
    <glyph glyph-name="uni06AA.fina" unicode="&#x6aa;" horiz-adv-x="2693" 
d="M650 488q-69 47 -69 112v12q0 61 29 120t69.5 103t102 88.5t109 71.5t108.5 58q214 98 379 146q3 -13 8 -32.5t9 -34t9 -28.5q4 -9 5 -16l-1 2v-2q-297 -87 -506 -222q-142 -92 -202 -182q-31 -46 -34 -91q140 -62 446 -62q193 0 310 11q34 3 130.5 14t173 17t144.5 6
q106 0 170 -13q59 -13 92.5 -35.5t77.5 -72.5q47 -53 92 -128l28 -53q81 -121 371 -121v-116q-201 0 -307 43q-37 15 -64 28q-21 0 -65.5 -5.5t-63.5 -6.5q-11 -1 -134 -10t-145 -11t-135 -10t-149 -10t-138 -8.5t-151.5 -8.5t-139.5 -6t-153 -5.5t-141 -3t-150 -1.5
q-417 0 -694 39l16 92l4 20q277 -36 676 -36q591 0 1317 63q83 7 146 12l-28 56v1q-79 132 -149 172q-3 3 -9 5t-16.5 3.5t-15.5 2.5q-46 10 -142 10q-48 0 -107.5 -4t-89 -6.5t-108 -11.5t-86.5 -10h-7l-115 -8q-120 -8 -250 -8h-48q-173 3 -297 29q-71 17 -113 42h1z" />
    <glyph glyph-name="uni06AF" unicode="&#x6af;" horiz-adv-x="2052" arabic-form="isolated" 
d="M314 729q-77 -130 -77 -238q0 -71 29 -118t84 -84q181 -124 626 -129q39 -3 42 -3h41q210 0 393 50q52 14 76 24l-1 -1q109 37 161 97t52 127q0 54 -21.5 101t-58.5 102q-67 98 -160.5 186.5t-226.5 195.5l-56 46l20 171l800 333l47 -107l-787 -325q81 -68 132 -111.5
t120 -109t118 -121.5q77 -88 125 -176t48 -175v-37q0 -77 -35 -130t-96 -99q-207 -157 -645 -157h-44q-356 0 -605 80q-135 59 -217 150q-79 89 -79 219q0 140 100 308q77 -56 95 -69zM1966 1698q-552 -238 -722 -309l5 84l686 290z" />
    <glyph glyph-name="uni06BA" unicode="&#x6ba;" horiz-adv-x="1630" arabic-form="isolated" 
d="M1318 580q159 -289 159 -571q0 -231 -109 -386.5t-294 -224.5q-126 -47 -273 -47q-2 0 -8 0.5t-9 0.5h-17q-218 4 -366.5 93t-210.5 251q-43 112 -43 252q0 283 148 544l96 -70q-79 -129 -113 -334q-12 -72 -12 -146q0 -224 134.5 -342.5t368.5 -128.5q204 0 345 83
t203 232q41 99 41 218q0 215 -101 424q-29 60 -44 84q16 10 50 32.5t55 35.5z" />
    <glyph glyph-name="uni06BE" unicode="&#x6be;" horiz-adv-x="1537" arabic-form="isolated" 
d="M877 582q0 100 -46 173t-132 73q-53 0 -113 -41q-125 -83 -164 -207q-10 -33 -10 -58q0 -44 28 -98q61 -121 197 -194q83 33 141.5 98.5t83.5 153.5q15 52 15 100zM954 785q48 -79 48 -174v-37q0 -155 -125 -313q-38 -48 -87 -85q97 -24 190 -24h35q119 0 203.5 38
t122.5 113q22 43 22 94q0 98 -107 205q-119 119 -302 183zM651 102q-60 -21 -172 -21q-184 0 -381 58q-48 15 -48 63q0 23 17.5 36.5t42.5 13.5q13 0 48 -11q184 -58 340 -58q-104 92 -152 177q-48 86 -48 166q0 103 49.5 187t125.5 137q60 41 136 56l-143 55l61 113l27 -10
q383 -143 618 -278q69 -40 128 -84q59 -45 86 -81q84 -116 84 -236q0 -189 -188 -290q-93 -55 -296 -55q-184 0 -335 62z" />
    <glyph glyph-name="uni06C0" unicode="&#x6c0;" horiz-adv-x="983" arabic-form="isolated" 
d="M489 762q-170 -152 -241 -305q-27 -59 -27 -113q0 -104 111 -158q62 -31 153 -31q3 0 12 0.5t16 0.5q67 0 121 24.5t87 64.5q29 35 29 93q0 71 -68 178q-69 108 -193 246zM485 36q-105 0 -192.5 41.5t-130.5 107.5q-43 67 -43 158q0 78 41 169q42 93 112 182
q70 78 148 148l-77 74l80 80q21 -18 41.5 -38t53 -54.5t39.5 -42.5q146 -153 228 -306q68 -126 68 -212q0 -151 -101 -229t-267 -78zM202 1455q0 95 66.5 153.5t164.5 58.5q44 0 82 -10l38 -9l-28 -92l-27 6q-2 0 -26.5 3.5t-38.5 3.5q-35 0 -62 -12v2q-29 -12 -50 -41
t-21 -63q0 -14 8 -36l-1 1q15 -36 48.5 -59t79.5 -23q26 0 55.5 10.5t40.5 17t42 25.5q20 11 43 29l59 -78q-21 -15 -41.5 -28.5t-50.5 -31t-42.5 -24.5t-56 -30.5t-51.5 -27.5l-227 -126l-48 87l179 100q-57 23 -96 74.5t-39 119.5z" />
    <glyph glyph-name="uni06C1" unicode="&#x6c1;" horiz-adv-x="1252" arabic-form="final" 
d="M1312 98q0 -24 -17 -41t-41 -17q-104 0 -177.5 43.5t-142.5 120.5q-20 22 -72.5 82t-81.5 92q-81 86 -155 118q-42 18 -90 18q-106 0 -189 -76q-117 -110 -190 -374l-112 30q82 311 234 443q108 93 257 93q101 0 177 -44t142 -118q17 -19 66.5 -77t86 -96t74.5 -69
q88 -70 173 -70q24 0 41 -17t17 -41z" />
    <glyph glyph-name="uni06CC" unicode="&#x6cc;" horiz-adv-x="1759" arabic-form="isolated" 
d="M242 -464q-127 153 -127 364q0 44 6 94q12 91 39 205.5t43 170t56 186.5l116 -43q-95 -291 -131 -532q-5 -57 -5 -81q0 -162 96 -281q151 -157 450 -157q288 0 479 94q174 86 187 208v9q0 29 -18.5 51.5t-55.5 38t-59.5 22t-63.5 16.5q-69 20 -111.5 34t-95 41.5
t-85.5 61.5q-58 61 -58 190q0 194 140 359q155 184 388 213q24 3 47 3q90 0 191 -33q-9 -21 -27 -56t-27 -55q-61 21 -139 21q-131 0 -241 -84q-142 -107 -192 -254q-17 -49 -17 -95q0 -48 18 -84.5t43 -58t67.5 -39.5t77 -26t85.5 -20t80 -21q82 -25 131 -71t49 -129
q0 -24 -6 -60q-34 -181 -252 -291q-215 -110 -535 -110q-178 0 -316.5 52t-226.5 148v-1z" />
    <glyph glyph-name="uni06D2" unicode="&#x6d2;" horiz-adv-x="1959" arabic-form="isolated" 
d="M990 -51q-112 0 -168 -1h-30l-138 4q-196 11 -344 59q-67 29 -109 65.5t-57 93.5q-5 18 -5 37q0 97 103 171q101 72 288 107q55 10 151.5 20t113.5 12q8 1 14 1l-23 -115l-35 -5q-10 -1 -66.5 -8.5t-74 -10t-65.5 -10.5t-71.5 -14.5t-59.5 -16.5t-62 -22.5t-48 -27.5
q-58 -38 -58 -78q0 -14 5 -22q15 -32 48.5 -55.5t81 -36.5t90.5 -20t99 -11q68 -5 151 -7q13 0 37 -0.5t36 -0.5t35.5 0.5t34.5 0.5q90 2 115 2q328 0 792 66q13 2 30.5 4.5t29 4t18.5 2.5q-5 -21 -15 -57.5t-15 -57.5l-49 -7q-464 -66 -780 -66z" />
    <glyph glyph-name="uni06D3" unicode="&#x6d3;" horiz-adv-x="1942" arabic-form="isolated" 
d="M1023 -51q-112 0 -168 -1h-30l-138 4q-196 11 -344 59q-67 29 -109 65.5t-57 93.5q-5 18 -5 37q0 97 103 171q101 72 288 107q55 10 151.5 20t113.5 12q8 1 14 1l-23 -115l-35 -5q-10 -1 -66.5 -8.5t-74 -10t-65.5 -10.5t-71.5 -14.5t-59.5 -16.5t-62 -22.5t-48 -27.5
q-58 -38 -58 -78q0 -14 5 -22q15 -32 48.5 -55.5t81 -36.5t90.5 -20t99 -11q68 -5 151 -7q13 0 37 -0.5t36 -0.5t35.5 0.5t34.5 0.5q90 2 115 2q328 0 792 66q13 2 30.5 4.5t29 4t18.5 2.5q-5 -21 -15 -57.5t-15 -57.5l-49 -7q-464 -66 -780 -66zM316 943q0 95 66.5 153.5
t164.5 58.5q44 0 82 -10l38 -9l-28 -92l-27 6q-2 0 -26.5 3.5t-38.5 3.5q-35 0 -62 -12v2q-29 -12 -50 -41t-21 -63q0 -14 8 -36l-1 1q15 -36 48.5 -59t79.5 -23q26 0 55.5 10.5t40.5 17t42 25.5q20 11 43 29l59 -78q-21 -15 -41.5 -28.5t-50.5 -31t-42.5 -24.5t-56 -30.5
t-51.5 -27.5l-227 -126l-48 87l179 100q-57 23 -96 74.5t-39 119.5z" />
    <glyph glyph-name="uniFB51" unicode="&#x671;" horiz-adv-x="678" arabic-form="final" 
d="M724 98q0 -24 -17.5 -41t-41.5 -17q-199 0 -293 94q-75 75 -75 246v10q4 104 4 275q0 18 -0.5 60t-0.5 65q0 434 -29 655l116 22q7 -47 12 -95.5t8 -119.5t4 -99t3 -125t2 -106q2 -100 2 -146v-271q0 -51 -2 -127q0 -119 42 -161q58 -58 198 -61h9q23 0 41 -17.5
t18 -40.5zM387 1758q52 0 96 8t80 33t39 64q0 33 -23 52.5t-57 19.5q-114 0 -196 -148q-12 -21 -13 -24zM197 1765q-3 2 -8 6t-10 6.5t-10 2.5q-16 0 -29 -4l-30 -9q-15 -5 -49 -22l-9 47l3 6q63 35 114 35q46 0 90 -52q37 68 72 112t86 70q53 28 106 28q52 0 93.5 -36
t41.5 -86v-10q-2 -44 -26 -75.5t-64 -49t-85 -25.5t-98 -8q-127 0 -185 62h1l-4 3v-1z" />
    <glyph glyph-name="uniFB57" unicode="&#x67e;" horiz-adv-x="2247" arabic-form="final" 
d="M2296 98q0 -25 -16.5 -41.5t-42.5 -16.5h-8q-288 3 -392 210q-18 37 -39 97q-298 -310 -849 -310q-138 1 -250.5 14.5t-213 44.5t-175.5 85t-120 131q-61 102 -61 233q0 150 73 306q20 -10 54.5 -30.5t49.5 -28.5q-2 -4 -12 -28.5t-13 -31.5t-11 -29t-11 -35t-8 -33
t-6.5 -39t-1.5 -39q0 -91 45 -176q74 -118 248.5 -171.5t412.5 -53.5q303 0 499.5 76.5t294.5 253.5q42 75 73 177l114 -33q-26 -76 -26 -172q4 -147 90.5 -224.5t242.5 -77.5q26 0 42.5 -16.5t16.5 -41.5zM1159 -567l-134 -134l-132 132l134 134zM947 -298l-134 -134
l-132 133l134 134zM1353 -296l-134 -134l-132 132l134 134z" />
    <glyph glyph-name="uniFB58" unicode="&#x67e;" horiz-adv-x="831" arabic-form="initial" 
d="M0 40q-25 0 -41.5 16.5t-16.5 41.5t16.5 41.5t41.5 16.5h111q86 0 145.5 4t124 17t109.5 41.5t72 73.5q24 41 24 101q0 48 -12.5 106t-22 87t-33.5 95q-19 52 -56 135q24 11 107 54q86 -202 115 -347q13 -65 13 -128q0 -81 -26 -144q-86 -180 -293 -202q-76 -9 -164 -9
h-214zM514 -618l-134 -134l-132 132l134 134zM302 -349l-134 -134l-132 133l134 134zM708 -347l-134 -134l-132 132l134 134z" />
    <glyph glyph-name="uniFB59" unicode="&#x67e;" horiz-adv-x="859" arabic-form="medial" 
d="M-3 40q-25 0 -41.5 16.5t-16.5 41.5t16.5 41.5t41.5 16.5h76q159 0 266 27t160 101q34 47 34 126v13q-7 112 -33 212q15 3 38 11t32 10l41 12q21 -86 36 -217l5 -49q6 -58 16 -98t31.5 -76t60.5 -54t95 -18q26 0 43 -16.5t17 -41.5t-17 -41.5t-41 -16.5q-161 0 -271 148
q-78 -75 -212.5 -111.5t-300.5 -36.5h-76zM505 -572l-134 -134l-132 132l134 134zM293 -303l-134 -134l-132 133l134 134zM699 -301l-134 -134l-132 132l134 134z" />
    <glyph glyph-name="uniFB67" unicode="&#x679;" horiz-adv-x="2236" arabic-form="final" 
d="M2296 98q0 -25 -16.5 -41.5t-42.5 -16.5h-8q-288 3 -392 210q-18 37 -39 97q-298 -310 -849 -310q-138 1 -250.5 14.5t-213 44.5t-175.5 85t-120 131q-61 102 -61 233q0 150 73 306q20 -10 54.5 -30.5t49.5 -28.5q-2 -4 -12 -28.5t-13 -31.5t-11 -29t-11 -35t-8 -33
t-6.5 -39t-1.5 -39q0 -91 45 -176q74 -118 248.5 -171.5t412.5 -53.5q303 0 499.5 76.5t294.5 253.5q42 75 73 177l114 -33q-26 -76 -26 -172q4 -147 90.5 -224.5t242.5 -77.5q26 0 42.5 -16.5t16.5 -41.5zM937 915q10 -1 40.5 -4t49.5 -3h31q222 0 280 124q12 26 12 45
q0 39 -28.5 64t-70.5 25q-7 0 -21 -2q-106 -25 -214 -147zM1242 1222q67 0 115.5 -36.5t48.5 -97.5q0 -10 -4 -32q-22 -101 -117.5 -153.5t-228.5 -52.5q-159 0 -313 55l24 54q48 -20 107 -33l64 86q5 47 5 118q0 122 -30 349l62 15q31 -236 33 -352v-53q65 60 116 91
q69 42 118 42z" />
    <glyph glyph-name="uniFB68" unicode="&#x679;" horiz-adv-x="774" arabic-form="initial" 
d="M468 393q0 87 -36.5 206.5t-81.5 216.5q24 11 107 54q86 -202 115 -347q13 -65 13 -128q0 -81 -26 -144q-44 -91 -126 -146t-200 -62q-47 -3 -92 -3h-146q-25 0 -41.5 16.5t-16.5 41.5t16.5 41.5t41.5 16.5h148q325 0 325 237zM214 1174q10 -1 40.5 -4t49.5 -3h31
q222 0 280 124q12 25 12 45q0 39 -28.5 64t-70.5 25q-7 0 -21 -2q-106 -25 -214 -147zM519 1481q67 0 115.5 -36.5t48.5 -97.5q0 -10 -4 -32q-22 -101 -117.5 -153.5t-228.5 -52.5q-159 0 -313 55l24 54q48 -20 107 -33l64 86q5 47 5 118q0 122 -30 349l62 15
q31 -236 33 -352v-53q65 60 116 91q69 42 118 42z" />
    <glyph glyph-name="uniFB69" unicode="&#x679;" horiz-adv-x="859" arabic-form="medial" 
d="M-3 40q-25 0 -41.5 16.5t-16.5 41.5t16.5 41.5t41.5 16.5h76q159 0 266 27t160 101q34 47 34 126v13q-7 112 -33 212q15 3 38 11t32 10l41 12q21 -86 36 -217l5 -49q6 -58 16 -98t31.5 -76t60.5 -54t95 -18q26 0 43 -16.5t17 -41.5t-17 -41.5t-41 -16.5q-161 0 -271 148
q-78 -75 -212.5 -111.5t-300.5 -36.5h-76zM275 1064q10 -1 40.5 -4t49.5 -3h31q222 0 280 124q12 25 12 45q0 39 -28.5 64t-70.5 25q-7 0 -21 -2q-106 -25 -214 -147zM580 1371q67 0 115.5 -36.5t48.5 -97.5q0 -10 -4 -32q-22 -101 -117.5 -153.5t-228.5 -52.5
q-159 0 -313 55l24 54q48 -20 107 -33l64 86q5 48 5 118q0 122 -30 349l62 15q31 -236 33 -352v-53q65 60 116 91q69 42 118 42z" />
    <glyph glyph-name="uniFB6A" unicode="&#x6a4;" horiz-adv-x="1959" arabic-form="isolated" 
d="M1551 507q83 0 183 25q-3 119 -40.5 219t-101.5 164q-47 47 -110 60h-6q-24 0 -48.5 -16.5t-37 -30.5t-32.5 -40q-73 -94 -73 -190q0 -191 266 -191zM1735 419q-92 -21 -182 -21q-131 0 -223.5 46t-129.5 135q-16 39 -16 102q0 105 37.5 194t97.5 149q68 68 155 68
q116 0 210 -105q108 -122 148 -326q13 -65 13 -137q0 -107 -19 -162q-25 -70 -72.5 -123t-114.5 -87.5t-140.5 -57.5t-169.5 -34.5t-181 -15.5t-193 -4q-583 0 -750 285q-61 100 -61 233q0 155 52 259l104 -58q-38 -98 -38 -200q0 -90 46 -175q71 -115 227.5 -166t388.5 -61
q15 -1 44 -1h41q444 0 627 136q69 51 99 127zM1446 1892l133 -133l-132 -132l-133 133zM1239 1621l134 -134l-132 -133l-134 134zM1645 1619l134 -134l-132 -132l-134 134z" />
    <glyph glyph-name="uniFB6B" unicode="&#x6a4;" horiz-adv-x="2106" arabic-form="final" 
d="M1623 244q111 46 168 128q46 63 46 156q0 105 -47 166q-67 85 -167 85q-81 0 -148 -71q-79 -82 -79 -212q0 -61 60 -138q66 -83 167 -114zM1623 898q274 0 315 -370q-6 -109 -47 -184t-116 -150q220 -38 333 -38q25 0 42 -16.5t17 -41.5q0 -24 -17.5 -41t-41.5 -17
q-256 0 -469 74l-75 -24q-191 -72 -603 -72q-287 2 -481 67.5t-284 217.5q-61 102 -61 234q0 142 61 275l104 -58q-48 -106 -48 -218q0 -242 256 -340q147 -56 397 -62h5q36 -2 53 -2h49q209 0 473 51q-64 37 -112.5 101t-71.5 140q-13 42 -13 77q0 118 57.5 214t144.5 147
q62 36 133 36zM1588 1679l133 -133l-132 -132l-133 133zM1381 1408l134 -134l-132 -133l-134 134zM1787 1406l134 -134l-132 -132l-134 134z" />
    <glyph glyph-name="uniFB6C" unicode="&#x6a4;" horiz-adv-x="896" arabic-form="initial" 
d="M-3 40q-24 0 -41 17t-17 41q0 25 17 41.5t43 16.5q208 0 351 25.5t240 96.5q63 46 108 110h-192q-103 0 -185.5 32t-130.5 89q-51 46 -51 180q0 88 43 187q57 135 148 183q49 26 98 26q114 0 210 -105q75 -85 118.5 -204.5t43.5 -264.5q0 -98 -30 -174t-86.5 -126
t-124 -82t-155.5 -53q-148 -36 -363 -36h-44zM229 685q0 -63 31 -99h-1q33 -41 103 -60.5t154 -19.5h96q12 0 80 6q-22 286 -164 412q-49 43 -100 43q-47 0 -106 -61q-71 -75 -89 -176q-3 -10 -3 -22q0 -3 -0.5 -11t-0.5 -12zM349 1793l133 -133l-132 -132l-133 133z
M142 1522l134 -134l-132 -133l-134 134zM548 1520l134 -134l-132 -132l-134 134z" />
    <glyph glyph-name="uniFB6D" unicode="&#x6a4;" horiz-adv-x="1009" arabic-form="medial" 
d="M0 40q-26 0 -42 16t-16 42t16 42t42 16q180 0 379 26q-68 31 -118.5 95.5t-74.5 144.5q-13 43 -13 78q0 119 57.5 212.5t145.5 145.5q61 35 133 40q109 -9 183.5 -74t107.5 -164q21 -63 21 -130q0 -80 -37 -164q-38 -86 -118 -172q168 -38 352 -38q26 0 42.5 -16.5
t16.5 -41.5t-16.5 -41.5t-42.5 -16.5h-9q-284 0 -487 73q-188 -73 -514 -73h-8zM508 781q-71 0 -125 -45t-84 -110q-24 -52 -24 -123q0 -66 63 -149q71 -92 181 -125q136 59 183 199q13 39 13 78q0 81 -38.5 147t-96.5 105q-35 23 -72 23zM451 1666l133 -133l-132 -132
l-133 133zM244 1395l134 -134l-132 -133l-134 134zM650 1393l134 -134l-132 -132l-134 134z" />
    <glyph glyph-name="uniFB7B" unicode="&#x686;" horiz-adv-x="1703" arabic-form="final" 
d="M1011 -301l-125 -126l-123 124l125 125zM813 -50l-125 -125l-123 124l125 126zM1193 -48l-126 -125l-123 123l125 126zM1490 -571q-227 -180 -578 -180q-299 0 -508 171q-212 173 -212 428q0 407 430 618q207 91 492 126q110 14 188 15q-375 172 -444 201q-79 33 -130 48
q-52 15 -95 15q-96 0 -187 -67q-74 -56 -132 -155l-91 51q101 196 277 264q62 24 132 24q117 0 279 -70q53 -23 114.5 -54t105.5 -55t113 -63t104 -58q67 -36 133 -64q-6 -25 -15 -69t-11 -54h-77q-30 0 -80 -3q-9 -63 -9 -84q0 -17 3 -35q32 -205 285 -219q74 -4 123 -4
q24 0 41.5 -17.5t17.5 -42.5q0 -24 -17.5 -40t-41.5 -16q-231 0 -352 66.5t-164 221.5q-10 36 -10 76q0 44 11 83q-215 -29 -374.5 -76.5t-271.5 -132.5q-204 -154 -229 -377q-1 -5 -1 -19v-18q0 -236 191 -378q176 -131 430 -131q288 0 485 166q9 -9 22 -27t21 -27
q13 -15 32 -38z" />
    <glyph glyph-name="uniFB7C" unicode="&#x686;" horiz-adv-x="1559" arabic-form="initial" 
d="M225 571q176 305 409 305q53 0 112 -15t84.5 -25.5t91.5 -39.5q36 -16 155 -71.5t200.5 -88t169.5 -57.5q2 -12 10 -44t10 -54q1 -9 5 -27q-43 -19 -107.5 -55t-98.5 -53q-422 -207 -782 -278q-143 -28 -287 -28h-198q-25 0 -42.5 16.5t-17.5 41.5t17 41.5t43 16.5h198
q244 0 565 107q235 80 554 239q-214 79 -340 139q-3 1 -35 16.5t-39.5 18.5t-35 15.5t-40.5 17.5t-35.5 14t-42 15t-39.5 11q-39 10 -75 10q-101 0 -192 -91q-58 -58 -108 -143q-101 42 -109 46zM892 -561l-134 -134l-132 132l134 134zM680 -292l-134 -134l-132 133l134 134
zM1086 -290l-134 -134l-132 132l134 134z" />
    <glyph glyph-name="uniFB7D" unicode="&#x686;" horiz-adv-x="1663" arabic-form="medial" 
d="M0 40q-25 0 -42 16t-17 41q0 24 17.5 41.5t41.5 17.5h183q244 0 508 94q152 53 451 201l109 54q-117 27 -293 112t-218 101q-101 40 -179 40q-103 0 -193 -90q-61 -61 -107 -143l-107 49q52 88 87 130q114 125 237 160q46 13 83 13q53 0 111.5 -14.5t86 -26t91.5 -39.5
q46 -20 130.5 -63t155 -73.5t140.5 -50.5q56 -16 114 -20l27 -125q-17 -8 -40 -22.5t-38 -22.5q-48 -25 -74 -38q32 -112 134.5 -169t253.5 -57h14q24 0 41.5 -17.5t17.5 -41.5q0 -25 -17 -41t-42 -16h-14q-186 0 -314 75.5t-183 212.5q-197 -98 -362.5 -163t-347.5 -101
q-126 -25 -263 -25zM891 -567l-134 -134l-132 132l134 134zM679 -298l-134 -134l-132 133l134 134zM1085 -296l-134 -134l-132 132l134 134z" />
    <glyph glyph-name="uniFB89" unicode="&#x688;" horiz-adv-x="1242" arabic-form="final" 
d="M1249 40q-109 0 -183.5 39t-130.5 110q-95 -79 -190.5 -117t-243.5 -38q-210 0 -366 151q42 65 69 100q170 -131 310 -131q237 0 362 148q-145 352 -311 749q11 5 109 45l72 -174q33 -81 110.5 -266.5t124.5 -300.5l-1 1q13 -34 20.5 -51t21.5 -43t28 -40.5t35.5 -29
t47.5 -22.5q45 -14 116 -14q24 0 41.5 -17t17.5 -41t-17.5 -41t-41.5 -17zM399 1333q10 -1 40.5 -4t49.5 -3h31q222 0 280 124q12 26 12 45q0 39 -28.5 64t-70.5 25q-7 0 -21 -2q-106 -25 -214 -147zM704 1640q67 0 115.5 -36.5t48.5 -97.5q0 -10 -4 -32
q-22 -101 -117.5 -153.5t-228.5 -52.5q-159 0 -313 55l24 54q48 -20 107 -33l64 86q5 48 5 118q0 122 -30 349l62 15q31 -236 33 -352v-53q65 60 116 91q69 42 118 42z" />
    <glyph glyph-name="uniFB8B" unicode="&#x698;" horiz-adv-x="871" arabic-form="final" 
d="M875 40q-170 0 -246 108l6 -79q0 -220 -185 -433q-158 -181 -417 -319q-31 58 -53 104q369 198 492 453q46 95 46 196q0 61 -12.5 131t-24.5 113t-35 114q-7 22 -18.5 60t-16.5 54l111 35q75 -221 157 -321q40 -49 84 -74.5t107 -25.5h5q24 0 41.5 -17.5t17.5 -41.5
q0 -25 -17 -41t-42 -16zM445 1373l133 -133l-132 -132l-133 133zM238 1102l134 -134l-132 -133l-134 134zM644 1100l134 -134l-132 -132l-134 134z" />
    <glyph glyph-name="uniFB8D" unicode="&#x691;" horiz-adv-x="822" arabic-form="final" 
d="M825 40q-170 0 -246 108l6 -79q0 -220 -185 -433q-158 -181 -417 -319q-31 58 -53 104q369 198 492 453q46 95 46 196q0 61 -12.5 131t-24.5 113t-35 114q-7 22 -18.5 60t-16.5 54l111 35q75 -221 157 -321q40 -49 84 -74.5t107 -25.5h5q24 0 41.5 -17.5t17.5 -41.5
q0 -25 -17 -41t-42 -16zM282 956q10 -1 40.5 -4t49.5 -3h31q222 0 280 124q12 25 12 45q0 39 -28.5 64t-70.5 25q-7 0 -21 -2q-106 -25 -214 -147zM587 1263q67 0 115.5 -36.5t48.5 -97.5q0 -10 -4 -32q-22 -101 -117.5 -153.5t-228.5 -52.5q-159 0 -313 55l24 54
q48 -20 107 -33l64 86q5 47 5 118q0 122 -30 349l62 15q31 -236 33 -352v-53q65 60 116 91q69 42 118 42z" />
    <glyph glyph-name="uniFB8F" unicode="&#x6a9;" horiz-adv-x="2321" arabic-form="final" 
d="M2320 156q26 0 42 -16t16 -42q0 -25 -16.5 -41.5t-41.5 -16.5q-327 0 -530 282q-80 -134 -209 -192q-195 -90 -532 -90h-92q-510 0 -724 172q-52 41 -97 122v-2q-37 79 -37 170q0 46 11.5 93t23.5 75t34 72q18 36 30 56l96 -71l-23 -44q-53 -99 -53 -192q0 -52 24 -107
q26 -50 73 -88.5t112.5 -63t134.5 -40t158.5 -23t162.5 -10t168 -2.5q257 0 456 70q110 44 157 104q48 61 48 135q0 101 -91 232q-72 104 -171.5 197t-231.5 196q2 25 9 83l9 79l837 360l45 -108l-820 -348q295 -206 445 -439q37 -58 83.5 -178.5t81.5 -176.5
q130 -204 404 -207h8z" />
    <glyph glyph-name="uniFB90" unicode="&#x6a9;" horiz-adv-x="936" arabic-form="initial" 
d="M-11 40q-28 0 -48 16t-20 41q0 27 19.5 43t48.5 16h105q69 0 115.5 1.5t105 8t97 18t79 33t64 51.5t38.5 75t15 102q0 65 -16.5 111.5t-54.5 105.5q-137 211 -407 432q12 106 19 160q443 191 589 252q139 59 172 73q7 -17 24.5 -52.5t25.5 -55.5l-740 -310
q72 -62 105.5 -91t96 -89.5t99 -104.5t78.5 -106t70 -124q50 -110 50 -217q0 -226 -192 -335q-95 -55 -215 -55z" />
    <glyph glyph-name="uniFB91" unicode="&#x6a9;" horiz-adv-x="1169" arabic-form="medial" 
d="M1 40q-25 0 -42 16.5t-17 41.5q0 24 17.5 41t41.5 17h339q76 0 139.5 42t100.5 101q26 42 32 82v15q0 108 -71 240q-135 247 -385 448q11 112 22 177q141 60 411.5 177t411.5 178q8 -20 25 -55.5t24 -52.5l-813 -352q128 -104 220.5 -208t164.5 -234q8 -14 75 -140
t104 -187q41 -68 82.5 -114t112 -80.5t158.5 -36.5h44q24 0 41 -17t17 -41q0 -25 -16.5 -41.5t-41.5 -16.5h-8q-187 0 -285 67q-101 69 -190 186q-60 -111 -108 -156h1q-100 -89 -282 -97h-325z" />
    <glyph glyph-name="uniFB93" unicode="&#x6af;" horiz-adv-x="2309" arabic-form="final" 
d="M2320 156q26 0 42 -16t16 -42q0 -25 -16.5 -41.5t-41.5 -16.5q-327 0 -530 282q-80 -134 -209 -192q-195 -90 -532 -90h-92q-510 0 -724 172q-52 41 -97 122v-2q-37 79 -37 170q0 46 11.5 93t23.5 75t34 72q18 36 30 56l96 -71l-23 -44q-53 -99 -53 -192q0 -52 24 -107
q26 -50 73 -88.5t112.5 -63t134.5 -40t158.5 -23t162.5 -10t168 -2.5q257 0 456 70q110 44 157 104q48 61 48 135q0 101 -91 232q-72 104 -171.5 197t-231.5 196q2 25 9 83l9 79l837 360l45 -108l-820 -348q295 -206 445 -439q37 -58 83.5 -178.5t81.5 -176.5
q130 -204 404 -207h8zM2016 1699q-137 -59 -395.5 -173t-387.5 -169l3 40l3 45q113 48 361 156t385 166z" />
    <glyph glyph-name="uniFB94" unicode="&#x6af;" horiz-adv-x="941" arabic-form="initial" 
d="M4 40q-28 0 -48 16t-20 41q0 27 19.5 43t48.5 16h105q69 0 115.5 1.5t105 8t97 18t79 33t64 51.5t38.5 75t15 102q0 65 -16.5 111.5t-54.5 105.5q-137 211 -407 432q12 106 19 160q443 191 589 252q139 59 172 73q7 -17 24.5 -52.5t25.5 -55.5l-740 -310
q72 -62 105.5 -91t96 -89.5t99 -104.5t78.5 -106t70 -124q50 -110 50 -217q0 -226 -192 -335q-95 -55 -215 -55zM875 1661q-552 -238 -722 -309l5 84l686 290z" />
    <glyph glyph-name="uniFB95" unicode="&#x6af;" horiz-adv-x="1187" arabic-form="medial" 
d="M1 40q-25 0 -42 16.5t-17 41.5q0 24 17.5 41t41.5 17h339q76 0 139.5 42t100.5 101q26 42 32 82v15q0 108 -71 240q-135 247 -385 448q11 112 22 177q141 60 411.5 177t411.5 178q8 -20 25 -55.5t24 -52.5l-813 -352q128 -104 220.5 -208t164.5 -234q8 -14 75 -140
t104 -187q41 -68 82.5 -114t112 -80.5t158.5 -36.5h44q24 0 41 -17t17 -41q0 -25 -16.5 -41.5t-41.5 -16.5h-8q-187 0 -285 67q-101 69 -190 186q-60 -111 -108 -156h1q-100 -89 -282 -97h-325zM913 1697q-552 -238 -722 -309l5 84l686 290z" />
    <glyph glyph-name="uniFB9F" unicode="&#x6ba;" horiz-adv-x="1709" arabic-form="final" 
d="M1766 98q0 -24 -17 -41t-42 -17q-126 0 -283 94q0 -6 1 -28t1 -32q0 -9 1.5 -31.5t1.5 -29.5q0 -130 -37 -252q-54 -148 -171.5 -246.5t-282.5 -137.5q-100 -24 -204 -24q-268 0 -423.5 123t-201.5 359q-9 57 -9 114q0 202 93 425q26 62 57 118l48 -36q21 -18 47 -35
q-82 -152 -115 -349q-12 -70 -12 -135q0 -51 7 -86q0 -2 -0.5 -6t-0.5 -6q0 -70 54 -151q67 -100 182 -159t267 -59q159 0 280.5 50.5t196.5 142.5q106 129 106 344q0 202 -102 431q-16 36 -23 48l-14 32l99 63q3 -5 20.5 -40t27.5 -58q59 -114 112 -177q63 -76 123 -113
t154 -37q26 0 42.5 -16.5t16.5 -41.5z" />
    <glyph glyph-name="uniFBA5" unicode="&#x6c0;" horiz-adv-x="1090" arabic-form="final" 
d="M626 738q-46 -19 -76 -32t-73 -36t-72 -44t-58 -51t-46 -63q-18 -34 -18 -73q0 -145 255 -145q66 0 205 22q-32 148 -66 442zM783 203q-161 -23 -239 -23q-238 0 -329 111q-43 53 -43 134q0 57 16 92q62 127 183.5 212t290.5 148l-15 142q18 4 57 13t60 14q3 -14 6 -47.5
t4 -44.5q5 -34 12 -114t13 -118q26 -222 53 -349q21 -98 53.5 -147.5t110.5 -63.5q33 -6 74 -6q25 0 42 -16.5t17 -41.5q0 -24 -17.5 -41t-41.5 -17q-119 0 -185 36.5t-122 126.5zM351 1447q0 95 66.5 153.5t164.5 58.5q44 0 82 -10l38 -9l-28 -92l-27 6q-2 0 -26.5 3.5
t-38.5 3.5q-35 0 -62 -12v2q-29 -12 -50 -41t-21 -63q0 -14 8 -36l-1 1q15 -36 48.5 -59t79.5 -23q26 0 55.5 10.5t40.5 17t42 25.5q20 11 43 29l59 -78q-21 -15 -41.5 -28.5t-50.5 -31t-42.5 -24.5t-56 -30.5t-51.5 -27.5l-227 -126l-48 87l179 100q-57 23 -96 74.5
t-39 119.5z" />
    <glyph glyph-name="uniFBA6" unicode="&#x6c1;" horiz-adv-x="983" arabic-form="isolated" 
d="M489 762q-170 -152 -241 -305q-27 -59 -27 -113q0 -104 111 -158q62 -31 153 -31q3 0 12 0.5t16 0.5q67 0 121 24.5t87 64.5q29 35 29 93q0 71 -68 178q-69 108 -193 246zM485 36q-105 0 -192.5 41.5t-130.5 107.5q-43 67 -43 158q0 78 41 169q42 93 112 182
q70 78 148 148l-77 74l80 80q21 -18 41.5 -38t53 -54.5t39.5 -42.5q146 -153 228 -306q68 -126 68 -212q0 -151 -101 -229t-267 -78z" />
    <glyph glyph-name="uniFBA8" unicode="&#x6c1;" horiz-adv-x="728" arabic-form="initial" 
d="M443 -238q0 -47 25.5 -69.5t78.5 -41.5l-60 -83q-52 7 -88 46t-39 95q4 110 88 233q40 60 64 91l47 -31q-81 -120 -105 -186q-11 -31 -11 -54zM428 393q0 87 -36.5 206.5t-81.5 216.5q75 42 106 57q84 -188 116 -350q13 -65 13 -128q0 -81 -26 -144q-44 -91 -126 -146
t-200 -62q-46 -3 -92 -3h-101q-25 0 -41.5 16.5t-16.5 41.5t16.5 41.5t41.5 16.5h103q121 0 196 32t111 109q18 37 18 96z" />
    <glyph glyph-name="uniFBA9" unicode="&#x6c1;" horiz-adv-x="1018" arabic-form="medial" 
d="M789 -460q0 -47 25.5 -69.5t78.5 -41.5l-60 -83q-52 7 -88 46t-39 95q4 110 88 233q40 59 64 91l47 -31q-81 -120 -105 -186q-11 -31 -11 -54zM0 40q-24 0 -41 17t-17 41t17 41t41 17q151 0 184 81q13 31 23 63l113 -41q-11 -61 -11 -153q0 -239 197 -466q13 70 23 115
t29.5 106.5t41 102.5t56 80t76.5 62q92 50 226 50h61q24 0 41 -17t17 -41t-17 -41t-41 -17h-60q-164 0 -229 -84q-103 -142 -111 -396q-18 -10 -53.5 -30t-53.5 -30q-151 99 -229 242h1q-71 129 -90 334q-126 -36 -189 -36h-5z" />
    <glyph glyph-name="uniFBAB" unicode="&#x6be;" horiz-adv-x="1169" arabic-form="final" 
d="M128 -44q-23 2 -37.5 18t-14.5 40q0 8 2 14.5t6.5 12t8.5 9t12.5 7.5t12.5 6t15 6.5t15 5.5l240 84q-6 64 -6 104q0 100 38 231q63 176 190 303q77 77 140 77q24 0 46 -11q42 -21 105 -95q83 -122 83 -257q0 -72 -33 -181q-83 -219 -347 -269q-17 -3 -35.5 -6.5
t-37.5 -7.5q67 -166 217 -368q28 159 58 217q49 104 147.5 182t218.5 78q25 0 42 -17t17 -41q0 -25 -16.5 -41.5t-42.5 -16.5h-10q-79 -3 -135 -47q-56 -49 -87.5 -96t-52.5 -119q-12 -41 -12 -88q0 -107 75 -200l-44 -53q-1 -1 -7 -8t-9 -11l-16 -20q-170 142 -282 284
q-113 144 -163 293l-23 64q-24 -9 -51.5 -17t-63.5 -17.5t-57 -15.5q-36 -11 -106 -33zM728 741q-83 -64 -142.5 -165.5t-79.5 -222.5q-6 -42 -6 -91v-16q0 -14 2.5 -39.5t3.5 -33.5l104 20q122 33 189 108.5t67 208.5q0 73 -26 127l-15 33q-15 33 -36 50t-61 21z" />
    <glyph glyph-name="uniFBAC" unicode="&#x6be;" horiz-adv-x="1444" arabic-form="initial" 
d="M787 579q0 99 -45.5 172t-129.5 73q-55 0 -98 -26.5t-88 -71.5q-69 -69 -94 -149q-10 -33 -10 -58q0 -78 78 -173q60 -72 147 -119q83 33 141.5 98.5t83.5 153.5q15 53 15 100zM864 782q48 -79 48 -174v-37q0 -155 -125 -313q-38 -48 -87 -85q100 -25 190 -25
q7 0 18.5 0.5t16.5 0.5q248 0 326 151q22 43 22 94q0 99 -107 206q-117 117 -302 182zM-6 40q-26 0 -44 17t-18 42q0 24 18.5 40.5t43.5 16.5h9q40 0 115 6.5t98 7.5q26 2 192 10q-104 92 -152 177q-48 86 -48 166q0 103 49.5 187t125.5 137q60 41 136 56l-143 55l61 113
q3 0 27 -9q373 -139 618 -280q52 -30 83.5 -50t70 -51.5t61.5 -62.5h-1q84 -115 84 -236q0 -190 -188 -290q-94 -55 -296 -55q-183 0 -335 62q-178 -59 -558 -59h-9z" />
    <glyph glyph-name="uniFBAD" unicode="&#x6be;" horiz-adv-x="1003" arabic-form="medial" 
d="M-1 40q-25 0 -41.5 16.5t-16.5 41.5q0 24 17 41t41 17h154q0 5 -0.5 14.5t-0.5 14.5q0 194 88 403q67 160 164 238q51 40 110 48q100 0 170 -135q60 -117 60 -266q0 -176 -132 -295q-121 -108 -315 -131q41 -173 164 -328q42 -53 93 -90q-4 44 -4 53q0 3 -0.5 6t-0.5 4v6
q0 175 153 318q93 86 200 122q54 18 103 18q25 0 42 -17t17 -41q0 -25 -16.5 -41.5t-42.5 -16.5h-10q-130 -7 -226 -116q-95 -108 -95 -240q0 -105 69 -191l-82 -98q-375 244 -485 645h-177zM525 753q-70 -12 -139 -119q-102 -162 -122 -358q-2 -30 -2 -42q0 -36 6 -68
q4 0 12 -0.5t12 -0.5q114 0 195.5 55t122.5 144q27 60 27 135v15q-4 96 -28 156.5t-84 82.5z" />
    <glyph glyph-name="uniFBAF" unicode="&#x6d2;" horiz-adv-x="1559" arabic-form="final" 
d="M1412 -286l32 -119q-9 0 -88 -7q-231 -17 -426 -17q-335 0 -526 33q-77 13 -140 37t-113 67t-65 98q-5 18 -5 38q0 51 32 100q136 212 683 212h764q24 0 41 -17t17 -41t-17 -41t-41 -17h-764q-250 0 -418 -53q-121 -39 -172 -105q-14 -20 -14 -34t5 -22
q35 -45 109.5 -68.5t180.5 -39.5q196 -29 443 -29q184 0 395 17q12 1 31.5 1.5t33 2t22.5 4.5z" />
    <glyph glyph-name="uniFBB1" unicode="&#x6d3;" horiz-adv-x="1521" arabic-form="final" 
d="M1374 -286l32 -119q-9 0 -88 -7q-231 -17 -426 -17q-335 0 -526 33q-77 13 -140 37t-113 67t-65 98q-5 18 -5 38q0 51 32 100q136 212 683 212h764q24 0 41 -17t17 -41t-17 -41t-41 -17h-764q-250 0 -418 -53q-121 -39 -172 -105q-14 -20 -14 -34t5 -22
q35 -45 109.5 -68.5t180.5 -39.5q196 -29 443 -29q184 0 395 17q12 1 31.5 1.5t33 2t22.5 4.5zM233 578q0 95 66.5 153.5t164.5 58.5q44 0 82 -10l38 -9l-28 -92l-27 6q-2 0 -26.5 3.5t-38.5 3.5q-35 0 -62 -12v2q-29 -12 -50 -41t-21 -63q0 -14 8 -36l-1 1q15 -36 48.5 -59
t79.5 -23q26 0 55.5 10.5t40.5 17t42 25.5q20 11 43 29l59 -78q-21 -15 -41.5 -28.5t-50.5 -31t-42.5 -24.5t-56 -30.5t-51.5 -27.5l-227 -126l-48 87l179 100q-57 23 -96 74.5t-39 119.5z" />
    <glyph glyph-name="uniFBE8" unicode="&#x649;" horiz-adv-x="708" arabic-form="initial" 
d="M466 393q0 87 -36.5 206.5t-81.5 216.5q24 11 107 54q86 -202 115 -347q13 -65 13 -128q0 -81 -26 -144q-44 -91 -126 -146t-200 -62q-47 -3 -92 -3h-146q-25 0 -41.5 16.5t-16.5 41.5t16.5 41.5t41.5 16.5h148q325 0 325 237z" />
    <glyph glyph-name="uniFBE9" unicode="&#x649;" horiz-adv-x="705" arabic-form="medial" 
d="M4 40q-26 0 -42 16t-16 42q0 25 16.5 41.5t41.5 16.5h17q178 0 272 63.5t94 212.5q0 21 -1.5 42t-3 34.5t-6 36.5t-6.5 31.5t-9 37t-9 36.5q23 6 60.5 17.5t51.5 15.5q41 -153 43 -268q3 -134 42.5 -196.5t154.5 -62.5q24 0 41.5 -17t17.5 -41q0 -25 -17 -41.5t-41 -16.5
q-160 0 -270 144q-150 -144 -414 -144h-17z" />
    <glyph glyph-name="uniFBFD" unicode="&#x6cc;" horiz-adv-x="1686" arabic-form="final" 
d="M1775 98q0 -25 -17 -41.5t-42 -16.5h-350q56 -45 90 -84q22 -25 34.5 -40.5t26.5 -38t21 -45.5q8 -26 8 -42q-2 -142 -132 -242q-101 -78 -254 -119t-330 -41q-474 0 -603 222q-89 131 -89 341v23q0 117 44 300q34 141 109 325l108 -43q-101 -269 -133 -481
q-10 -67 -10 -128q0 -441 496 -441q15 0 41 -0.5t37 -0.5q161 0 347 57q149 45 217 128q35 42 35 100q0 43 -45 88q-103 103 -364 149q-27 5 -44 9l8 121l732 -1q25 0 42 -16.5t17 -41.5z" />
    <glyph glyph-name="uniFBFE" unicode="&#x6cc;" horiz-adv-x="801" arabic-form="initial" 
d="M552 -478l-134 134l132 132l133 -134zM196 -476l-134 133l132 133l134 -134zM-50 40q-25 0 -41.5 16.5t-16.5 41.5t16.5 41.5t41.5 16.5h111q86 0 145.5 4t124 17t109.5 41.5t72 73.5q24 41 24 101q0 48 -12.5 106t-22 87t-33.5 95q-19 52 -56 135q24 11 107 54
q86 -202 115 -347q13 -65 13 -128q0 -81 -26 -144q-86 -180 -293 -202q-77 -9 -164 -9h-214z" />
    <glyph glyph-name="uniFBFF" unicode="&#x6cc;" horiz-adv-x="860" arabic-form="medial" 
d="M-3 40q-25 0 -41.5 16.5t-16.5 41.5t16.5 41.5t41.5 16.5h76q159 0 266 27t160 101q34 47 34 126v13q-7 112 -33 212q15 3 38 11t32 10l41 12q21 -86 36 -217l5 -49q6 -58 16 -98t31.5 -76t60.5 -54t95 -18q26 0 43 -16.5t17 -41.5t-17 -41.5t-41 -16.5q-161 0 -271 148
q-78 -75 -212.5 -111.5t-300.5 -36.5h-76zM530 -513l-134 134l132 132l133 -134zM174 -511l-134 133l132 133l134 -134z" />
    <glyph glyph-name="uniFC5E" unicode="&#xfc5e;" arabic-form="isolated" 
d="M131 1167q-141 8 -141 134q0 61 27 115l52 -24q-20 -50 -20 -92q0 -75 84 -75q91 0 91 141v44l53 11q17 -102 48 -148q23 -35 50 -35q38 3 58 27.5t20 64.5q0 41 -17 84t-40 73l50 34q67 -103 67 -189q0 -71 -36 -110.5t-106 -39.5t-109 71q-16 -38 -48.5 -62t-76.5 -24
h-6zM361 1882q0 42 -17 72t-52 30q-33 0 -59.5 -20t-38.5 -47l1 1q-2 -6 -2 -16q0 -23 9 -40.5t29 -31.5t34 -21t43 -18.5t36 -14.5q17 66 17 106zM421 1881q0 -47 -22 -124l32 -12l-24 -53l-39 11q-123 -112 -343 -157l-35 48v7q20 42 20 98q0 34 -10 52t-38 20h-4
q-33 0 -72 -31l-42 42q48 48 111 48h9q49 -4 77.5 -38t28.5 -90q0 -28 -11 -86q154 48 247 111l-80 34q-94 45 -94 135q0 70 74 120q41 28 86 28q53 0 92 -48q37 -45 37 -115z" />
    <glyph glyph-name="uniFC5F" unicode="&#xfc5f;" arabic-form="isolated" 
d="M138 1151q-141 8 -141 134q0 61 27 115l52 -24q-20 -50 -20 -92q0 -75 84 -75q91 0 91 141v44l53 11q17 -102 48 -148q23 -35 50 -35q38 3 58 27.5t20 64.5q0 41 -17 84t-40 73l50 34q67 -103 67 -189q0 -71 -36 -110.5t-106 -39.5t-109 71q-16 -38 -48.5 -62t-76.5 -24
h-6zM39 873v79l421 169v-74zM46 694v79l421 169v-71z" />
    <glyph glyph-name="uniFC60" unicode="&#xfc60;" arabic-form="isolated" 
d="M107 1346q-141 8 -141 134q0 61 27 115l52 -24q-20 -50 -20 -92q0 -75 84 -75q91 0 91 141v44l53 11q17 -102 48 -148q23 -35 50 -35q38 3 58 27.5t20 64.5q0 41 -17 84t-40 73l50 34q67 -103 67 -189q0 -71 -36 -110.5t-106 -39.5t-109 71q-16 -38 -48.5 -62t-76.5 -24
h-6zM-50 1691v80l463 178v-74z" />
    <glyph glyph-name="uniFC61" unicode="&#xfc61;" arabic-form="isolated" 
d="M127 1176q-141 8 -141 134q0 61 27 115l52 -24q-20 -50 -20 -92q0 -75 84 -75q91 0 91 141v44l53 11q17 -102 48 -148q23 -35 50 -35q38 3 58 27.5t20 64.5q0 41 -17 84t-40 73l50 34q67 -103 67 -189q0 -71 -36 -110.5t-106 -39.5t-109 71q-16 -38 -48.5 -62t-76.5 -24
h-6zM241 1979q-28 0 -54 -17.5t-41 -40.5q-12 -18 -12 -38q0 -14 5 -24.5t18.5 -19.5t19.5 -12.5t24 -11.5l93 -44q19 39 19 90q0 44 -19 81t-53 37zM372 1864q0 -59 -22 -113q6 -2 9 -2t18 -6l-19 -57l-42 15q-108 -103 -313 -171l-21 58q165 55 276 133q-121 48 -159 96
q-22 26 -22 62q0 2 0.5 6t0.5 7q14 93 107 135q25 11 57 11q66 0 98 -49.5t32 -124.5z" />
    <glyph glyph-name="uniFC62" unicode="&#xfc62;" arabic-form="isolated" 
d="M134 1184q-141 8 -141 134q0 61 27 115l52 -24q-20 -50 -20 -92q0 -75 84 -75q91 0 91 141v44l53 11q17 -102 48 -148q23 -35 50 -35q38 3 58 27.5t20 64.5q0 41 -17 84t-40 73l50 34q67 -103 67 -189q0 -71 -36 -110.5t-106 -39.5t-109 71q-16 -38 -48.5 -62t-76.5 -24
h-6zM40 877v80l463 178v-74z" />
    <glyph glyph-name="uniFC63" unicode="&#xfc63;" arabic-form="isolated" 
d="M138 1151q-141 8 -141 134q0 61 27 115l52 -24q-20 -50 -20 -92q0 -75 84 -75q91 0 91 141v44l53 11q17 -102 48 -148q23 -35 50 -35q38 3 58 27.5t20 64.5q0 41 -17 84t-40 73l50 34q67 -103 67 -189q0 -71 -36 -110.5t-106 -39.5t-109 71q-16 -38 -48.5 -62t-76.5 -24
h-6zM296 1842q15 -85 15 -170q0 -88 -16 -168l-65 20q13 63 13 133q0 89 -14 164z" />
    <glyph glyph-name="uniFE70" unicode="&#xfe70;" arabic-form="isolated" 
d="M12 1315v79l421 169v-74zM19 1136v79l421 169v-71z" />
    <glyph glyph-name="uniFE72" unicode="&#xfe72;" arabic-form="isolated" 
d="M413 1458q0 42 -17 72t-52 30q-33 0 -59.5 -20t-38.5 -47l1 1q-2 -6 -2 -16q0 -23 9 -40.5t29 -31.5t34 -21t43 -18.5t36 -14.5q17 66 17 106zM473 1457q0 -47 -22 -124l32 -12l-24 -53l-39 11q-123 -112 -343 -157l-35 48v7q20 42 20 98q0 34 -10 52t-38 20h-4
q-33 0 -72 -31l-42 42q48 48 111 48h9q49 -4 77.5 -38t28.5 -90q0 -28 -11 -86q154 48 247 111l-80 34q-94 45 -94 135q0 70 74 120q41 28 86 28q53 0 92 -48q37 -45 37 -115z" />
    <glyph glyph-name="uniFE74" unicode="&#xfe74;" arabic-form="isolated" 
d="M15 -402v79l421 169v-74zM22 -581v79l421 169v-71z" />
    <glyph glyph-name="uniFE76" unicode="&#xfe76;" arabic-form="isolated" 
d="M0 1271v80l463 178v-74z" />
    <glyph glyph-name="uniFE78" unicode="&#xfe78;" arabic-form="isolated" 
d="M234 1544q-28 0 -54 -17.5t-41 -40.5q-12 -18 -12 -38q0 -14 5 -24.5t18.5 -19.5t19.5 -12.5t24 -11.5l93 -44q19 39 19 90q0 44 -19 81t-53 37zM365 1429q0 -59 -22 -113q6 -2 9 -2t18 -6l-19 -57l-42 15q-108 -103 -313 -171l-21 58q165 55 276 133q-121 48 -159 96
q-22 26 -22 62q0 2 0.5 6t0.5 7q14 93 107 135q25 11 57 11q66 0 98 -49.5t32 -124.5z" />
    <glyph glyph-name="uniFE7A" unicode="&#xfe7a;" arabic-form="isolated" 
d="M-5 -519v80l463 178v-74z" />
    <glyph glyph-name="uniFE7C" unicode="&#xfe7c;" arabic-form="isolated" 
d="M138 1151q-141 8 -141 134q0 61 27 115l52 -24q-20 -50 -20 -92q0 -75 84 -75q91 0 91 141v44l53 11q17 -102 48 -148q23 -35 50 -35q38 3 58 27.5t20 64.5q0 41 -17 84t-40 73l50 34q67 -103 67 -189q0 -71 -36 -110.5t-106 -39.5t-109 71q-16 -38 -48.5 -62t-76.5 -24
h-6z" />
    <glyph glyph-name="uniFE7E" unicode="&#xfe7e;" arabic-form="isolated" 
d="M246 1526q60 0 101.5 -36.5t62.5 -90.5q12 -32 14 -69v-7q0 -60 -30.5 -104.5t-77.5 -68.5q-34 -17 -70 -17h-6q-113 0 -160 125q-13 35 -13 72q0 60 30 106.5t75 71.5q33 18 74 18zM363 1328q0 54 -32.5 95.5t-84.5 41.5q-50 0 -84.5 -41t-34.5 -94q0 -41 21 -73.5
t52 -50.5q21 -12 46 -12q53 0 85 40t32 94z" />
    <glyph glyph-name="uniFE82" unicode="&#x622;" horiz-adv-x="684" arabic-form="final" 
d="M724 98q0 -24 -17.5 -41t-41.5 -17q-199 0 -293 94q-75 75 -75 246v10q4 104 4 275q0 18 -0.5 60t-0.5 65q0 434 -29 655l116 22q7 -47 12 -95.5t8 -119.5t4 -99t3 -125t2 -106q2 -100 2 -146v-271q0 -51 -2 -127q0 -119 42 -161q58 -58 198 -61h9q23 0 41 -17.5
t18 -40.5zM615 1903q16 -10 44 -28t39 -25q-53 -79 -151 -121q-36 -15 -77 -15h-7q-51 2 -128 29t-85 29q-20 5 -39 5q-84 0 -129 -124l-93 30q21 71 69 125t114 66q2 0 6.5 1t8 1.5t6.5 0.5h18q56 0 132.5 -30.5t124.5 -32.5h7q29 0 59 17t44.5 31.5t36.5 40.5z" />
    <glyph glyph-name="uniFE84" unicode="&#x623;" horiz-adv-x="673" arabic-form="final" 
d="M724 98q0 -24 -17.5 -41t-41.5 -17q-199 0 -293 94q-75 75 -75 246v10q4 104 4 275q0 18 -0.5 60t-0.5 65q0 434 -29 655l116 22q7 -47 12 -95.5t8 -119.5t4 -99t3 -125t2 -106q2 -100 2 -146v-271q0 -51 -2 -127q0 -119 42 -161q58 -58 198 -61h9q23 0 41 -17.5
t18 -40.5zM67 1874q0 95 66.5 153.5t164.5 58.5q44 0 82 -10l38 -9l-28 -92l-27 6q-6 1 -18.5 3t-24 3t-22.5 1q-37 0 -62 -12v2q-30 -13 -50.5 -40.5t-20.5 -63.5q0 -14 8 -36l-1 1q15 -36 48.5 -59t79.5 -23q26 0 55.5 10.5t40.5 17t42 25.5q20 11 43 29l59 -78
q-21 -15 -41.5 -28.5t-50.5 -31t-42.5 -24.5t-56 -30.5t-51.5 -27.5l-227 -126l-48 87l179 100q-57 23 -96 74.5t-39 119.5z" />
    <glyph glyph-name="uniFE86" unicode="&#x624;" horiz-adv-x="1058" arabic-form="final" 
d="M307 362q0 -204 305 -204h54q45 0 70 -1h20q20 0 56 2q-7 171 -60.5 305.5t-151.5 199.5q-40 26 -81 26q-50 0 -103 -55q-47 -50 -78 -121.5t-31 -151.5zM1103 97q0 -24 -18 -40.5t-42 -16.5h-124q-55 -276 -277 -466q-204 -175 -488 -230l-28 116q206 47 367.5 151.5
t250.5 253.5q52 88 64 175h-100q-226 0 -327 46q-177 79 -177 273q0 179 113 336v-1q91 113 202 113q124 0 231 -116v1q122 -132 164 -378q15 -85 16 -158h113q26 0 43 -16.5t17 -42.5zM239 1273q0 95 66.5 153.5t164.5 58.5q44 0 82 -10l38 -9l-28 -92l-27 6
q-2 0 -26.5 3.5t-38.5 3.5q-35 0 -62 -12v2q-29 -12 -50 -41t-21 -63q0 -14 8 -36l-1 1q15 -36 48.5 -59t79.5 -23q26 0 55.5 10.5t40.5 17t42 25.5q20 11 43 29l59 -78q-21 -15 -41.5 -28.5t-50.5 -31t-42.5 -24.5t-56 -30.5t-51.5 -27.5l-227 -126l-48 87l179 100
q-57 23 -96 74.5t-39 119.5z" />
    <glyph glyph-name="uniFE88" unicode="&#x625;" horiz-adv-x="673" arabic-form="final" 
d="M724 98q0 -24 -17.5 -41t-41.5 -17q-199 0 -293 94q-75 75 -75 246v10q4 104 4 275q0 18 -0.5 60t-0.5 65q0 434 -29 655l116 22q7 -47 12 -95.5t8 -119.5t4 -99t3 -125t2 -106q2 -100 2 -146v-271q0 -51 -2 -127q0 -119 42 -161q58 -58 198 -61h9q23 0 41 -17.5
t18 -40.5zM181 -310q0 95 66.5 153.5t164.5 58.5q44 0 82 -10l38 -9l-28 -92l-27 6q-6 1 -18.5 3t-24 3t-22.5 1q-37 0 -62 -12v2q-30 -13 -50.5 -40.5t-20.5 -63.5q0 -14 8 -36l-1 1q15 -36 48.5 -59t79.5 -23q26 0 55.5 10.5t40.5 17t42 25.5q20 11 43 29l59 -78
q-21 -15 -41.5 -28.5t-50.5 -31t-42.5 -24.5t-56 -30.5t-51.5 -27.5l-227 -126l-48 87l179 100q-57 23 -96 74.5t-39 119.5z" />
    <glyph glyph-name="uniFE8A" unicode="&#x626;" horiz-adv-x="1683" arabic-form="final" 
d="M1775 98q0 -25 -17 -41.5t-42 -16.5h-350q56 -45 90 -84q22 -25 34.5 -40.5t26.5 -38t21 -45.5q8 -26 8 -42q-2 -142 -132 -242q-101 -78 -254 -119t-330 -41q-474 0 -603 222q-89 131 -89 341v23q0 117 44 300q34 141 109 325l108 -43q-101 -269 -133 -481
q-10 -67 -10 -128q0 -441 496 -441q15 0 41 -0.5t37 -0.5q161 0 347 57q149 45 217 128q35 42 35 100q0 43 -45 88q-103 103 -364 149q-27 5 -44 9l8 121l732 -1q25 0 42 -16.5t17 -41.5zM585 506q0 95 66.5 153.5t164.5 58.5q44 0 82 -10l38 -9l-28 -92l-27 6
q-2 0 -26.5 3.5t-38.5 3.5q-35 0 -62 -12v2q-29 -12 -50 -41t-21 -63q0 -14 8 -36l-1 1q15 -36 48.5 -59t79.5 -23q26 0 55.5 10.5t40.5 17t42 25.5q20 11 43 29l59 -78q-21 -15 -41.5 -28.5t-50.5 -31t-42.5 -24.5t-56 -30.5t-51.5 -27.5l-227 -126l-48 87l179 100
q-57 23 -96 74.5t-39 119.5z" />
    <glyph glyph-name="uniFE8B" unicode="&#x626;" horiz-adv-x="711" arabic-form="initial" 
d="M466 393q0 87 -36.5 206.5t-81.5 216.5q24 11 107 54q86 -202 115 -347q13 -65 13 -128q0 -81 -26 -144q-44 -91 -126 -146t-200 -62q-47 -3 -92 -3h-146q-25 0 -41.5 16.5t-16.5 41.5t16.5 41.5t41.5 16.5h148q325 0 325 237zM164 1324q0 95 66.5 153.5t164.5 58.5
q44 0 82 -10l38 -9l-28 -92l-27 6q-2 0 -26.5 3.5t-38.5 3.5q-35 0 -62 -12v2q-29 -12 -50 -41t-21 -63q0 -14 8 -36l-1 1q15 -36 48.5 -59t79.5 -23q26 0 55.5 10.5t40.5 17t42 25.5q20 11 43 29l59 -78q-21 -15 -41.5 -28.5t-50.5 -31t-42.5 -24.5t-56 -30.5t-51.5 -27.5
l-227 -126l-48 87l179 100q-57 23 -96 74.5t-39 119.5z" />
    <glyph glyph-name="uniFE8C" unicode="&#x626;" horiz-adv-x="715" arabic-form="medial" 
d="M4 40q-26 0 -42 16t-16 42q0 25 16.5 41.5t41.5 16.5h17q178 0 272 63.5t94 212.5q0 21 -1.5 42t-3 34.5t-6 36.5t-6.5 31.5t-9 37t-9 36.5q23 6 60.5 17.5t51.5 15.5q41 -153 43 -268q3 -134 42.5 -196.5t154.5 -62.5q24 0 41.5 -17t17.5 -41q0 -25 -17 -41.5t-41 -16.5
q-160 0 -270 144q-150 -144 -414 -144h-17zM152 1207q0 95 66.5 153.5t164.5 58.5q44 0 82 -10l38 -9l-28 -92l-27 6q-2 0 -26.5 3.5t-38.5 3.5q-35 0 -62 -12v2q-29 -12 -50 -41t-21 -63q0 -14 8 -36l-1 1q15 -36 48.5 -59t79.5 -23q26 0 55.5 10.5t40.5 17t42 25.5
q20 11 43 29l59 -78q-21 -15 -41.5 -28.5t-50.5 -31t-42.5 -24.5t-56 -30.5t-51.5 -27.5l-227 -126l-48 87l179 100q-57 23 -96 74.5t-39 119.5z" />
    <glyph glyph-name="uniFE8E" unicode="&#x627;" horiz-adv-x="624" arabic-form="final" 
d="M685 98q0 -25 -17 -41.5t-42 -16.5q-199 0 -293 94q-43 43 -59 105t-16 158q2 94 2 161v190q0 497 -29 755l116 22q32 -243 32 -758q0 -35 -0.5 -104t-0.5 -101q0 -127 -1 -184q0 -9 0.5 -25t0.5 -23q0 -93 63.5 -132t175.5 -42h9q24 0 41.5 -17t17.5 -41z" />
    <glyph glyph-name="uniFE90" unicode="&#x628;" horiz-adv-x="2245" arabic-form="final" 
d="M2296 98q0 -25 -16.5 -41.5t-42.5 -16.5h-8q-288 3 -392 210q-18 37 -39 97q-298 -310 -849 -310q-138 1 -250.5 14.5t-213 44.5t-175.5 85t-120 131q-61 102 -61 233q0 150 73 306q20 -10 54.5 -30.5t49.5 -28.5q-2 -4 -12 -28.5t-13 -31.5t-11 -29t-11 -35t-8 -33
t-6.5 -39t-1.5 -39q0 -91 45 -176q74 -118 248.5 -171.5t412.5 -53.5q303 0 499.5 76.5t294.5 253.5q42 75 73 177l114 -33q-26 -76 -26 -172q4 -147 90.5 -224.5t242.5 -77.5q26 0 42.5 -16.5t16.5 -41.5zM991 -494l-134 134l133 133l134 -134z" />
    <glyph glyph-name="uniFE91" unicode="&#x628;" horiz-adv-x="664" arabic-form="initial" 
d="M466 393q0 87 -36.5 206.5t-81.5 216.5q24 11 107 54q86 -202 115 -347q13 -65 13 -128q0 -81 -26 -144q-44 -91 -126 -146t-200 -62q-47 -3 -92 -3h-146q-25 0 -41.5 16.5t-16.5 41.5t16.5 41.5t41.5 16.5h148q325 0 325 237zM295 -508l-134 134l133 133l134 -134z" />
    <glyph glyph-name="uniFE92" unicode="&#x628;" horiz-adv-x="718" arabic-form="medial" 
d="M4 40q-26 0 -42 16t-16 42q0 25 16.5 41.5t41.5 16.5h17q178 0 272 63.5t94 212.5q0 21 -1.5 42t-3 34.5t-6 36.5t-6.5 31.5t-9 37t-9 36.5q23 6 60.5 17.5t51.5 15.5q41 -153 43 -268q3 -134 42.5 -196.5t154.5 -62.5q24 0 41.5 -17t17.5 -41q0 -25 -17 -41.5t-41 -16.5
q-160 0 -270 144q-150 -144 -414 -144h-17zM390 -493l-134 134l133 133l134 -134z" />
    <glyph glyph-name="uniFE94" unicode="&#x629;" horiz-adv-x="1126" arabic-form="final" 
d="M663 738q-46 -19 -76 -32t-73 -36t-72 -44t-58 -51t-46 -63q-18 -34 -18 -73q0 -145 255 -145q66 0 205 22q-32 148 -66 442zM820 203q-161 -23 -239 -23q-237 0 -329 111q-43 53 -43 134q0 57 16 92q62 127 183.5 212t290.5 148l-15 142q18 4 57 13t60 14q3 -14 6 -47.5
t4 -44.5q5 -34 12 -114t13 -118q26 -222 53 -349q21 -98 53.5 -147.5t110.5 -63.5q33 -6 74 -6q25 0 42 -16.5t17 -41.5q0 -24 -17.5 -41t-41.5 -17q-119 0 -185 36.5t-122 126.5zM804 1292l-134 134l132 132l133 -134zM448 1294l-134 133l132 133l134 -134z" />
    <glyph glyph-name="uniFE96" unicode="&#x62a;" horiz-adv-x="2241" arabic-form="final" 
d="M2296 98q0 -25 -16.5 -41.5t-42.5 -16.5h-8q-288 3 -392 210q-18 37 -39 97q-298 -310 -849 -310q-138 1 -250.5 14.5t-213 44.5t-175.5 85t-120 131q-61 102 -61 233q0 150 73 306q20 -10 54.5 -30.5t49.5 -28.5q-2 -4 -12 -28.5t-13 -31.5t-11 -29t-11 -35t-8 -33
t-6.5 -39t-1.5 -39q0 -91 45 -176q74 -118 248.5 -171.5t412.5 -53.5q303 0 499.5 76.5t294.5 253.5q42 75 73 177l114 -33q-26 -76 -26 -172q4 -147 90.5 -224.5t242.5 -77.5q26 0 42.5 -16.5t16.5 -41.5zM1203 851l-134 134l132 132l133 -134zM847 853l-134 133l132 133
l134 -134z" />
    <glyph glyph-name="uniFE97" unicode="&#x62a;" horiz-adv-x="788" arabic-form="initial" 
d="M600 1112l-134 134l132 132l133 -134zM244 1114l-134 133l132 133l134 -134zM-36 40q-25 0 -41.5 16.5t-16.5 41.5t16.5 41.5t41.5 16.5h111q86 0 145.5 4t124 17t109.5 41.5t72 73.5q24 41 24 101q0 48 -12.5 106t-22 87t-33.5 95q-19 52 -56 135q24 11 107 54
q86 -202 115 -347q13 -65 13 -128q0 -81 -26 -144q-86 -180 -293 -202q-76 -9 -164 -9h-214z" />
    <glyph glyph-name="uniFE98" unicode="&#x62a;" horiz-adv-x="870" arabic-form="medial" 
d="M-3 40q-25 0 -41.5 16.5t-16.5 41.5t16.5 41.5t41.5 16.5h76q159 0 266 27t160 101q34 47 34 126v13q-7 112 -33 212q15 3 38 11t32 10l41 12q21 -86 36 -217l5 -49q6 -58 16 -98t31.5 -76t60.5 -54t95 -18q26 0 43 -16.5t17 -41.5t-17 -41.5t-41 -16.5q-161 0 -271 148
q-78 -75 -212.5 -111.5t-300.5 -36.5h-76zM621 888l-134 134l132 132l133 -134zM265 890l-134 133l132 133l134 -134z" />
    <glyph glyph-name="uniFE9A" unicode="&#x62b;" horiz-adv-x="2233" arabic-form="final" 
d="M2296 98q0 -25 -16.5 -41.5t-42.5 -16.5h-8q-288 3 -392 210q-18 37 -39 97q-298 -310 -849 -310q-138 1 -250.5 14.5t-213 44.5t-175.5 85t-120 131q-61 102 -61 233q0 150 73 306q20 -10 54.5 -30.5t49.5 -28.5q-2 -4 -12 -28.5t-13 -31.5t-11 -29t-11 -35t-8 -33
t-6.5 -39t-1.5 -39q0 -91 45 -176q74 -118 248.5 -171.5t412.5 -53.5q303 0 499.5 76.5t294.5 253.5q42 75 73 177l114 -33q-26 -76 -26 -172q4 -147 90.5 -224.5t242.5 -77.5q26 0 42.5 -16.5t16.5 -41.5zM1053 1374l133 -133l-132 -132l-133 133zM846 1103l134 -134
l-132 -133l-134 134zM1252 1101l134 -134l-132 -132l-134 134z" />
    <glyph glyph-name="uniFE9B" unicode="&#x62b;" horiz-adv-x="799" arabic-form="initial" 
d="M458 1647l133 -133l-132 -132l-133 133zM251 1376l134 -134l-132 -133l-134 134zM657 1374l134 -134l-132 -132l-134 134zM0 40q-25 0 -41.5 16.5t-16.5 41.5t16.5 41.5t41.5 16.5h111q86 0 145.5 4t124 17t109.5 41.5t72 73.5q24 41 24 101q0 48 -12.5 106t-22 87
t-33.5 95q-19 52 -56 135q24 11 107 54q86 -202 115 -347q13 -65 13 -128q0 -81 -26 -144q-86 -180 -293 -202q-76 -9 -164 -9h-214z" />
    <glyph glyph-name="uniFE9C" unicode="&#x62b;" horiz-adv-x="864" arabic-form="medial" 
d="M-3 40q-25 0 -41.5 16.5t-16.5 41.5t16.5 41.5t41.5 16.5h76q159 0 266 27t160 101q34 47 34 126v13q-7 112 -33 212q15 3 38 11t32 10l41 12q21 -86 36 -217l5 -49q6 -58 16 -98t31.5 -76t60.5 -54t95 -18q26 0 43 -16.5t17 -41.5t-17 -41.5t-41 -16.5q-161 0 -271 148
q-78 -75 -212.5 -111.5t-300.5 -36.5h-76zM414 1413l133 -133l-132 -132l-133 133zM207 1142l134 -134l-132 -133l-134 134zM613 1140l134 -134l-132 -132l-134 134z" />
    <glyph glyph-name="uniFE9E" unicode="&#x62c;" horiz-adv-x="1696" arabic-form="final" 
d="M1490 -571q-227 -180 -578 -180q-299 0 -508 171q-212 173 -212 428q0 407 430 618q207 91 492 126q110 14 188 15q-375 172 -444 201q-79 33 -130 48q-52 15 -95 15q-96 0 -187 -67q-74 -56 -132 -155l-91 51q101 196 277 264q62 24 132 24q117 0 279 -70
q53 -23 114.5 -54t105.5 -55t113 -63t104 -58q67 -36 133 -64q-6 -25 -15 -69t-11 -54h-77q-30 0 -80 -3q-9 -63 -9 -84q0 -17 3 -35q32 -205 285 -219q74 -4 123 -4q24 0 41.5 -17.5t17.5 -42.5q0 -24 -17.5 -40t-41.5 -16q-231 0 -352 66.5t-164 221.5q-10 36 -10 76
q0 44 11 83q-215 -29 -374.5 -76.5t-271.5 -132.5q-204 -154 -229 -377q-1 -5 -1 -19v-18q0 -236 191 -378q176 -131 430 -131q288 0 485 166q9 -9 22 -27t21 -27q13 -15 32 -38zM899 -254l-134 134l133 133l134 -134z" />
    <glyph glyph-name="uniFE9F" unicode="&#x62c;" horiz-adv-x="1548" arabic-form="initial" 
d="M225 571q176 305 409 305q53 0 112 -15t84.5 -25.5t91.5 -39.5q36 -16 155 -71.5t200.5 -88t169.5 -57.5q2 -12 10 -44t10 -54q1 -9 5 -27q-43 -19 -107.5 -55t-98.5 -53q-422 -207 -782 -278q-143 -28 -287 -28h-198q-25 0 -42.5 16.5t-17.5 41.5t17 41.5t43 16.5h198
q244 0 565 107q235 80 554 239q-214 79 -340 139q-3 1 -35 16.5t-39.5 18.5t-35 15.5t-40.5 17.5t-35.5 14t-42 15t-39.5 11q-39 10 -75 10q-101 0 -192 -91q-58 -58 -108 -143q-101 42 -109 46zM765 -497l-134 134l133 133l134 -134z" />
    <glyph glyph-name="uniFEA0" unicode="&#x62c;" horiz-adv-x="1663" arabic-form="medial" 
d="M0 40q-25 0 -42 16t-17 41q0 24 17.5 41.5t41.5 17.5h183q244 0 508 94q152 53 451 201l109 54q-117 27 -293 112t-218 101q-101 40 -179 40q-103 0 -193 -90q-61 -61 -107 -143l-107 49q52 88 87 130q114 125 237 160q46 13 83 13q53 0 111.5 -14.5t86 -26t91.5 -39.5
q46 -20 130.5 -63t155 -73.5t140.5 -50.5q56 -16 114 -20l27 -125q-17 -8 -40 -22.5t-38 -22.5q-48 -25 -74 -38q32 -112 134.5 -169t253.5 -57h14q24 0 41.5 -17.5t17.5 -41.5q0 -25 -17 -41t-42 -16h-14q-186 0 -314 75.5t-183 212.5q-197 -98 -362.5 -163t-347.5 -101
q-126 -25 -263 -25zM789 -495l-134 134l133 133l134 -134z" />
    <glyph glyph-name="uniFEA2" unicode="&#x62d;" horiz-adv-x="1702" arabic-form="final" 
d="M1490 -571q-227 -180 -578 -180q-299 0 -508 171q-212 173 -212 428q0 407 430 618q207 91 492 126q110 14 188 15q-375 172 -444 201q-79 33 -130 48q-52 15 -95 15q-96 0 -187 -67q-74 -56 -132 -155l-91 51q101 196 277 264q62 24 132 24q117 0 279 -70
q53 -23 114.5 -54t105.5 -55t113 -63t104 -58q67 -36 133 -64q-6 -25 -15 -69t-11 -54h-77q-30 0 -80 -3q-9 -63 -9 -84q0 -17 3 -35q32 -205 285 -219q74 -4 123 -4q24 0 41.5 -17.5t17.5 -42.5q0 -24 -17.5 -40t-41.5 -16q-231 0 -352 66.5t-164 221.5q-10 36 -10 76
q0 44 11 83q-215 -29 -374.5 -76.5t-271.5 -132.5q-204 -154 -229 -377q-1 -5 -1 -19v-18q0 -236 191 -378q176 -131 430 -131q288 0 485 166q9 -9 22 -27t21 -27q13 -15 32 -38z" />
    <glyph glyph-name="uniFEA3" unicode="&#x62d;" horiz-adv-x="1548" arabic-form="initial" 
d="M225 571q176 305 409 305q53 0 112 -15t84.5 -25.5t91.5 -39.5q36 -16 155 -71.5t200.5 -88t169.5 -57.5q2 -12 10 -44t10 -54q1 -9 5 -27q-43 -19 -107.5 -55t-98.5 -53q-422 -207 -782 -278q-143 -28 -287 -28h-198q-25 0 -42.5 16.5t-17.5 41.5t17 41.5t43 16.5h198
q244 0 565 107q235 80 554 239q-214 79 -340 139q-3 1 -35 16.5t-39.5 18.5t-35 15.5t-40.5 17.5t-35.5 14t-42 15t-39.5 11q-39 10 -75 10q-101 0 -192 -91q-58 -58 -108 -143q-101 42 -109 46z" />
    <glyph glyph-name="uniFEA4" unicode="&#x62d;" horiz-adv-x="1667" arabic-form="medial" 
d="M0 40q-25 0 -42 16t-17 41q0 24 17.5 41.5t41.5 17.5h183q244 0 508 94q152 53 451 201l109 54q-117 27 -293 112t-218 101q-101 40 -179 40q-103 0 -193 -90q-61 -61 -107 -143l-107 49q52 88 87 130q114 125 237 160q46 13 83 13q53 0 111.5 -14.5t86 -26t91.5 -39.5
q46 -20 130.5 -63t155 -73.5t140.5 -50.5q56 -16 114 -20l27 -125q-17 -8 -40 -22.5t-38 -22.5q-48 -25 -74 -38q32 -112 134.5 -169t253.5 -57h14q24 0 41.5 -17.5t17.5 -41.5q0 -25 -17 -41t-42 -16h-14q-186 0 -314 75.5t-183 212.5q-197 -98 -362.5 -163t-347.5 -101
q-126 -25 -263 -25z" />
    <glyph glyph-name="uniFEA6" unicode="&#x62e;" horiz-adv-x="1707" arabic-form="final" 
d="M1490 -571q-227 -180 -578 -180q-299 0 -508 171q-212 173 -212 428q0 407 430 618q207 91 492 126q110 14 188 15q-375 172 -444 201q-79 33 -130 48q-52 15 -95 15q-96 0 -187 -67q-74 -56 -132 -155l-91 51q101 196 277 264q62 24 132 24q117 0 279 -70
q53 -23 114.5 -54t105.5 -55t113 -63t104 -58q67 -36 133 -64q-6 -25 -15 -69t-11 -54h-77q-30 0 -80 -3q-9 -63 -9 -84q0 -17 3 -35q32 -205 285 -219q74 -4 123 -4q24 0 41.5 -17.5t17.5 -42.5q0 -24 -17.5 -40t-41.5 -16q-231 0 -352 66.5t-164 221.5q-10 36 -10 76
q0 44 11 83q-215 -29 -374.5 -76.5t-271.5 -132.5q-204 -154 -229 -377q-1 -5 -1 -19v-18q0 -236 191 -378q176 -131 430 -131q288 0 485 166q9 -9 22 -27t21 -27q13 -15 32 -38zM601 1229l-134 134l133 133l134 -134z" />
    <glyph glyph-name="uniFEA7" unicode="&#x62e;" horiz-adv-x="1548" arabic-form="initial" 
d="M225 571q176 305 409 305q53 0 112 -15t84.5 -25.5t91.5 -39.5q36 -16 155 -71.5t200.5 -88t169.5 -57.5q2 -12 10 -44t10 -54q1 -9 5 -27q-43 -19 -107.5 -55t-98.5 -53q-422 -207 -782 -278q-143 -28 -287 -28h-198q-25 0 -42.5 16.5t-17.5 41.5t17 41.5t43 16.5h198
q244 0 565 107q235 80 554 239q-214 79 -340 139q-3 1 -35 16.5t-39.5 18.5t-35 15.5t-40.5 17.5t-35.5 14t-42 15t-39.5 11q-39 10 -75 10q-101 0 -192 -91q-58 -58 -108 -143q-101 42 -109 46zM597 1078l-134 134l133 133l134 -134z" />
    <glyph glyph-name="uniFEA8" unicode="&#x62e;" horiz-adv-x="1669" arabic-form="medial" 
d="M0 40q-25 0 -42 16t-17 41q0 24 17.5 41.5t41.5 17.5h183q244 0 508 94q152 53 451 201l109 54q-117 27 -293 112t-218 101q-101 40 -179 40q-103 0 -193 -90q-61 -61 -107 -143l-107 49q52 88 87 130q114 125 237 160q46 13 83 13q53 0 111.5 -14.5t86 -26t91.5 -39.5
q46 -20 130.5 -63t155 -73.5t140.5 -50.5q56 -16 114 -20l27 -125q-17 -8 -40 -22.5t-38 -22.5q-48 -25 -74 -38q32 -112 134.5 -169t253.5 -57h14q24 0 41.5 -17.5t17.5 -41.5q0 -25 -17 -41t-42 -16h-14q-186 0 -314 75.5t-183 212.5q-197 -98 -362.5 -163t-347.5 -101
q-126 -25 -263 -25zM540 1091l-134 134l133 133l134 -134z" />
    <glyph glyph-name="uniFEAA" unicode="&#x62f;" horiz-adv-x="1253" arabic-form="final" 
d="M1249 40q-109 0 -183.5 39t-130.5 110q-95 -79 -190.5 -117t-243.5 -38q-210 0 -366 151q42 65 69 100q170 -131 310 -131q237 0 362 148q-145 352 -311 749q11 5 109 45l72 -174q33 -81 110.5 -266.5t124.5 -300.5l-1 1q13 -34 20.5 -51t21.5 -43t28 -40.5t35.5 -29
t47.5 -22.5q45 -14 116 -14q24 0 41.5 -17t17.5 -41t-17.5 -41t-41.5 -17z" />
    <glyph glyph-name="uniFEAC" unicode="&#x630;" horiz-adv-x="1247" arabic-form="final" 
d="M1249 40q-109 0 -183.5 39t-130.5 110q-95 -79 -190.5 -117t-243.5 -38q-210 0 -366 151q42 65 69 100q170 -131 310 -131q237 0 362 148q-145 352 -311 749q11 5 109 45l72 -174q33 -81 110.5 -266.5t124.5 -300.5l-1 1q13 -34 20.5 -51t21.5 -43t28 -40.5t35.5 -29
t47.5 -22.5q45 -14 116 -14q24 0 41.5 -17t17.5 -41t-17.5 -41t-41.5 -17zM627 1335l-134 134l133 133l134 -134z" />
    <glyph glyph-name="uniFEAE" unicode="&#x631;" horiz-adv-x="816" arabic-form="final" 
d="M825 40q-170 0 -246 108l6 -79q0 -220 -185 -433q-158 -181 -417 -319q-31 58 -53 104q369 198 492 453q46 95 46 196q0 61 -12.5 131t-24.5 113t-35 114q-7 22 -18.5 60t-16.5 54l111 35q75 -221 157 -321q40 -49 84 -74.5t107 -25.5h5q24 0 41.5 -17.5t17.5 -41.5
q0 -25 -17 -41t-42 -16z" />
    <glyph glyph-name="uniFEB0" unicode="&#x632;" horiz-adv-x="819" arabic-form="final" 
d="M825 40q-170 0 -246 108l6 -79q0 -220 -185 -433q-158 -181 -417 -319q-31 58 -53 104q369 198 492 453q46 95 46 196q0 61 -12.5 131t-24.5 113t-35 114q-7 22 -18.5 60t-16.5 54l111 35q75 -221 157 -321q40 -49 84 -74.5t107 -25.5h5q24 0 41.5 -17.5t17.5 -41.5
q0 -25 -17 -41t-42 -16zM392 862l-134 134l133 133l134 -134z" />
    <glyph glyph-name="uniFEB2" unicode="&#x633;" horiz-adv-x="2889" arabic-form="final" 
d="M2891 156q24 0 41.5 -17.5t17.5 -41.5t-17.5 -40.5t-41.5 -16.5h-20q-66 0 -122 20.5t-96.5 58t-69.5 80.5t-50 96q-29 -114 -100.5 -185t-191.5 -71q-86 0 -150 45.5t-97 114.5q-53 -79 -118 -119.5t-165 -40.5q-146 0 -227 76q-2 -267 -110 -444.5t-308 -248.5
q-129 -46 -290 -46h-17q-3 0 -9 0.5t-8 0.5q-242 0 -408 140h1q-187 172 -187 457t150 544q16 -12 46.5 -35t47.5 -36q-76 -122 -112 -335q-13 -78 -13 -145q0 -229 133.5 -350t372.5 -121q592 17 592 587q0 123 -27 222.5t-81 229.5l106 56q10 -25 28 -77.5t29.5 -84
t32.5 -76.5t41 -73.5t49.5 -57t64.5 -44.5q43 -20 98 -20q48 0 85.5 15.5t62.5 38.5t43.5 62.5t28.5 75.5t16.5 90.5t8.5 93t4 96.5l124 -8l-7 -133q0 -219 83 -302q34 -34 90 -34q54 0 95.5 29.5t65 78t35 104.5t11.5 116q0 76 -10 204l124 8q11 -149 38 -254
q37 -137 109 -211q71 -72 158 -72h20z" />
    <glyph glyph-name="uniFEB3" unicode="&#x633;" horiz-adv-x="1609" arabic-form="initial" 
d="M0 40q-22 2 -38.5 19t-16.5 40t17 40t39 17q101 0 190 81q144 133 201 403l115 -23q-58 -180 -58 -288q0 -182 148 -182q101 0 179 95q109 131 157 429q4 -1 111 -23q-1 -7 -10 -59.5t-12 -74t-7 -62.5t-4 -74q0 -234 187 -234q94 0 141.5 58t47.5 158q0 60 -14.5 129
t-29 111.5t-39.5 107.5q-16 40 -40 91q62 35 103 56q87 -174 123 -349q16 -78 16 -143q0 -160 -87 -247.5t-248 -87.5h-11q-65 0 -121 35t-91 85q-26 38 -37 87q-29 -67 -87.5 -118.5t-132.5 -74.5q-45 -14 -86 -14h-8q-102 3 -166 59.5t-77 149.5q-128 -197 -354 -197z" />
    <glyph glyph-name="uniFEB4" unicode="&#x633;" horiz-adv-x="1851" arabic-form="medial" 
d="M-2 40q-24 0 -41.5 17t-17.5 41q0 22 18.5 39t41.5 19h8q99 0 189 96q142 152 208 419l113 -31q-1 -6 -10.5 -49.5t-12.5 -59.5t-9.5 -51.5t-9 -64.5t-3.5 -59v-13q0 -188 149 -188q85 0 158 93q94 120 145 348q4 18 10 47t9 40q109 -21 114 -22q-18 -110 -18 -212
q0 -290 175 -290q40 0 71.5 15.5t51.5 39t35.5 59.5t23.5 68t14 73q11 74 11 176q0 16 -5 93q1 0 119 11q11 -141 51 -266q89 -272 259 -272h8q25 0 41.5 -16.5t16.5 -41.5q0 -24 -17 -41t-41 -17h-8q-97 0 -172 44.5t-122 115.5q-31 46 -45 98q-12 -85 -59.5 -146.5
t-120.5 -91.5q-49 -20 -112 -20q-214 0 -278 237q-109 -240 -320 -240q-109 0 -172.5 65t-85.5 176q-104 -169 -238 -218q-54 -20 -113 -20h-9z" />
    <glyph glyph-name="uniFEB6" unicode="&#x634;" horiz-adv-x="2889" arabic-form="final" 
d="M2891 156q24 0 41.5 -17.5t17.5 -41.5t-17.5 -40.5t-41.5 -16.5h-20q-66 0 -122 20.5t-96.5 58t-69.5 80.5t-50 96q-29 -114 -100.5 -185t-191.5 -71q-86 0 -150 45.5t-97 114.5q-53 -79 -118 -119.5t-165 -40.5q-146 0 -227 76q-2 -267 -110 -444.5t-308 -248.5
q-129 -46 -290 -46h-17q-3 0 -9 0.5t-8 0.5q-242 0 -408 140h1q-187 172 -187 457t150 544q16 -12 46.5 -35t47.5 -36q-76 -122 -112 -335q-13 -78 -13 -145q0 -229 133.5 -350t372.5 -121q592 17 592 587q0 123 -27 222.5t-81 229.5l106 56q10 -25 28 -77.5t29.5 -84
t32.5 -76.5t41 -73.5t49.5 -57t64.5 -44.5q43 -20 98 -20q48 0 85.5 15.5t62.5 38.5t43.5 62.5t28.5 75.5t16.5 90.5t8.5 93t4 96.5l124 -8l-7 -133q0 -219 83 -302q34 -34 90 -34q54 0 95.5 29.5t65 78t35 104.5t11.5 116q0 76 -10 204l124 8q11 -149 38 -254
q37 -137 109 -211q71 -72 158 -72h20zM1997 1456l133 -133l-132 -132l-133 133zM1790 1185l134 -134l-132 -133l-134 134zM2196 1183l134 -134l-132 -132l-134 134z" />
    <glyph glyph-name="uniFEB7" unicode="&#x634;" horiz-adv-x="1609" arabic-form="initial" 
d="M0 40q-22 2 -38.5 19t-16.5 40t17 40t39 17q101 0 190 81q144 133 201 403l115 -23q-58 -180 -58 -288q0 -182 148 -182q101 0 179 95q109 131 157 429q4 -1 111 -23q-1 -7 -10 -59.5t-12 -74t-7 -62.5t-4 -74q0 -234 187 -234q94 0 141.5 58t47.5 158q0 60 -14.5 129
t-29 111.5t-39.5 107.5q-16 40 -40 91q62 35 103 56q87 -174 123 -349q16 -78 16 -143q0 -160 -87 -247.5t-248 -87.5h-11q-65 0 -121 35t-91 85q-26 38 -37 87q-29 -67 -87.5 -118.5t-132.5 -74.5q-45 -14 -86 -14h-8q-102 3 -166 59.5t-77 149.5q-128 -197 -354 -197z
M934 1561l133 -133l-132 -132l-133 133zM727 1290l134 -134l-132 -133l-134 134zM1133 1288l134 -134l-132 -132l-134 134z" />
    <glyph glyph-name="uniFEB8" unicode="&#x634;" horiz-adv-x="1876" arabic-form="medial" 
d="M5 40q-24 0 -41.5 17t-17.5 41q0 22 18.5 39t41.5 19h8q99 0 189 96q142 152 208 419l113 -31q-1 -6 -10.5 -49.5t-12.5 -59.5t-9.5 -51.5t-9 -64.5t-3.5 -59v-13q0 -188 149 -188q85 0 158 93q94 120 145 348q4 18 10 47t9 40q109 -21 114 -22q-18 -110 -18 -212
q0 -290 175 -290q40 0 71.5 15.5t51.5 39t35.5 59.5t23.5 68t14 73q11 74 11 176q0 16 -5 93q1 0 119 11q11 -141 51 -266q89 -272 259 -272h8q25 0 41.5 -16.5t16.5 -41.5q0 -24 -17 -41t-41 -17h-8q-97 0 -172 44.5t-122 115.5q-31 46 -45 98q-12 -85 -59.5 -146.5
t-120.5 -91.5q-49 -20 -112 -20q-214 0 -278 237q-109 -240 -320 -240q-109 0 -172.5 65t-85.5 176q-104 -169 -238 -218q-54 -20 -113 -20h-9zM1002 1531l133 -133l-132 -132l-133 133zM795 1260l134 -134l-132 -133l-134 134zM1201 1258l134 -134l-132 -132l-134 134z" />
    <glyph glyph-name="uniFEBA" unicode="&#x635;" horiz-adv-x="2868" arabic-form="final" 
d="M2927 97q0 -25 -17 -41t-42 -16q-88 0 -164.5 29t-123.5 76q-221 -140 -496 -140h-23q-193 0 -364 60q-102 40 -243 140v-23q0 -3 0.5 -8.5t0.5 -7.5v-9q5 -36 5 -97q0 -5 0.5 -13.5t0.5 -11.5v-25q0 -9 -2 -27q-10 -129 -58 -242q-63 -126 -152 -206v1
q-185 -146 -448 -146q-294 0 -463.5 132.5t-169.5 401.5v8q3 148 40.5 276t101.5 265q17 -11 50.5 -32.5t50.5 -32.5q-80 -169 -112 -340q-14 -75 -14 -144q0 -111 42 -203q51 -92 150 -145.5t236 -64.5q39 -3 41 -3h42q191 0 318 77.5t186 222.5q42 102 42 210q0 4 0.5 14
t0.5 14q0 181 -83 432q-28 83 -32 94l111 44q50 -114 142 -256q35 -54 121 -117q66 121 188 263q94 109 194 184.5t225 109.5q65 18 133 18q133 0 228 -66t134 -172q23 -63 23 -128q0 -110 -65 -219q36 -45 140 -70q28 -7 58 -7h8q25 0 42 -17t17 -42zM1699 192
q180 -70 374 -70q183 0 319.5 55t191.5 167q25 51 25 120q0 110 -74 172t-189 62q-89 0 -161.5 -31.5t-145.5 -84.5q-151 -112 -299 -324q-22 -32 -41 -66z" />
    <glyph glyph-name="uniFEBB" unicode="&#x635;" horiz-adv-x="1871" arabic-form="initial" 
d="M0 40q-25 0 -42 16.5t-17 41.5t17 41.5t42 16.5q170 0 248 74q17 15 31.5 35t24.5 36.5t20.5 45t16 44t14 51.5t11 49t11 55.5t10.5 53.5q7 36 13 57l114 -34q-25 -100 -25 -175q0 -177 109 -269q65 140 212 319q157 187 334 274q130 64 252 64t207.5 -58t128.5 -155
q30 -67 30 -153q0 -71 -23.5 -133t-65 -108t-90 -79.5t-105.5 -57.5q-223 -93 -583 -93q-193 0 -312 56t-179 183q-71 -98 -163.5 -147.5t-231.5 -50.5h-9zM696 129q96 -23 246 -23q259 0 464 78q150 56 213 160q33 54 36 123v12q0 82 -52 139t-127 84q-47 17 -94 17
q-92 0 -200 -57q-73 -39 -183 -133q-129 -121 -259 -324q-28 -44 -44 -76z" />
    <glyph glyph-name="uniFEBC" unicode="&#x635;" horiz-adv-x="1933" arabic-form="medial" 
d="M727 156q105 -31 260 -31q507 0 653 237q32 52 35 123v14q0 102 -72.5 159.5t-181.5 57.5q-100 0 -179.5 -31.5t-156.5 -87.5q-194 -143 -358 -441zM-1 40q-24 0 -41 16.5t-17 40.5q0 25 17 42t41 17h9q127 4 179 28q40 21 72 56.5t52.5 72t38.5 93.5t27 98t23 109
q6 30 10 44l112 -35q-29 -106 -29 -175q0 -95 28.5 -157.5t88.5 -105.5q156 318 412 506q144 105 292 134q44 10 99 10q122 0 211 -54.5t131 -145.5q29 -63 29 -140v-7q-5 -137 -111 -262q-34 -40 -80 -69h340q26 0 43 -17t17 -42t-17 -41t-43 -16l-252 -1h-9
q-72 0 -107.5 1t-82.5 8.5t-80 23.5q-227 -63 -416 -63q-159 0 -290 37.5t-210 110.5q-42 39 -65 96q-98 -129 -188 -170q-85 -43 -234 -43z" />
    <glyph glyph-name="uniFEBE" unicode="&#x636;" horiz-adv-x="2867" arabic-form="final" 
d="M2927 97q0 -25 -17 -41t-42 -16q-88 0 -164.5 29t-123.5 76q-221 -140 -496 -140h-23q-193 0 -364 60q-102 40 -243 140v-23q0 -3 0.5 -8.5t0.5 -7.5v-9q5 -36 5 -97q0 -5 0.5 -13.5t0.5 -11.5v-25q0 -9 -2 -27q-10 -129 -58 -242q-63 -126 -152 -206v1
q-185 -146 -448 -146q-294 0 -463.5 132.5t-169.5 401.5v8q3 148 40.5 276t101.5 265q17 -11 50.5 -32.5t50.5 -32.5q-80 -169 -112 -340q-14 -75 -14 -144q0 -111 42 -203q51 -92 150 -145.5t236 -64.5q39 -3 41 -3h42q191 0 318 77.5t186 222.5q42 102 42 210q0 4 0.5 14
t0.5 14q0 181 -83 432q-28 83 -32 94l111 44q50 -114 142 -256q35 -54 121 -117q66 121 188 263q94 109 194 184.5t225 109.5q65 18 133 18q133 0 228 -66t134 -172q23 -63 23 -128q0 -110 -65 -219q36 -45 140 -70q28 -7 58 -7h8q25 0 42 -17t17 -42zM1699 192
q180 -70 374 -70q183 0 319.5 55t191.5 167q25 51 25 120q0 110 -74 172t-189 62q-89 0 -161.5 -31.5t-145.5 -84.5q-151 -112 -299 -324q-22 -32 -41 -66zM2296 1069l-134 134l133 133l134 -134z" />
    <glyph glyph-name="uniFEBF" unicode="&#x636;" horiz-adv-x="1894" arabic-form="initial" 
d="M0 40q-25 0 -42 16.5t-17 41.5t17 41.5t42 16.5q170 0 248 74q17 15 31.5 35t24.5 36.5t20.5 45t16 44t14 51.5t11 49t11 55.5t10.5 53.5q7 36 13 57l114 -34q-25 -100 -25 -175q0 -177 109 -269q65 140 212 319q157 187 334 274q130 64 252 64t207.5 -58t128.5 -155
q30 -67 30 -153q0 -71 -23.5 -133t-65 -108t-90 -79.5t-105.5 -57.5q-223 -93 -583 -93q-193 0 -312 56t-179 183q-71 -98 -163.5 -147.5t-231.5 -50.5h-9zM696 129q96 -23 246 -23q259 0 464 78q150 56 213 160q33 54 36 123v12q0 82 -52 139t-127 84q-47 17 -94 17
q-92 0 -200 -57q-73 -39 -183 -133q-129 -121 -259 -324q-28 -44 -44 -76zM1299 1117l-134 134l133 133l134 -134z" />
    <glyph glyph-name="uniFEC0" unicode="&#x636;" horiz-adv-x="1931" arabic-form="medial" 
d="M727 156q105 -31 260 -31q507 0 653 237q32 52 35 123v14q0 102 -72.5 159.5t-181.5 57.5q-100 0 -179.5 -31.5t-156.5 -87.5q-194 -143 -358 -441zM-1 40q-24 0 -41 16.5t-17 40.5q0 25 17 42t41 17h9q127 4 179 28q40 21 72 56.5t52.5 72t38.5 93.5t27 98t23 109
q6 30 10 44l112 -35q-29 -106 -29 -175q0 -95 28.5 -157.5t88.5 -105.5q156 318 412 506q144 105 292 134q44 10 99 10q122 0 211 -54.5t131 -145.5q29 -63 29 -140v-7q-5 -137 -111 -262q-34 -40 -80 -69h340q26 0 43 -17t17 -42t-17 -41t-43 -16l-252 -1h-9
q-72 0 -107.5 1t-82.5 8.5t-80 23.5q-227 -63 -416 -63q-159 0 -290 37.5t-210 110.5q-42 39 -65 96q-98 -129 -188 -170q-85 -43 -234 -43zM1354 1095l-134 134l133 133l134 -134z" />
    <glyph glyph-name="uniFEC2" unicode="&#x637;" horiz-adv-x="1867" arabic-form="final" 
d="M572 169q88 -4 187 -4q148 0 263 13.5t221 46.5t180.5 96t114.5 155q24 55 24 105q0 94 -69 143.5t-174 49.5q-24 0 -45 -3q-110 -17 -236 -105q-127 -89 -267 -244zM1926 98q0 -25 -16.5 -41.5t-41.5 -16.5h-921q-14 -1 -41 -1h-39q-7 0 -23.5 0.5t-25.5 0.5
q-28 0 -77 3h-3q-296 20 -583 124l20 53q4 13 22 56q119 -43 253 -76q47 68 143 195l26 38q15 97 15 252q0 132 -11.5 290.5t-22.5 254.5t-33 272l115 27q57 -429 69 -955q110 103 205.5 174.5t204.5 114.5q78 31 160 31q106 0 190.5 -47t130.5 -121q32 -52 34 -117v-11
q0 -215 -172 -366q-55 -48 -106 -76h470q26 0 42 -16t16 -42z" />
    <glyph glyph-name="uniFEC3" unicode="&#x637;" horiz-adv-x="1509" arabic-form="initial" 
d="M-3 40q-24 0 -41.5 17t-17.5 41q0 22 18 40t41 18h176q62 104 161 248q21 124 25 394q0 271 -37 711l118 25q42 -324 42 -723v-51q0 -22 -2 -70t-2 -70v-53q152 141 279 219q130 79 229 98q35 7 84 7q152 0 250 -93h-1q90 -94 90 -217q0 -170 -137 -315l2 1
q-130 -113 -293.5 -170.5t-382.5 -57.5l-592 1h-9zM531 156q205 0 319 24q195 41 344 164q115 97 115 228q0 95 -72.5 148t-177.5 53q-38 0 -74 -9t-59 -19t-60 -29q-182 -93 -371 -308q-107 -121 -193 -252h229z" />
    <glyph glyph-name="uniFEC4" unicode="&#x637;" horiz-adv-x="1583" arabic-form="medial" 
d="M1419 575q0 -63 -16.5 -119.5t-38.5 -95.5t-62 -80.5t-69 -65t-77 -58.5h433q25 0 41.5 -16t16.5 -41q0 -24 -17 -41t-41 -17q-6 0 -20 -0.5t-21 -0.5h-114q-12 0 -42.5 -0.5t-50.5 -0.5q-234 0 -382 45q-151 -44 -354 -44h-613q-26 0 -42 16t-16 42t16 42t42 16h175
q32 51 171 238q15 21 23 94q7 67 7 171q0 339 -38 741q-6 60 -12 107q14 2 52 10.5t63 11.5q56 -377 56 -964q142 130 261 209q99 66 206 97q52 15 105 15q107 0 191 -43.5t130 -116.5q33 -52 36 -121q0 -5 0.5 -15t0.5 -15zM484 155h32q227 0 340 20q205 37 344 169
q79 74 102 186q5 25 5 44q0 111 -110 166q-62 31 -137 31q-51 0 -86.5 -10t-92.5 -37q-98 -46 -186 -119.5t-182 -177.5q-100 -110 -201 -271z" />
    <glyph glyph-name="uniFEC6" unicode="&#x638;" horiz-adv-x="1868" arabic-form="final" 
d="M572 169q88 -4 187 -4q148 0 263 13.5t221 46.5t180.5 96t114.5 155q24 55 24 105q0 94 -69 143.5t-174 49.5q-24 0 -45 -3q-110 -17 -236 -105q-127 -89 -267 -244zM1926 98q0 -25 -16.5 -41.5t-41.5 -16.5h-921q-14 -1 -41 -1h-39q-7 0 -23.5 0.5t-25.5 0.5
q-28 0 -77 3h-3q-296 20 -583 124l20 53q4 13 22 56q119 -43 253 -76q47 68 143 195l26 38q15 97 15 252q0 132 -11.5 290.5t-22.5 254.5t-33 272l115 27q57 -429 69 -955q110 103 205.5 174.5t204.5 114.5q78 31 160 31q106 0 190.5 -47t130.5 -121q32 -52 34 -117v-11
q0 -215 -172 -366q-55 -48 -106 -76h470q26 0 42 -16t16 -42zM1283 1222l-134 134l133 133l134 -134z" />
    <glyph glyph-name="uniFEC7" unicode="&#x638;" horiz-adv-x="1520" arabic-form="initial" 
d="M-3 40q-24 0 -41.5 17t-17.5 41q0 22 18 40t41 18h176q62 104 161 248q21 124 25 394q0 271 -37 711l118 25q42 -324 42 -723v-51q0 -22 -2 -70t-2 -70v-53q152 141 279 219q130 79 229 98q35 7 84 7q152 0 250 -93h-1q90 -94 90 -217q0 -170 -137 -315l2 1
q-130 -113 -293.5 -170.5t-382.5 -57.5l-592 1h-9zM531 156q205 0 319 24q195 41 344 164q115 97 115 228q0 95 -72.5 148t-177.5 53q-38 0 -74 -9t-59 -19t-60 -29q-182 -93 -371 -308q-107 -121 -193 -252h229zM1048 1210l-134 134l133 133l134 -134z" />
    <glyph glyph-name="uniFEC8" unicode="&#x638;" horiz-adv-x="1570" arabic-form="medial" 
d="M1419 575q0 -63 -16.5 -119.5t-38.5 -95.5t-62 -80.5t-69 -65t-77 -58.5h433q25 0 41.5 -16t16.5 -41q0 -24 -17 -41t-41 -17q-6 0 -20 -0.5t-21 -0.5h-114q-12 0 -42.5 -0.5t-50.5 -0.5q-234 0 -382 45q-151 -44 -354 -44h-613q-26 0 -42 16t-16 42t16 42t42 16h175
q32 51 171 238q15 21 23 94q7 67 7 171q0 339 -38 741q-6 60 -12 107q14 2 52 10.5t63 11.5q56 -377 56 -964q142 130 261 209q99 66 206 97q52 15 105 15q107 0 191 -43.5t130 -116.5q33 -52 36 -121q0 -5 0.5 -15t0.5 -15zM484 155h32q227 0 340 20q205 37 344 169
q79 74 102 186q5 25 5 44q0 111 -110 166q-62 31 -137 31q-51 0 -86.5 -10t-92.5 -37q-98 -46 -186 -119.5t-182 -177.5q-100 -110 -201 -271zM1057 1221l-134 134l133 133l134 -134z" />
    <glyph glyph-name="uniFECA" unicode="&#x639;" horiz-adv-x="1355" arabic-form="final" 
d="M444 722q69 -73 103 -108t92.5 -91t112.5 -101q191 78 271 138q99 74 99 168q0 21 -10.5 37.5t-32 29.5t-34 18.5t-37.5 14.5q-74 21 -155 21q-156 0 -313 -73q-58 -27 -96 -54zM1412 97q0 -25 -16 -40.5t-41 -17.5q-131 0 -238 38.5t-227 108.5q-78 45 -156 99
q-70 -28 -118.5 -50t-109.5 -57t-103.5 -70.5t-81 -86t-60.5 -107.5q-21 -56 -21 -120q0 -103 76 -204q101 -131 262 -193q84 -33 234 -33q248 0 431 111q8 -13 19.5 -33t21 -36t19.5 -32q-216 -130 -486 -130q-215 0 -373.5 80.5t-252.5 222.5v-1q-67 112 -67 235
q0 124 69 252q107 197 440 335q-38 33 -81 74.5t-70 70t-76.5 80.5t-70.5 74l-10 95q93 130 324 182l-1 -1q112 23 204 23q101 0 181 -21.5t135.5 -76.5t57.5 -139v-6q0 -137 -140 -257q-88 -67 -225 -129q77 -46 117.5 -69t111.5 -53t138 -45q64 -14 127 -14
q24 -2 40.5 -18.5t16.5 -40.5z" />
    <glyph glyph-name="uniFECB" unicode="&#x639;" horiz-adv-x="1072" arabic-form="initial" 
d="M-60 98q0 25 17.5 41.5t42.5 16.5l386 4q-74 67 -119 126t-65 136q-10 39 -10 81q0 128 66 222t169 139q71 31 156 31q194 0 362 -143l-73 -90q-89 62 -190 98q-54 19 -99 19q-98 0 -163.5 -47t-93.5 -126q-18 -50 -18 -103q0 -111 68 -185.5t170 -105.5q60 -18 124 -18
h18q174 13 266 34q3 -22 7 -55.5t7 -57.5q-300 -73 -750 -73l-218 -2q-25 0 -42.5 16.5t-17.5 41.5z" />
    <glyph glyph-name="uniFECC" unicode="&#x639;" horiz-adv-x="1138" arabic-form="medial" 
d="M247 680q12 -14 48 -58t50 -61t45 -53.5t50 -56.5t47 -48.5t54 -51.5t54 -45q107 50 205 189q59 83 84 147q13 34 13 53q-130 88 -305 88q-171 0 -345 -103zM702 236q207 -80 440 -80q24 0 41.5 -17.5t17.5 -42.5q0 -24 -17.5 -40.5t-41.5 -16.5q-323 0 -542 129
q-271 -129 -603 -129q-23 0 -41 17t-18 40q0 24 18 42t41 18q266 0 489 89q-115 104 -285 306l-74 87q1 20 5 54t5 53q141 121 378 150l45 3q30 2 42 2q129 0 231.5 -35.5t152.5 -104.5q29 -40 29 -80q0 -2 0.5 -7t0.5 -7q0 -39 -22 -86q-45 -94 -123.5 -184.5
t-168.5 -159.5z" />
    <glyph glyph-name="uniFECE" unicode="&#x63a;" horiz-adv-x="1351" arabic-form="final" 
d="M438 722q69 -73 103 -108t92.5 -91t112.5 -101q191 78 271 138q99 74 99 168q0 21 -10.5 37.5t-32 29.5t-34 18.5t-37.5 14.5q-74 21 -155 21q-156 0 -313 -73q-58 -27 -96 -54zM1406 97q0 -25 -16 -40.5t-41 -17.5q-131 0 -238 38.5t-227 108.5q-78 45 -156 99
q-70 -28 -118.5 -50t-109.5 -57t-103.5 -70.5t-81 -86t-60.5 -107.5q-21 -56 -21 -120q0 -103 76 -204q101 -131 262 -193q84 -33 234 -33q248 0 431 111q8 -13 19.5 -33t21 -36t19.5 -32q-216 -130 -486 -130q-215 0 -373.5 80.5t-252.5 222.5v-1q-67 112 -67 235
q0 124 69 252q107 197 440 335q-38 33 -81 74.5t-70 70t-76.5 80.5t-70.5 74l-10 95q93 130 324 182l-1 -1q112 23 204 23q101 0 181 -21.5t135.5 -76.5t57.5 -139v-6q0 -137 -140 -257q-88 -67 -225 -129q77 -46 117.5 -69t111.5 -53t138 -45q64 -14 127 -14
q24 -2 40.5 -18.5t16.5 -40.5zM753 1208l-134 134l133 133l134 -134z" />
    <glyph glyph-name="uniFECF" unicode="&#x63a;" horiz-adv-x="1089" arabic-form="initial" 
d="M-60 98q0 25 17.5 41.5t42.5 16.5l386 4q-74 67 -119 126t-65 136q-10 39 -10 81q0 128 66 222t169 139q71 31 156 31q194 0 362 -143l-73 -90q-89 62 -190 98q-54 19 -99 19q-98 0 -163.5 -47t-93.5 -126q-18 -50 -18 -103q0 -111 68 -185.5t170 -105.5q60 -18 124 -18
h18q174 13 266 34q3 -22 7 -55.5t7 -57.5q-300 -73 -750 -73l-218 -2q-25 0 -42.5 16.5t-17.5 41.5zM504 1198l-134 134l133 133l134 -134z" />
    <glyph glyph-name="uniFED0" unicode="&#x63a;" horiz-adv-x="1144" arabic-form="medial" 
d="M240 680q12 -14 48 -58t50 -61t45 -53.5t50 -56.5t47 -48.5t54 -51.5t54 -45q107 50 205 189q59 83 84 147q13 34 13 53q-130 88 -305 88q-171 0 -345 -103zM695 236q207 -80 440 -80q24 0 41.5 -17.5t17.5 -42.5q0 -24 -17.5 -40.5t-41.5 -16.5q-323 0 -542 129
q-271 -129 -603 -129q-23 0 -41 17t-18 40q0 24 18 42t41 18q266 0 489 89q-115 104 -285 306l-74 87q1 20 5 54t5 53q141 121 378 150l45 3q30 2 42 2q129 0 231.5 -35.5t152.5 -104.5q29 -40 29 -80q0 -2 0.5 -7t0.5 -7q0 -39 -22 -86q-45 -94 -123.5 -184.5
t-168.5 -159.5zM598 1185l-134 134l133 133l134 -134z" />
    <glyph glyph-name="uniFED2" unicode="&#x641;" horiz-adv-x="2101" arabic-form="final" 
d="M1623 244q111 46 168 128q46 63 46 156q0 105 -47 166q-67 85 -167 85q-81 0 -148 -71q-79 -82 -79 -212q0 -61 60 -138q66 -83 167 -114zM1623 898q274 0 315 -370q-6 -109 -47 -184t-116 -150q220 -38 333 -38q25 0 42 -16.5t17 -41.5q0 -24 -17.5 -41t-41.5 -17
q-256 0 -469 74l-75 -24q-191 -72 -603 -72q-287 2 -481 67.5t-284 217.5q-61 102 -61 234q0 142 61 275l104 -58q-48 -106 -48 -218q0 -242 256 -340q147 -56 397 -62h5q36 -2 53 -2h49q209 0 473 51q-64 37 -112.5 101t-71.5 140q-13 42 -13 77q0 118 57.5 214t144.5 147
q62 36 133 36zM1584 1202l-134 134l133 133l134 -134z" />
    <glyph glyph-name="uniFED3" unicode="&#x641;" horiz-adv-x="903" arabic-form="initial" 
d="M-3 40q-24 0 -41 17t-17 41q0 25 17 41.5t43 16.5q208 0 351 25.5t240 96.5q63 46 108 110h-192q-103 0 -185.5 32t-130.5 89q-51 46 -51 180q0 88 43 187q57 135 148 183q49 26 98 26q114 0 210 -105q75 -85 118.5 -204.5t43.5 -264.5q0 -98 -30 -174t-86.5 -126
t-124 -82t-155.5 -53q-148 -36 -363 -36h-44zM229 685q0 -63 31 -99h-1q33 -41 103 -60.5t154 -19.5h96q12 0 80 6q-22 286 -164 412q-49 43 -100 43q-47 0 -106 -61q-71 -75 -89 -176q-3 -10 -3 -22q0 -3 -0.5 -11t-0.5 -12zM398 1337l-134 134l133 133l134 -134z" />
    <glyph glyph-name="uniFED4" unicode="&#x641;" horiz-adv-x="1019" arabic-form="medial" 
d="M0 40q-26 0 -42 16t-16 42t16 42t42 16q180 0 379 26q-68 31 -118.5 95.5t-74.5 144.5q-13 43 -13 78q0 119 57.5 212.5t145.5 145.5q61 35 133 40q109 -9 183.5 -74t107.5 -164q21 -63 21 -130q0 -80 -37 -164q-38 -86 -118 -172q168 -38 352 -38q26 0 42.5 -16.5
t16.5 -41.5t-16.5 -41.5t-42.5 -16.5h-9q-284 0 -487 73q-188 -73 -514 -73h-8zM508 781q-71 0 -125 -45t-84 -110q-24 -52 -24 -123q0 -66 63 -149q71 -92 181 -125q136 59 183 199q13 39 13 78q0 81 -38.5 147t-96.5 105q-35 23 -72 23zM457 1213l-134 134l133 133
l134 -134z" />
    <glyph glyph-name="uniFED6" unicode="&#x642;" horiz-adv-x="1565" arabic-form="final" 
d="M1630 98q0 -23 -18 -40.5t-41 -17.5h-148q-58 -364 -292 -530h1q-155 -107 -375 -107q-196 0 -335 73t-220 205q-83 140 -83 322q0 4 0.5 13.5t0.5 14.5q0 19 1 28q18 199 131 437l104 -56q-119 -243 -119 -438q0 -149 67 -258.5t180 -165.5t273 -56q314 0 468 273
q50 94 81 242h-74q-76 0 -177 6q-196 15 -291 127q-60 78 -60 184q0 191 116 338q90 114 202 114q182 0 300 -219q101 -186 110 -428q3 0 12 -0.5t16 -0.5h36q6 0 20 -1t20 -1h35q24 0 41.5 -17t17.5 -41zM813 353q0 -41 13.5 -72.5t32.5 -52t54 -35t64 -21.5t78.5 -11
t80 -4.5t84.5 -0.5h12h83q-9 224 -97 378q-32 57 -66.5 92t-86.5 54q-22 8 -43 8q-53 0 -109 -68q-100 -124 -100 -267zM1189 1001l-134 134l132 132l133 -134zM833 1003l-134 133l132 133l134 -134z" />
    <glyph glyph-name="uniFED7" unicode="&#x642;" horiz-adv-x="908" arabic-form="initial" 
d="M-3 40q-24 0 -41 17t-17 41q0 25 17 41.5t43 16.5q208 0 351 25.5t240 96.5q63 46 108 110h-192q-103 0 -185.5 32t-130.5 89q-51 46 -51 180q0 88 43 187q57 135 148 183q49 26 98 26q114 0 210 -105q75 -85 118.5 -204.5t43.5 -264.5q0 -98 -30 -174t-86.5 -126
t-124 -82t-155.5 -53q-148 -36 -363 -36h-44zM229 685q0 -63 31 -99h-1q33 -41 103 -60.5t154 -19.5h96q12 0 80 6q-22 286 -164 412q-49 43 -100 43q-47 0 -106 -61q-71 -75 -89 -176q-3 -10 -3 -22q0 -3 -0.5 -11t-0.5 -12zM584 1347l-134 134l132 132l133 -134zM228 1349
l-134 133l132 133l134 -134z" />
    <glyph glyph-name="uniFED8" unicode="&#x642;" horiz-adv-x="1037" arabic-form="medial" 
d="M14 40q-26 0 -42 16t-16 42t16 42t42 16q180 0 379 26q-68 31 -118.5 95.5t-74.5 144.5q-13 43 -13 78q0 119 57.5 212.5t145.5 145.5q61 35 133 40q109 -9 183.5 -74t107.5 -164q21 -63 21 -130q0 -80 -37 -164q-38 -86 -118 -172q168 -38 352 -38q26 0 42.5 -16.5
t16.5 -41.5t-16.5 -41.5t-42.5 -16.5h-9q-284 0 -487 73q-188 -73 -514 -73h-8zM522 781q-71 0 -125 -45t-84 -110q-24 -52 -24 -123q0 -66 63 -149q71 -92 181 -125q136 59 183 199q13 39 13 78q0 81 -38.5 147t-96.5 105q-34 23 -72 23zM704 1195l-134 134l132 132
l133 -134zM348 1197l-134 133l132 133l134 -134z" />
    <glyph glyph-name="uniFEDA" unicode="&#x643;" horiz-adv-x="2062" arabic-form="final" 
d="M1027 890q-60 0 -101.5 -34t-41.5 -90q0 -44 30 -74.5t72 -45.5q20 -7 43 -7q45 0 117 41q47 26 61 36l49 -62l-449 -250l-44 63l191 107q-106 53 -135 121q-13 43 -13 71q0 90 64 146t157 56q43 0 109 -16l-25 -71l-33 4q-37 5 -51 5zM1646 1438q24 2 59.5 6t56.5 6
q20 -198 34 -515q2 -58 10.5 -181.5t10.5 -199.5q3 -73 9 -123.5t21.5 -104.5t41 -87t69 -56.5t104.5 -26.5q24 0 41 -17t17 -41t-17 -41t-41 -17h-5q-41 2 -89 13.5t-75 27.5q-77 42 -146 178q-115 -115 -235 -163q-235 -85 -559 -85q-512 5 -719 171q-67 53 -102.5 118.5
t-35.5 161.5q0 144 99 308l94 -71q-75 -126 -75 -236q0 -71 30 -116.5t87 -84.5q194 -132 622 -132q214 0 359 27.5t254 93.5q72 44 99 130t27 227q0 126 -15 324q-10 277 -31 506z" />
    <glyph glyph-name="uniFEDB" unicode="&#x643;" horiz-adv-x="942" arabic-form="initial" 
d="M0 40q-28 0 -48 16t-20 41q0 27 19.5 43t48.5 16h105q69 0 115.5 1.5t105 8t97 18t79 33t64 51.5t38.5 75t15 102q0 65 -16.5 111.5t-54.5 105.5q-137 211 -407 432q12 106 19 160q443 191 589 252q139 59 172 73q7 -17 24.5 -52.5t25.5 -55.5l-740 -310
q72 -62 105.5 -91t96 -89.5t99 -104.5t78.5 -106t70 -124q50 -110 50 -217q0 -226 -192 -335q-95 -55 -215 -55z" />
    <glyph glyph-name="uniFEDC" unicode="&#x643;" horiz-adv-x="1188" arabic-form="medial" 
d="M-10 40q-25 0 -42 16.5t-17 41.5q0 24 17.5 41t41.5 17h339q76 0 139.5 42t100.5 101q26 42 32 82v15q0 108 -71 240q-135 247 -385 448q11 112 22 177q141 60 411.5 177t411.5 178q8 -20 25 -55.5t24 -52.5l-813 -352q128 -104 220.5 -208t164.5 -234q8 -14 75 -140
t104 -187q41 -68 82.5 -114t112 -80.5t158.5 -36.5h44q24 0 41 -17t17 -41q0 -25 -16.5 -41.5t-41.5 -16.5h-8q-187 0 -285 67q-101 69 -190 186q-60 -111 -108 -156h1q-100 -89 -282 -97h-325z" />
    <glyph glyph-name="uniFEDE" unicode="&#x644;" horiz-adv-x="1490" arabic-form="final" 
d="M291 325q-101 -206 -101 -407q0 -252 252 -374q88 -43 168 -43q143 0 256 42t180 121q91 107 91 282q0 180 -5.5 396.5t-12 369.5t-17.5 402.5t-16 366.5q4 0 10.5 0.5t9.5 0.5h20q15 0 40 2.5t36 3.5l15 -350q23 -600 27 -723q10 -116 70.5 -187.5t173.5 -71.5
q24 0 41.5 -17.5t17.5 -41.5q0 -25 -17 -41t-42 -16q-150 0 -238 73v-37q0 -8 1 -24t1 -25v-47q0 -8 0.5 -19.5t0.5 -14.5q0 -143 -46 -251.5t-131.5 -175.5t-202 -100.5t-263.5 -33.5q-173 0 -298.5 79.5t-189.5 212.5q-48 101 -48 241q0 276 110 470z" />
    <glyph glyph-name="uniFEDF" unicode="&#x644;" horiz-adv-x="558" arabic-form="initial" 
d="M0 40q-24 0 -41 17t-17 41q0 25 16.5 41.5t41.5 16.5h56q134 0 195.5 62.5t61.5 196.5q0 23 -1 35l-52 998q24 2 59.5 6t56.5 6q5 -34 16 -233q9 -142 34 -778v-18q0 -391 -370 -391h-56z" />
    <glyph glyph-name="uniFEE0" unicode="&#x644;" horiz-adv-x="661" arabic-form="medial" 
d="M0 40q-25 0 -41.5 16.5t-16.5 41.5q0 24 17 41t41 17h95q78 3 119.5 17t63.5 55q11 20 18.5 45.5t11.5 46t7 56.5t3.5 54t2 63.5t1.5 60.5q4 116 4 361v25q0 353 -16 543q57 6 115 15q11 -137 15 -352v-404q0 -78 -5 -353q0 -112 58 -172.5t169 -60.5q24 0 42 -17t18 -41
q0 -25 -17.5 -41.5t-42.5 -16.5h-8q-158 0 -269 122q-55 -60 -114.5 -91t-152.5 -31h-118z" />
    <glyph glyph-name="uniFEE2" unicode="&#x645;" horiz-adv-x="1358" arabic-form="final" 
d="M614 268q117 -51 244 -83q33 21 69 103q34 77 34 122q0 88 -40.5 153.5t-104.5 100.5q-35 19 -65 19h-3q-34 0 -71 -30q-65 -52 -116 -142.5t-78 -191.5l132 -52zM754 801q131 -12 211 -102t96 -227v-4q41 -207 183 -284q46 -24 109 -28h11q26 0 42.5 -16.5t16.5 -41.5
t-16.5 -41.5t-42.5 -16.5h-9q-187 16 -329 199q-39 -72 -75 -117q-35 -43 -78 -51q1 -3 -2 -4t-9 -1q-31 0 -79 16q-93 29 -266.5 95.5t-248.5 91.5q-30 10 -36 8v-49q0 -76 2.5 -158t8 -193t7.5 -175q6 -149 15 -385l-119 -7q-3 66 -15.5 390t-20.5 496q0 83 41.5 136
t118.5 53q33 0 101 -19q101 279 257 390q58 42 126 45z" />
    <glyph glyph-name="uniFEE3" unicode="&#x645;" horiz-adv-x="1138" arabic-form="initial" 
d="M452 313q140 -100 274 -137q37 -10 66 -10q37 0 64 17t41.5 47t21 64.5t6.5 75.5q0 86 -31.5 155t-85.5 107q-40 28 -94 34q-50 0 -97 -55q-43 -51 -95 -159zM1 40q-24 0 -41 17t-17 41q0 23 17 39.5t41 18.5q83 0 149 26.5t107 67.5t78.5 99.5t62 113t59 119t67.5 106.5
q85 96 188 96q132 0 208.5 -91t97.5 -229q7 -47 7 -80q0 -92 -30 -168l1 1q-68 -167 -232 -167q-112 0 -260 86q-59 35 -119 79l-28 -27q-145 -148 -356 -148z" />
    <glyph glyph-name="uniFEE4" unicode="&#x645;" horiz-adv-x="1311" arabic-form="medial" 
d="M-3 40q-24 0 -41 16t-17 40t17 42t41 18q138 0 243 118q67 74 152 243l17 33q54 105 85 144q73 88 182 88q123 0 219 -107q65 -82 121 -232q21 -53 33.5 -82.5t40 -74.5t55 -69t71 -42.5t96.5 -18.5q24 0 42 -18t18 -42t-18 -40t-42 -16q-146 0 -287 147q-32 33 -65 75
q-33 -155 -148 -208q-37 -17 -76 -17q-56 0 -168 42l1 -1q-93 40 -223 137q-110 -159 -337 -175h-12zM408 310q128 -87 200 -120q76 -36 126 -36q71 0 120 86q37 64 37 155q0 3 -0.5 11t-0.5 12q0 67 -58 149q-69 96 -158 96q-76 0 -135 -113q-13 -23 -39.5 -75.5t-48 -91.5
t-43.5 -73z" />
    <glyph glyph-name="uniFEE6" unicode="&#x646;" horiz-adv-x="1714" arabic-form="final" 
d="M1766 98q0 -24 -17 -41t-42 -17q-126 0 -283 94q0 -6 1 -28t1 -32q0 -9 1.5 -31.5t1.5 -29.5q0 -130 -37 -252q-54 -148 -171.5 -246.5t-282.5 -137.5q-100 -24 -204 -24q-268 0 -423.5 123t-201.5 359q-9 57 -9 114q0 202 93 425q26 62 57 118l48 -36q21 -18 47 -35
q-82 -152 -115 -349q-12 -70 -12 -135q0 -51 7 -86q0 -2 -0.5 -6t-0.5 -6q0 -70 54 -151q67 -100 182 -159t267 -59q159 0 280.5 50.5t196.5 142.5q106 129 106 344q0 202 -102 431q-16 36 -23 48l-14 32l99 63q3 -5 20.5 -40t27.5 -58q59 -114 112 -177q63 -76 123 -113
t154 -37q26 0 42.5 -16.5t16.5 -41.5zM770 442l-134 134l133 133l134 -134z" />
    <glyph glyph-name="uniFEE7" unicode="&#x646;" horiz-adv-x="706" arabic-form="initial" 
d="M466 393q0 87 -36.5 206.5t-81.5 216.5q24 11 107 54q86 -202 115 -347q13 -65 13 -128q0 -81 -26 -144q-44 -91 -126 -146t-200 -62q-47 -3 -92 -3h-146q-25 0 -41.5 16.5t-16.5 41.5t16.5 41.5t41.5 16.5h148q325 0 325 237zM331 1115l-134 134l133 133l134 -134z" />
    <glyph glyph-name="uniFEE8" unicode="&#x646;" horiz-adv-x="705" arabic-form="medial" 
d="M4 40q-26 0 -42 16t-16 42q0 25 16.5 41.5t41.5 16.5h17q178 0 272 63.5t94 212.5q0 21 -1.5 42t-3 34.5t-6 36.5t-6.5 31.5t-9 37t-9 36.5q23 6 60.5 17.5t51.5 15.5q41 -153 43 -268q3 -134 42.5 -196.5t154.5 -62.5q24 0 41.5 -17t17.5 -41q0 -25 -17 -41.5t-41 -16.5
q-160 0 -270 144q-150 -144 -414 -144h-17zM395 994l-134 134l133 133l134 -134z" />
    <glyph glyph-name="uniFEEA" unicode="&#x647;" horiz-adv-x="1090" arabic-form="final" 
d="M626 738q-46 -19 -76 -32t-73 -36t-72 -44t-58 -51t-46 -63q-18 -34 -18 -73q0 -145 255 -145q66 0 205 22q-32 148 -66 442zM783 203q-161 -23 -239 -23q-238 0 -329 111q-43 53 -43 134q0 57 16 92q62 127 183.5 212t290.5 148l-15 142q18 4 57 13t60 14q3 -14 6 -47.5
t4 -44.5q5 -34 12 -114t13 -118q26 -222 53 -349q21 -98 53.5 -147.5t110.5 -63.5q33 -6 74 -6q25 0 42 -16.5t17 -41.5q0 -24 -17.5 -41t-41.5 -17q-119 0 -185 36.5t-122 126.5z" />
    <glyph glyph-name="uniFEEB" unicode="&#x647;" horiz-adv-x="1433" arabic-form="initial" 
d="M787 579q0 99 -45.5 172t-129.5 73q-55 0 -98 -26.5t-88 -71.5q-69 -69 -94 -149q-10 -33 -10 -58q0 -78 78 -173q60 -72 147 -119q83 33 141.5 98.5t83.5 153.5q15 53 15 100zM864 782q48 -79 48 -174v-37q0 -155 -125 -313q-38 -48 -87 -85q100 -25 190 -25
q7 0 18.5 0.5t16.5 0.5q248 0 326 151q22 43 22 94q0 99 -107 206q-117 117 -302 182zM-6 40q-26 0 -44 17t-18 42q0 24 18.5 40.5t43.5 16.5h9q40 0 115 6.5t98 7.5q26 2 192 10q-104 92 -152 177q-48 86 -48 166q0 103 49.5 187t125.5 137q60 41 136 56l-143 55l61 113
q3 0 27 -9q373 -139 618 -280q52 -30 83.5 -50t70 -51.5t61.5 -62.5h-1q84 -115 84 -236q0 -190 -188 -290q-94 -55 -296 -55q-183 0 -335 62q-178 -59 -558 -59h-9z" />
    <glyph glyph-name="uniFEEC" unicode="&#x647;" horiz-adv-x="1005" arabic-form="medial" 
d="M-1 40q-25 0 -41.5 16.5t-16.5 41.5q0 24 17 41t41 17h154q0 5 -0.5 14.5t-0.5 14.5q0 194 88 403q67 160 164 238q51 40 110 48q100 0 170 -135q60 -117 60 -266q0 -176 -132 -295q-121 -108 -315 -131q41 -173 164 -328q42 -53 93 -90q-4 44 -4 53q0 3 -0.5 6t-0.5 4v6
q0 175 153 318q93 86 200 122q54 18 103 18q25 0 42 -17t17 -41q0 -25 -16.5 -41.5t-42.5 -16.5h-10q-130 -7 -226 -116q-95 -108 -95 -240q0 -105 69 -191l-82 -98q-375 244 -485 645h-177zM525 753q-70 -12 -139 -119q-102 -162 -122 -358q-2 -30 -2 -42q0 -36 6 -68
q4 0 12 -0.5t12 -0.5q114 0 195.5 55t122.5 144q27 60 27 135v15q-4 96 -28 156.5t-84 82.5z" />
    <glyph glyph-name="uniFEEE" unicode="&#x648;" horiz-adv-x="1043" arabic-form="final" 
d="M307 362q0 -204 305 -204h54q45 0 70 -1h20q20 0 56 2q-7 171 -60.5 305.5t-151.5 199.5q-40 26 -81 26q-50 0 -103 -55q-47 -50 -78 -121.5t-31 -151.5zM1103 97q0 -24 -18 -40.5t-42 -16.5h-124q-55 -276 -277 -466q-204 -175 -488 -230l-28 116q206 47 367.5 151.5
t250.5 253.5q52 88 64 175h-100q-226 0 -327 46q-177 79 -177 273q0 179 113 336v-1q91 113 202 113q124 0 231 -116v1q122 -132 164 -378q15 -85 16 -158h113q26 0 43 -16.5t17 -42.5z" />
    <glyph glyph-name="uniFEF0" unicode="&#x649;" horiz-adv-x="1715" arabic-form="final" 
d="M1775 98q0 -25 -17 -41.5t-42 -16.5h-350q56 -45 90 -84q22 -25 34.5 -40.5t26.5 -38t21 -45.5q8 -26 8 -42q-2 -142 -132 -242q-101 -78 -254 -119t-330 -41q-474 0 -603 222q-89 131 -89 341v23q0 117 44 300q34 141 109 325l108 -43q-101 -269 -133 -481
q-10 -67 -10 -128q0 -441 496 -441q15 0 41 -0.5t37 -0.5q161 0 347 57q149 45 217 128q35 42 35 100q0 43 -45 88q-103 103 -364 149q-27 5 -44 9l8 121l732 -1q25 0 42 -16.5t17 -41.5z" />
    <glyph glyph-name="uniFEF2" unicode="&#x64a;" horiz-adv-x="1687" arabic-form="final" 
d="M1775 98q0 -25 -17 -41.5t-42 -16.5h-350q56 -45 90 -84q22 -25 34.5 -40.5t26.5 -38t21 -45.5q8 -26 8 -42q-2 -142 -132 -242q-101 -78 -254 -119t-330 -41q-474 0 -603 222q-89 131 -89 341v23q0 117 44 300q34 141 109 325l108 -43q-101 -269 -133 -481
q-10 -67 -10 -128q0 -441 496 -441q15 0 41 -0.5t37 -0.5q161 0 347 57q149 45 217 128q35 42 35 100q0 43 -45 88q-103 103 -364 149q-27 5 -44 9l8 121l732 -1q25 0 42 -16.5t17 -41.5zM964 -1062l-134 134l132 132l133 -134zM608 -1060l-134 133l132 133l134 -134z" />
    <glyph glyph-name="uniFEF3" unicode="&#x64a;" horiz-adv-x="801" arabic-form="initial" 
d="M547 -479l-134 134l132 132l133 -134zM191 -477l-134 133l132 133l134 -134zM-50 40q-25 0 -41.5 16.5t-16.5 41.5t16.5 41.5t41.5 16.5h111q86 0 145.5 4t124 17t109.5 41.5t72 73.5q24 41 24 101q0 48 -12.5 106t-22 87t-33.5 95q-19 52 -56 135q24 11 107 54
q86 -202 115 -347q13 -65 13 -128q0 -81 -26 -144q-86 -180 -293 -202q-77 -9 -164 -9h-214z" />
    <glyph glyph-name="uniFEF4" unicode="&#x64a;" horiz-adv-x="854" arabic-form="medial" 
d="M-3 40q-25 0 -41.5 16.5t-16.5 41.5t16.5 41.5t41.5 16.5h76q159 0 266 27t160 101q34 47 34 126v13q-7 112 -33 212q15 3 38 11t32 10l41 12q21 -86 36 -217l5 -49q6 -58 16 -98t31.5 -76t60.5 -54t95 -18q26 0 43 -16.5t17 -41.5t-17 -41.5t-41 -16.5q-161 0 -271 148
q-78 -75 -212.5 -111.5t-300.5 -36.5h-76zM522 -513l-134 134l132 132l133 -134zM166 -511l-134 133l132 133l134 -134z" />
    <glyph glyph-name=".notdef" horiz-adv-x="1229" 
d="M1012 -248v1577h-795v-1577h795zM102 1444h1024v-1806h-1024v1806z" />
    <glyph glyph-name=".null" 
 />
    <glyph glyph-name="nonmarkingreturn" horiz-adv-x="602" 
 />
    <glyph glyph-name="space" unicode=" " horiz-adv-x="348" 
 />
    <glyph glyph-name="space" unicode="&#xa0;" horiz-adv-x="348" 
 />
    <glyph glyph-name="exclam" unicode="!" horiz-adv-x="579" 
d="M286 6l-141 141l148 150l142 -142zM220 1333v304h160v-304l-20 -872h-111z" />
    <glyph glyph-name="quotedbl" unicode="&#x22;" horiz-adv-x="693" 
d="M406 1042l1 356v138h140v-136l-30 -358h-111zM136 1042l1 348v146h140v-136l-30 -358h-111z" />
    <glyph glyph-name="numbersign" unicode="#" horiz-adv-x="1212" 
d="M811 901h-264l-69 -354h264zM372 0h-143l80 410h-239v137h265l69 354h-258v139h285l82 416h143l-82 -416h264l82 416h144l-82 -416h204v-139h-231l-69 -354h225v-137h-251l-80 -410h-144l80 410h-264z" />
    <glyph glyph-name="dollar" unicode="$" horiz-adv-x="1100" 
d="M295 429q0 -139 72.5 -214t207.5 -75q201 0 262 138q19 42 19 97q0 79 -40 128.5t-110 86.5q-42 22 -151 61t-151 61q-112 58 -175 143.5t-63 223.5q0 173 96 273t262 121v219h149v-220q171 -23 263 -144t92 -320h-184q0 103 -36.5 176.5t-105.5 107.5q-48 23 -106 23
q-117 0 -181 -59.5t-64 -173.5q0 -84 38 -132t111 -86q42 -21 154.5 -61.5t154.5 -62.5q111 -58 171.5 -142.5t60.5 -220.5q0 -178 -104.5 -277t-281.5 -117v-191h-148v191q-187 18 -292 132t-105 314h185z" />
    <glyph glyph-name="percent" unicode="%" horiz-adv-x="1495" 
d="M1053 1314l105 -66l-711 -1138l-105 66zM1112 536q-75 0 -117.5 -49.5t-42.5 -129.5v-78q0 -80 42.5 -130t119.5 -50q76 0 117 50t41 130v78q0 80 -42.5 129.5t-117.5 49.5zM814 357q0 101 47.5 171.5t126.5 104.5q56 24 124 24q105 0 175.5 -50t102.5 -134
q21 -56 21 -116v-78q0 -101 -47 -171.5t-126 -104.5q-56 -24 -124 -24q-104 0 -176 50t-104 133q-20 51 -20 117v78zM403 1356q-76 0 -118 -50t-42 -130v-77q0 -79 43 -129t119 -50t117 49.5t41 129.5v77q0 80 -42 130t-118 50zM105 1176q0 101 47 172t126 105q56 24 125 24
q105 0 175 -50t102 -135q21 -55 21 -116v-77q0 -101 -46.5 -171t-125.5 -104q-55 -24 -124 -24q-105 0 -176 50t-103 134q-21 54 -21 115v77z" />
    <glyph glyph-name="ampersand" unicode="&#x26;" horiz-adv-x="1316" 
d="M583 1324q-84 0 -131 -54t-47 -142q0 -53 32 -114q31 -58 86 -126l105 74q64 42 97.5 86.5t33.5 119.5q0 72 -50 114t-126 42zM286 391q0 -124 77.5 -192t208.5 -68q144 0 269 112l-355 425l-42 -31q-93 -70 -133 -147q-25 -47 -25 -99zM948 115q-147 -135 -376 -135
q-162 0 -274.5 64.5t-163.5 181.5q-33 75 -33 165q0 102 45 174.5t123 136.5q53 44 114 87q-41 50 -62.5 78t-48 75.5t-40.5 95.5q-12 40 -12 84q0 129 56.5 211t158.5 119q68 24 149 24q117 0 200.5 -51.5t121.5 -138.5q24 -56 24 -118q0 -81 -31 -138.5t-87 -111.5
q-35 -34 -79 -67l-110 -81l324 -387q68 131 68 289h167q0 -250 -123 -423l208 -249h-222z" />
    <glyph glyph-name="quotesingle" unicode="'" horiz-adv-x="397" 
d="M103 1057l1 352v127h149v-111l-21 -368h-129z" />
    <glyph glyph-name="parenleft" unicode="(" horiz-adv-x="788" 
d="M678 -306q-19 -21 -52.5 -59.5t-52.5 -59.5q-478 451 -478 949v29q19 369 245 678q118 162 218 247q43 -57 101 -124q-130 -130 -194 -223v1q-93 -133 -149.5 -274t-61.5 -310v-24q0 -431 424 -830z" />
    <glyph glyph-name="parenright" unicode=")" horiz-adv-x="821" 
d="M375 1131q-65 94 -194 223q58 67 101 124q342 -305 439 -748q19 -90 24 -177v-29q0 -498 -478 -949q-19 21 -52.5 59.5t-52.5 59.5q424 399 424 830v24q-5 169 -61.5 310t-149.5 274v-1z" />
    <glyph glyph-name="asterisk" unicode="*" horiz-adv-x="1132" 
d="M915 295q-114 -82 -146 -103l-201 290l-202 -290q-40 28 -72 52l-33 24q-1 1 -15 11.5t-22 15.5l221 276l-343 97l58 172l331 -120l-13 350h177l-19 -348l340 119q47 -139 59 -176l-350 -94z" />
    <glyph glyph-name="plus" unicode="+" horiz-adv-x="1207" 
d="M1094 556h-406v-460h-186v460h-406v175h406v425h186v-425h406v-175z" />
    <glyph glyph-name="comma" unicode="," horiz-adv-x="391" 
d="M29 -218q98 134 98 286v151h181v-148q0 -146 -100 -283q-31 -42 -74 -78z" />
    <glyph glyph-name="hyphen" unicode="-" horiz-adv-x="990" 
d="M104 694h760v-151h-760v151z" />
    <glyph glyph-name="period" unicode="." horiz-adv-x="567" 
d="M290 -7q-56 0 -93 37t-37 93t37 93.5t93 37.5t93.5 -37.5t37.5 -93.5q0 -55 -37.5 -92.5t-93.5 -37.5z" />
    <glyph glyph-name="slash" unicode="/" horiz-adv-x="825" 
d="M626 1456h158l-607 -1581h-159z" />
    <glyph glyph-name="zero" unicode="0" horiz-adv-x="1138" 
d="M574 1324q-67 0 -117 -24.5t-79.5 -64t-47.5 -100t-24 -122t-6 -139.5v-282q0 -243 72 -353q70 -108 204 -108q67 0 117 25.5t79.5 67t47 104t23.5 124t6 140.5v282q0 79 -6 140.5t-24 122t-48 99.5t-79.5 63.5t-117.5 24.5zM574 1476q105 0 185.5 -31t132 -85t84 -135
t45.5 -173.5t13 -208.5v-222q0 -116 -13 -209t-45.5 -175.5t-83.5 -137.5t-131 -87t-185 -32t-185 32t-132 87t-84.5 137.5t-46 175.5t-13.5 209v222q0 145 22 255t73 198t142.5 134t221.5 46z" />
    <glyph glyph-name="one" unicode="1" horiz-adv-x="929" 
d="M543 1233l-373 -137v168l530 199h29v-1463h-186v1233z" />
    <glyph glyph-name="two" unicode="2" horiz-adv-x="1144" 
d="M569 1324q-140 0 -215.5 -78t-75.5 -219h-185q0 154 73 258t197 155q89 36 206 36q154 0 258.5 -60t150.5 -171q30 -72 30 -159q0 -117 -82 -258q-67 -114 -191 -253l-391 -424h731v-151h-954v133l477 530q48 53 71 79.5t54 69t53 82.5q46 84 46 170q0 88 -39 148.5
t-106 91.5q-44 20 -108 20z" />
    <glyph glyph-name="three" unicode="3" horiz-adv-x="1138" 
d="M832 402q0 134 -82.5 199.5t-227.5 65.5h-132v151h132q132 0 210 64t78 186q0 129 -63 192.5t-192 63.5q-120 0 -191.5 -66.5t-71.5 -183.5h-185q0 138 73.5 231.5t191.5 138.5q84 32 183 32q155 0 258.5 -60t149.5 -173q32 -78 32 -179q0 -146 -125 -254
q-43 -37 -104 -63q116 -36 183.5 -121.5t67.5 -219.5q0 -154 -75 -254t-203 -144q-83 -28 -183 -28q-153 0 -263.5 61.5t-162.5 169.5q-36 75 -36 173h186q0 -121 75 -187t201 -66q134 0 205 69t71 202z" />
    <glyph glyph-name="four" unicode="4" horiz-adv-x="1136" 
d="M716 1203l-22 -40l-431 -674h453v714zM1104 338h-202v-338h-186v338h-663v109l652 1009h197v-967h202v-151z" />
    <glyph glyph-name="five" unicode="5" horiz-adv-x="1155" 
d="M329 383q15 -120 85 -186t194 -66q138 0 207 90t69 241q0 109 -44 185t-122 113q-53 25 -125 25q-82 0 -131.5 -22t-107.5 -71l-148 38l74 726h746v-171h-589l-44 -397q109 63 243 63q156 0 257.5 -77.5t145.5 -208.5q30 -90 30 -201q0 -167 -67.5 -282t-189.5 -166
q-87 -36 -204 -36q-146 0 -249 59.5t-157 165.5q-39 77 -48 178h175z" />
    <glyph glyph-name="six" unicode="6" horiz-adv-x="1155" 
d="M603 801q-147 0 -243 -121q-27 -34 -43 -79v-68q0 -183 87 -297q79 -103 196 -103q132 0 200.5 93t68.5 240q0 107 -39 186.5t-110 120.5q-49 28 -117 28zM320 823q116 132 314 132q204 0 317 -151q100 -133 100 -329q0 -168 -67.5 -284.5t-188.5 -172.5
q-82 -38 -195 -38q-221 0 -352 178q-117 159 -117 380v87q0 152 24.5 278t77.5 230t134 175t197.5 110t264.5 39h17v-157h-17q-235 0 -362.5 -126t-146.5 -351z" />
    <glyph glyph-name="seven" unicode="7" horiz-adv-x="1150" 
d="M264 0l601 1304h-788v152h984v-104l-603 -1352h-194z" />
    <glyph glyph-name="eight" unicode="8" horiz-adv-x="1133" 
d="M819 1073q0 169 -145 232q-44 19 -99 19q-113 0 -178.5 -68t-65.5 -183q0 -114 65 -181t179 -67t179 66.5t65 181.5zM297 397q0 -128 74 -197t204 -69t204 69.5t74 196.5q0 95 -45.5 161t-121.5 95q-52 20 -113 20q-127 0 -201.5 -74.5t-74.5 -201.5zM355 750
q-94 46 -151.5 128.5t-57.5 197.5q0 144 69 238.5t188 134.5q80 27 172 27q145 0 248.5 -61t148.5 -169q32 -76 32 -170q0 -116 -59 -199t-154 -128q174 -76 229 -241q18 -54 18 -115q0 -150 -76 -247.5t-204 -138.5q-84 -27 -183 -27q-157 0 -265.5 61.5t-161.5 174.5
q-36 76 -36 177q0 131 67.5 220.5t175.5 136.5z" />
    <glyph glyph-name="nine" unicode="9" horiz-adv-x="1132" 
d="M545 640q138 0 239 120q28 34 47 78v74q0 136 -44.5 237.5t-128.5 145.5q-51 27 -106 27q-100 0 -162.5 -56.5t-89.5 -148.5q-18 -61 -18 -135q0 -108 38 -190.5t108 -122.5q50 -29 117 -29zM1016 820q0 -196 -37 -343t-117 -256.5t-215 -165.5t-324 -56h-18v156h18
q252 0 374 120.5t133 364.5q-129 -153 -315 -153q-202 0 -315 153q-100 134 -100 332q0 169 67.5 288.5t188.5 175.5q86 40 195 40q234 0 357 -184q108 -160 108 -405v-67z" />
    <glyph glyph-name="colon" unicode=":" horiz-adv-x="564" 
d="M287 681q-55 0 -89.5 34t-34.5 89t34.5 90t89.5 35t89.5 -35t34.5 -90q0 -54 -34.5 -88.5t-89.5 -34.5zM287 23q-55 0 -89.5 34.5t-34.5 89.5t34.5 89.5t89.5 34.5t89.5 -34.5t34.5 -89.5t-34.5 -89.5t-89.5 -34.5z" />
    <glyph glyph-name="semicolon" unicode=";" horiz-adv-x="429" 
d="M41 -218q98 134 98 286v151h181v-148q0 -146 -100 -283q-31 -42 -74 -78zM225 872q-52 0 -83 29t-31 79q0 51 30.5 81.5t83.5 30.5q54 0 85 -30t31 -82q0 -50 -31.5 -79t-84.5 -29z" />
    <glyph glyph-name="less" unicode="&#x3c;" horiz-adv-x="1004" 
d="M890 195l-818 379v146l818 378v-196l-626 -258l626 -253v-196z" />
    <glyph glyph-name="equal" unicode="=" horiz-adv-x="1169" 
d="M152 559h834v-160h-834v160zM152 975h834v-161h-834v161z" />
    <glyph glyph-name="greater" unicode="&#x3e;" horiz-adv-x="1085" 
d="M134 1099l854 -378v-146l-854 -379v192l661 262l-661 259v190z" />
    <glyph glyph-name="question" unicode="?" horiz-adv-x="957" 
d="M458 -11q-51 0 -80 27.5t-29 76.5t29.5 77.5t79.5 28.5t80 -29t30 -77q0 -49 -29.5 -76.5t-80.5 -27.5zM486 1314q-100 0 -163 -52t-63 -147h-185q3 166 120 265q114 96 291 96q189 0 294.5 -98.5t105.5 -281.5q0 -125 -78 -239q-62 -90 -173 -194q-49 -45 -71 -105
t-22 -148h-185q2 104 23 173t68 125q43 51 146 154q51 51 79 102.5t28 125.5q0 107 -55 165.5t-160 58.5z" />
    <glyph glyph-name="at" unicode="@" horiz-adv-x="1877" 
d="M1118 832q-55 29 -120 29q-114 0 -189 -112q-48 -72 -75.5 -176.5t-27.5 -223.5q0 -102 38 -164t120 -62q54 0 91.5 29t70.5 78q26 38 45 90q0 8 1 9zM896 -328q193 0 331 79l37 -115q-136 -89 -372 -89q-295 0 -480 145t-257 398q-41 142 -41 322q0 233 65 423t183 325
q236 271 606 271q378 0 584 -251q184 -223 184 -608q0 -217 -68 -367t-212 -203q-60 -22 -130 -22q-187 0 -240 168q-106 -168 -267 -168q-94 0 -157 49.5t-89.5 127.5t-26.5 181q0 150 42 278.5t113 218.5q123 154 281 154q93 0 158 -27t131 -79l-52 -554q-2 -19 -2 -53
q0 -178 130 -178q115 0 187 118q74 120 74 364q0 344 -159 531.5t-485 187.5q-313 0 -502 -227q-98 -117 -151 -286.5t-53 -376.5q0 -253 91 -428t265 -253q124 -56 282 -56z" />
    <glyph glyph-name="A" unicode="A" horiz-adv-x="1372" 
d="M668 1219l-247 -681h495zM226 0h-198l556 1456h168l557 -1456h-197l-139 380h-610z" />
    <glyph glyph-name="B" unicode="B" horiz-adv-x="1302" 
d="M928 1069q0 123 -71.5 176t-211.5 53h-284v-463h290q125 0 201 60t76 174zM967 418q0 131 -72 197t-208 66h-326v-524h317q133 0 211 67.5t78 193.5zM1121 1068q0 -109 -60 -185t-156 -117q117 -31 186 -120.5t69 -225.5q0 -207 -130.5 -313.5t-351.5 -106.5h-509v1456
h476q476 0 476 -388z" />
    <glyph glyph-name="C" unicode="C" horiz-adv-x="1349" 
d="M1047 988q-22 160 -101.5 245t-240.5 85q-151 0 -241 -83t-127 -223q-25 -94 -25 -210v-148q0 -170 52 -293t156 -183q71 -41 168 -41q254 0 324 187q23 61 35 138h193q-27 -229 -167 -355.5t-385 -126.5q-206 0 -337.5 108t-190.5 289q-41 126 -41 277v146
q0 231 89.5 393t253.5 235q108 48 243 48q239 0 376 -130t159 -358h-193z" />
    <glyph glyph-name="D" unicode="D" horiz-adv-x="1358" 
d="M563 157q232 0 350.5 140.5t118.5 386.5v89q0 244 -113 384.5t-339 140.5h-219v-1141h202zM580 1456q287 0 464 -185q178 -188 178 -501v-86q0 -241 -101.5 -402.5t-284.5 -233.5q-122 -48 -273 -48h-394v1456h411z" />
    <glyph glyph-name="E" unicode="E" horiz-adv-x="1231" 
d="M361 157h733v-157h-925v1456h915v-158h-723v-468h631v-157h-631v-516z" />
    <glyph glyph-name="F" unicode="F" horiz-adv-x="1174" 
d="M361 0h-192v1456h902v-158h-710v-498h611v-157h-611v-643z" />
    <glyph glyph-name="G" unicode="G" horiz-adv-x="1372" 
d="M1244 191q-148 -211 -515 -211q-216 0 -357 108.5t-205 291.5q-45 129 -45 291v114q0 243 84.5 408.5t250.5 235.5q111 47 250 47q235 0 371.5 -117.5t165.5 -329.5h-192q-24 137 -109 213t-235 76q-87 0 -154.5 -27t-112 -74t-73.5 -115t-41 -145t-12 -170v-116
q0 -182 63 -312t182 -186q76 -36 170 -36q228 0 323 105v327h-337v156h528v-534z" />
    <glyph glyph-name="H" unicode="H" horiz-adv-x="1405" 
d="M1095 673h-734v-673h-192v1456h192v-626h734v626h193v-1456h-193v673z" />
    <glyph glyph-name="I" unicode="I" horiz-adv-x="538" 
d="M183 1456h192v-1456h-192v1456z" />
    <glyph glyph-name="J" unicode="J" horiz-adv-x="1103" 
d="M512 137q127 0 197 77.5t70 210.5v1031h193v-1031q0 -162 -73.5 -267t-202.5 -149q-85 -29 -184 -29q-160 0 -267.5 60.5t-157.5 175.5q-34 78 -34 186h192q0 -129 69 -197t198 -68z" />
    <glyph glyph-name="K" unicode="K" horiz-adv-x="1382" 
d="M361 0h-192v1456h192v-720q108 120 323.5 360t323.5 360h232l-573 -643l618 -813h-230l-516 677l-178 -185v-492z" />
    <glyph glyph-name="L" unicode="L" horiz-adv-x="1176" 
d="M1052 0h-883v1456h193v-1299h690v-157z" />
    <glyph glyph-name="M" unicode="M" horiz-adv-x="1726" 
d="M1369 1456h249v-1456h-192v567l18 612l-478 -1179h-147l-477 1176l19 -609v-567h-192v1456h248l476 -1188z" />
    <glyph glyph-name="N" unicode="N" horiz-adv-x="1450" 
d="M362 1122v-1122h-193v1456h193l735 -1127v1127h191v-1456h-193z" />
    <glyph glyph-name="O" unicode="O" horiz-adv-x="1415" 
d="M1098 775q0 395 -228 501q-75 35 -167 35q-101 0 -177.5 -42.5t-119.5 -108t-69 -155.5q-28 -99 -28 -230v-94q0 -184 58.5 -316t175.5 -187q75 -35 162 -35q107 0 184.5 41.5t122 116.5t65.5 169t21 211v94zM1289 681q0 -242 -88.5 -410.5t-254.5 -242.5
q-108 -48 -241 -48q-108 0 -198.5 31t-156.5 88t-112.5 128.5t-76.5 160.5q-43 128 -43 293v92q0 240 91 410.5t257 244.5q108 48 237 48q214 0 349.5 -111t195.5 -299q41 -127 41 -293v-92z" />
    <glyph glyph-name="P" unicode="P" horiz-adv-x="1362" 
d="M1024 1009q0 139 -85.5 214t-232.5 75h-345v-571h345q151 0 234.5 70.5t83.5 211.5zM1216 1011q0 -112 -36.5 -196.5t-104 -138t-160 -80t-209.5 -26.5h-345v-570h-192v1456h537q179 0 301.5 -69t174.5 -197q34 -83 34 -179z" />
    <glyph glyph-name="Q" unicode="Q" horiz-adv-x="1391" 
d="M696 143q106 0 184 41.5t122.5 117t65.5 169.5t21 210v94q0 187 -55.5 317t-171.5 184q-75 35 -168 35q-279 0 -365 -306q-28 -99 -28 -230v-94q0 -251 109 -399q102 -139 286 -139zM1281 681q0 -416 -255 -602l260 -204l-131 -121l-307 244q-72 -18 -152 -18
q-108 0 -198.5 31t-156.5 88t-112.5 128.5t-76.5 160.5q-43 128 -43 293v92q0 240 91 410.5t257 244.5q108 48 237 48q214 0 350 -111t196 -299q41 -127 41 -293v-92z" />
    <glyph glyph-name="R" unicode="R" horiz-adv-x="1287" 
d="M656 746q141 0 226.5 70.5t85.5 201.5q0 141 -83.5 210.5t-234.5 69.5h-289v-552h295zM1161 1018q0 -145 -75.5 -242.5t-202.5 -145.5l342 -618v-12h-206l-316 589h-342v-589h-193v1456h482q240 0 375.5 -109.5t135.5 -328.5z" />
    <glyph glyph-name="S" unicode="S" horiz-adv-x="1245" 
d="M631 137q143 0 228.5 56.5t85.5 174.5q0 91 -44.5 138t-132.5 84q-46 20 -180 63t-186 67q-178 79 -243 208q-33 66 -33 151q0 169 136 283q137 114 359 114q176 0 300.5 -74t179.5 -202q34 -78 34 -165h-193q0 139 -86 211t-235 72q-136 0 -218.5 -58t-82.5 -178
q0 -43 15 -78t44.5 -60t58 -41.5t68.5 -33.5q62 -26 154 -52q249 -69 362 -174q116 -106 116 -273q0 -144 -82.5 -233.5t-215.5 -128.5q-96 -28 -209 -28q-153 0 -274 53t-194 145q-83 105 -83 244h193q0 -141 100 -213t258 -72z" />
    <glyph glyph-name="T" unicode="T" horiz-adv-x="1250" 
d="M707 0h-191v1298h-467v158h1126v-158h-468v-1298z" />
    <glyph glyph-name="U" unicode="U" horiz-adv-x="1330" 
d="M665 137q163 0 249.5 85t86.5 248v986h193v-986q0 -234 -158 -368q-143 -122 -371 -122q-180 0 -303.5 72t-181.5 203q-40 90 -40 215v986h190v-986q0 -162 86.5 -247.5t248.5 -85.5z" />
    <glyph glyph-name="V" unicode="V" horiz-adv-x="1358" 
d="M1277 1456l-540 -1456h-170l-539 1456h209l414 -1201l416 1201h210z" />
    <glyph glyph-name="W" unicode="W" horiz-adv-x="1820" 
d="M552 440l288 1016h162l281 -1016l40 -176l31 196l226 996h193l-353 -1456h-175l-300 1061l-23 111l-23 -111l-311 -1061h-175l-352 1456h192l230 -997l28 -192z" />
    <glyph glyph-name="X" unicode="X" horiz-adv-x="1306" 
d="M1219 1456l-460 -722l471 -734h-228l-358 568l-360 -568h-227l472 734l-461 722h225l351 -558l349 558h226z" />
    <glyph glyph-name="Y" unicode="Y" horiz-adv-x="1250" 
d="M1211 1456l-502 -913v-543h-192v543l-502 913h220l378 -731l380 731h218z" />
    <glyph glyph-name="Z" unicode="Z" horiz-adv-x="1226" 
d="M1146 0h-1060v144l798 1154h-785v158h1015v-141l-801 -1158h833v-157z" />
    <glyph glyph-name="bracketleft" unicode="[" horiz-adv-x="702" 
d="M332 -160h191v-152h-377v1976h377v-152h-191v-1672z" />
    <glyph glyph-name="backslash" unicode="\" horiz-adv-x="853" 
d="M824 -125h-176l-608 1581h176z" />
    <glyph glyph-name="bracketright" unicode="]" horiz-adv-x="526" 
d="M387 -312h-378v152h193v1672h-193v152h378v-1976z" />
    <glyph glyph-name="asciicircum" unicode="^" horiz-adv-x="835" 
d="M64 729l299 727h127l298 -727h-171l-191 482l-190 -482h-172z" />
    <glyph glyph-name="underscore" unicode="_" horiz-adv-x="924" 
d="M4 0h916v-151h-916v151z" />
    <glyph glyph-name="grave" unicode="`" horiz-adv-x="584" 
d="M57 1534h223l194 -294h-159z" />
    <glyph glyph-name="a" unicode="a" horiz-adv-x="1108" 
d="M501 141q95 0 169.5 45.5t108.5 116.5v222h-154q-331 0 -331 -199q0 -89 56.5 -137t150.5 -48zM964 236q0 -133 38 -220v-16h-194q-15 29 -26 114q-127 -134 -308 -134q-123 0 -211.5 52t-127.5 142q-26 60 -26 126q0 95 38 165.5t106.5 111t153.5 60t188 19.5h184v85
q0 103 -59.5 157.5t-169.5 54.5q-76 0 -133 -28t-83 -78q-17 -32 -17 -65h-186q0 123 117 218q126 102 313 102q282 0 373 -204q30 -68 30 -159v-503z" />
    <glyph glyph-name="b" unicode="b" horiz-adv-x="1111" 
d="M325 307q85 -170 265 -170q76 0 132 31.5t87.5 87t46.5 123.5t15 150v21q0 277 -151 364q-53 31 -132 31q-185 0 -263 -170v-468zM325 963q111 139 309 139q159 0 256 -89t138 -237q28 -100 28 -226v-21q0 -182 -62.5 -314.5t-179.5 -193.5q-79 -41 -178 -41
q-206 0 -317 145l-9 -125h-170v1536h185v-573z" />
    <glyph glyph-name="c" unicode="c" horiz-adv-x="1051" 
d="M574 131q104 0 174.5 58t80.5 152h175q-8 -120 -83 -204t-185 -127q-76 -30 -162 -30q-178 0 -291.5 90t-160.5 243q-30 97 -30 207v42q0 180 70.5 307t198.5 189q91 44 212 44q144 0 244.5 -64t150.5 -173q31 -68 36 -155h-175q-14 160 -155 221q-44 19 -101 19
q-157 0 -233 -124q-63 -102 -63 -264v-42q0 -262 153 -355q56 -34 144 -34z" />
    <glyph glyph-name="d" unicode="d" horiz-adv-x="1127" 
d="M823 792q-83 153 -255 153q-77 0 -134 -31.5t-90 -87t-48.5 -124.5t-15.5 -152v-21q0 -269 157 -361q53 -31 129 -31q177 0 257 158v497zM829 116q-111 -136 -309 -136q-190 0 -308 156q-117 155 -117 393v21q0 184 65 316.5t186 195.5q77 40 176 40q189 0 301 -130v564
h185v-1536h-170z" />
    <glyph glyph-name="e" unicode="e" horiz-adv-x="1127" 
d="M826 654q-7 133 -71 214.5t-189 81.5q-126 0 -195.5 -87t-86.5 -223h542v14zM599 131q173 0 285 146l113 -88q-132 -209 -408 -209q-223 0 -361 148q-135 143 -135 375v42q0 190 79 324.5t217 194.5q87 38 177 38q224 0 334.5 -143.5t110.5 -387.5v-83h-733
q2 -119 52 -203t136 -126q57 -28 133 -28z" />
    <glyph glyph-name="f" unicode="f" horiz-adv-x="731" 
d="M604 1399q-188 0 -188 -203v-114h231v-143h-231v-939h-185v939h-171v143h171v114q0 172 92.5 266.5t263.5 94.5q59 0 127 -17l-10 -150q-41 9 -100 9z" />
    <glyph glyph-name="g" unicode="g" horiz-adv-x="1119" 
d="M824 790q-84 155 -255 155q-77 0 -133.5 -31.5t-89.5 -87t-48.5 -124.5t-15.5 -152v-21q0 -271 156 -361q53 -31 129 -31q173 0 257 159v494zM824 108q-110 -128 -303 -128q-191 0 -309 156q-116 154 -116 393v21q0 186 63.5 318t185.5 194q79 40 178 40q199 0 309 -140
l9 120h169v-1059q0 -161 -73 -267.5t-200 -151.5q-84 -30 -186 -30q-130 0 -236 51.5t-164 135.5l96 111q57 -69 125.5 -108t165.5 -39q136 0 211 76t75 213v94z" />
    <glyph glyph-name="h" unicode="h" horiz-adv-x="1090" 
d="M325 951q123 151 320 151q346 0 346 -393v-709h-185v711q0 119 -52.5 176.5t-164.5 57.5q-92 0 -159.5 -49t-104.5 -125v-771h-185v1536h185v-585z" />
    <glyph glyph-name="i" unicode="i" horiz-adv-x="467" 
d="M250 1264q-51 0 -80 28t-29 77t29 78t80 29q50 0 80 -29.5t30 -77.5t-30 -76.5t-80 -28.5zM156 1082h185v-1082h-185v1082z" />
    <glyph glyph-name="j" unicode="j" horiz-adv-x="460" 
d="M235 1264q-50 0 -79 28.5t-29 76.5t29.5 77.5t78.5 29.5q50 0 80 -29.5t30 -77.5t-30 -76.5t-80 -28.5zM19 -279q68 0 97.5 36.5t29.5 113.5v1211h185v-1211q0 -308 -283 -308q-59 0 -113 18v148q35 -8 84 -8z" />
    <glyph glyph-name="k" unicode="k" horiz-adv-x="1053" 
d="M326 0h-185v1536h185v-929q60 75 133 154.5t164 173.5t139 147h225l-421 -452l470 -630h-217l-377 501l-116 -121v-380z" />
    <glyph glyph-name="l" unicode="l" horiz-adv-x="481" 
d="M156 1536h185v-1536h-185v1536z" />
    <glyph glyph-name="m" unicode="m" horiz-adv-x="1658" 
d="M319 962q120 140 321 140q226 0 309 -174q55 79 142 126.5t203 47.5q362 0 362 -391v-711h-185v712q0 120 -56 176.5t-175 56.5q-108 0 -174 -62.5t-76 -164.5v-718h-186v711q0 234 -231 234q-182 0 -249 -155v-790h-185v1082h175z" />
    <glyph glyph-name="n" unicode="n" horiz-adv-x="1108" 
d="M321 946q124 156 324 156q346 0 346 -393v-709h-185v711q0 119 -52.5 176.5t-164.5 57.5q-92 0 -159.5 -49t-104.5 -125v-771h-185v1082h175z" />
    <glyph glyph-name="o" unicode="o" horiz-adv-x="1138" 
d="M277 529q0 -130 44.5 -225t128.5 -141q58 -32 134 -32q116 0 187 68t101 177q19 70 19 153v22q0 130 -45 225t-129 142q-57 32 -135 32q-142 0 -228 -120q-77 -107 -77 -279v-22zM91 551q0 183 77 315t210 194q92 42 204 42q176 0 292.5 -91t167.5 -241q34 -99 34 -219
v-22q0 -185 -76 -315t-211 -192q-91 -42 -205 -42q-175 0 -291 90.5t-167 239.5q-35 102 -35 219v22z" />
    <glyph glyph-name="p" unicode="p" horiz-adv-x="1116" 
d="M325 279q84 -148 254 -148q76 0 133.5 32t91 88.5t49.5 126t16 151.5v21q0 130 -40.5 224t-120.5 140q-55 31 -131 31q-167 0 -252 -149v-517zM635 -20q-198 0 -310 125v-521h-185v1498h169l9 -120q111 140 314 140q160 0 257.5 -89t136.5 -237q28 -106 28 -226v-21
q0 -181 -62 -314t-179 -194q-79 -41 -178 -41z" />
    <glyph glyph-name="q" unicode="q" horiz-adv-x="1136" 
d="M822 807q-90 143 -250 143q-143 0 -222 -120q-70 -105 -70 -280v-21q0 -130 40 -225t120 -141q55 -32 130 -32q168 0 252 146v530zM822 100q-112 -120 -298 -120q-159 0 -257.5 91.5t-142.5 238.5q-29 97 -29 219v21q0 188 63.5 318.5t185.5 193.5q79 40 182 40
q194 0 303 -129l8 109h170v-1498h-185v516z" />
    <glyph glyph-name="r" unicode="r" horiz-adv-x="712" 
d="M663 916q-36 7 -91 7q-181 0 -247 -155v-768h-185v1082h180l3 -125q89 145 258 145q57 0 82 -14v-172z" />
    <glyph glyph-name="s" unicode="s" horiz-adv-x="1028" 
d="M280 333q5 -98 76 -150t182 -52q167 0 217 95q15 28 15 61q0 61 -30.5 94t-89.5 56q-40 16 -147.5 42.5t-143.5 39.5q-104 37 -165.5 98.5t-61.5 167.5q0 110 66.5 183t168.5 108q75 26 165 26q141 0 240 -54t145 -152q28 -60 28 -132h-186q0 61 -37.5 104.5t-92.5 65.5
q-41 16 -97 16q-95 0 -155 -39.5t-60 -119.5q0 -58 31 -85t94 -48q55 -19 125 -34q139 -31 231.5 -77.5t133.5 -130.5q23 -47 23 -116q0 -117 -68 -189.5t-178 -106.5q-77 -24 -171 -24q-206 0 -329 110q-114 101 -114 243h185z" />
    <glyph glyph-name="t" unicode="t" horiz-adv-x="651" 
d="M456 -20q-127 0 -188.5 75.5t-61.5 213.5v670h-197v143h197v262h185v-262h202v-143h-202v-671q0 -67 28 -98.5t91 -31.5q28 0 88 12v-150q-73 -20 -142 -20z" />
    <glyph glyph-name="u" unicode="u" horiz-adv-x="1089" 
d="M808 107q-108 -127 -317 -127q-181 0 -268 104.5t-87 298.5v699h185v-701q0 -244 200 -244q213 0 282 158v787h185v-1082h-176z" />
    <glyph glyph-name="v" unicode="v" horiz-adv-x="990" 
d="M954 1082l-388 -1082h-141l-392 1082h189l275 -831l268 831h189z" />
    <glyph glyph-name="w" unicode="w" horiz-adv-x="1500" 
d="M1491 1082l-315 -1082h-150l-263 820l-256 -820h-150l-314 1082h184l213 -810l252 810h149l257 -827l208 827h185z" />
    <glyph glyph-name="x" unicode="x" horiz-adv-x="1000" 
d="M959 1082l-354 -535l365 -547h-214l-250 405l-250 -405h-215l365 547l-354 535h214l237 -395l240 395h216z" />
    <glyph glyph-name="y" unicode="y" horiz-adv-x="1058" 
d="M84 -271q9 -3 26 -3q2 0 7 -0.5t7 -0.5h10q69 0 116 22.5t72.5 59t44.5 95.5l41 110l-386 1070h202l270 -811l252 811h198l-435 -1249q-66 -179 -195 -243q-54 -27 -126 -27q-24 0 -104 16v150z" />
    <glyph glyph-name="z" unicode="z" horiz-adv-x="1034" 
d="M947 0h-859v136l597 793h-588v153h820v-131l-603 -800h633v-151z" />
    <glyph glyph-name="braceleft" unicode="{" horiz-adv-x="717" 
d="M632 -366q-356 99 -356 465v206q0 238 -212 238v145q212 0 212 237v207q0 366 356 465l38 -115q-209 -69 -209 -350v-207q0 -219 -167 -310q167 -90 167 -310v-206q0 -281 209 -350z" />
    <glyph glyph-name="bar" unicode="|" horiz-adv-x="471" 
d="M175 1456h149v-1726h-149v1726z" />
    <glyph glyph-name="braceright" unicode="}" horiz-adv-x="673" 
d="M19 -251q210 70 210 350v206q0 225 181 310q-181 84 -181 310v207q0 281 -209 350l38 115q356 -99 356 -465v-207q0 -237 212 -237v-145q-212 0 -212 -238v-206q0 -366 -356 -465z" />
    <glyph glyph-name="asciitilde" unicode="~" horiz-adv-x="1358" 
d="M939 565q83 0 127 59t44 152l153 1q0 -121 -53 -211t-140 -134q-60 -30 -131 -30q-68 0 -128 24t-96 53.5t-85 71.5t-84 63q-41 25 -92 25q-81 0 -121.5 -55t-40.5 -146l-161 -2q0 122 51.5 208.5t140.5 129.5q57 28 131 28q50 0 93 -10.5t82 -35t61.5 -42t61.5 -51.5
q60 -56 91 -73q45 -25 96 -25z" />
    <glyph glyph-name="exclamdown" unicode="&#xa1;" horiz-adv-x="514" 
d="M249 1101q50 0 79.5 -28.5t29.5 -76.5t-29.5 -77.5t-79.5 -29.5t-80 29.5t-30 77.5t30 76.5t80 28.5zM351 -360h-194l13 1044h168z" />
    <glyph glyph-name="cent" unicode="&#xa2;" horiz-adv-x="1119" 
d="M842 710q-10 107 -78 173.5t-178 66.5q-153 0 -224.5 -107t-71.5 -281v-42q0 -262 153 -355q56 -34 144 -34q79 0 138.5 35t90.5 92q22 40 26 83h175q-5 -104 -64.5 -181.5t-149.5 -125.5q-59 -32 -133 -46v-233h-186v235q-181 31 -280 172.5t-99 357.5v42
q0 159 55.5 275.5t156.5 187.5q69 49 167 67v226h186v-223q115 -18 197 -83t121 -164q26 -66 29 -138h-175z" />
    <glyph glyph-name="sterling" unicode="&#xa3;" horiz-adv-x="1241" 
d="M457 402q0 -150 -62 -245h733l-1 -157h-1032v157h77q50 12 71 84t21 160l-8 221h-165v157h160l-9 260q0 156 71.5 258.5t196.5 148.5q81 30 177 30q145 0 243 -60.5t141 -169.5q28 -71 28 -159h-191q0 111 -63.5 171t-174.5 60q-112 0 -173.5 -78t-61.5 -201l9 -260h319
v-157h-314z" />
    <glyph glyph-name="currency" unicode="&#xa4;" horiz-adv-x="1467" 
d="M311 608q0 -189 125 -323q123 -134 299 -134q174 0 299 134q123 134 123 323q0 149 -71.5 256.5t-186.5 161.5q-77 36 -164 36q-92 0 -168.5 -36.5t-130.5 -95.5q-125 -134 -125 -322zM1330 608q0 -196 -102 -355l143 -144l-132 -136l-136 139q-160 -132 -368 -132
t-366 130l-134 -136l-130 135l139 141q-104 154 -104 358q0 208 112 369l-147 151l130 136l147 -150q157 120 353 120q195 0 355 -121l149 152l132 -137l-151 -154q110 -165 110 -366z" />
    <glyph glyph-name="yen" unicode="&#xa5;" horiz-adv-x="1235" 
d="M1197 1456l-418 -720h312v-125h-384v-165h384v-124h-384v-322h-193v322h-378v124h378v165h-378v125h313l-418 720h220l363 -674l364 674h219z" />
    <glyph glyph-name="brokenbar" unicode="&#xa6;" horiz-adv-x="562" 
d="M345 -431h-157v791h157v-791zM345 701h-157v790h157v-790z" />
    <glyph glyph-name="section" unicode="&#xa7;" horiz-adv-x="1205" 
d="M797 238q73 18 117.5 66.5t44.5 123.5q0 52 -19 85t-57 62q-40 30 -110 57q-75 29 -171 59q-90 24 -165 51q-155 -38 -155 -189q0 -47 12.5 -81.5t39.5 -58t55 -38t71 -30.5t165.5 -52.5t171.5 -54.5zM278 825q-68 51 -102.5 117.5t-34.5 167.5q0 135 80 219.5t207 120.5
q92 26 202 26q173 0 289.5 -62.5t168.5 -183.5q34 -80 34 -185h-185q0 97 -47.5 161.5t-127.5 96.5q-56 22 -132 22q-225 0 -285 -131q-18 -39 -18 -82q0 -46 12.5 -79.5t39 -57t53.5 -37.5t70 -30q52 -20 139 -45t148 -43t133 -52t117 -74.5t75.5 -108t30.5 -154.5
q0 -188 -186 -274q69 -50 105 -116.5t36 -168.5q0 -169 -134 -270q-126 -97 -354 -97q-171 0 -293 57.5t-183 169.5q-46 84 -46 204l186 2q0 -140 92.5 -210.5t243.5 -70.5q101 0 175.5 33t106.5 96q20 40 20 84q0 43 -14 76t-43.5 56t-55 36.5t-69.5 31.5q-52 21 -137.5 47
t-146.5 44t-132 52t-115.5 74.5t-74.5 108t-30 155.5q0 187 182 274z" />
    <glyph glyph-name="dieresis" unicode="&#xa8;" horiz-adv-x="750" 
d="M434 1475h188v-205h-188v205zM61 1475h188v-205h-188v205z" />
    <glyph glyph-name="copyright" unicode="&#xa9;" horiz-adv-x="1603" 
d="M91 729q0 314 208 533q203 214 502 214q195 0 357 -100q249 -154 326 -444q26 -98 26 -203q0 -316 -208 -533q-206 -217 -501 -217q-294 0 -502 217q-208 219 -208 533zM206 729q0 -137 47.5 -251.5t126.5 -197.5q77 -82 184 -132t237 -50q248 0 419 182q175 186 175 449
q0 136 -48 250.5t-127 196.5q-175 180 -419 180q-129 0 -236.5 -49.5t-184.5 -130.5q-79 -82 -126.5 -196.5t-47.5 -250.5zM788 412q96 0 140.5 44t44.5 141h146q0 -155 -86 -234.5t-245 -79.5q-124 0 -205.5 62t-116.5 167q-24 72 -24 158v116q0 132 53 224t149 134
q66 29 144 29q158 0 245 -80t87 -233h-146q0 95 -45.5 139.5t-140.5 44.5q-101 0 -151.5 -71.5t-50.5 -185.5v-117q0 -115 50.5 -186.5t151.5 -71.5z" />
    <glyph glyph-name="ordfeminine" unicode="&#xaa;" horiz-adv-x="756" 
d="M196 965q0 -48 36.5 -73.5t93.5 -25.5q81 0 140.5 48t63.5 122q1 25 3 68q-53 -14 -192 -36q-90 -14 -117 -39q-28 -25 -28 -64zM379 1491q153 0 226 -55t73 -187v-240l-1 -61q0 -134 41 -184h-148q-19 37 -22 89q-122 -107 -256 -107q-109 0 -177 59t-68 160q0 54 18 93
t53.5 62.5t75 36t97.5 22.5l147 22q14 3 47 9.5t49 10.5q-2 68 -12.5 92.5t-50.5 42.5q-35 18 -94 18q-147 0 -166 -125l-137 34q13 100 95.5 154t209.5 54z" />
    <glyph glyph-name="guillemotleft" unicode="&#xab;" horiz-adv-x="1184" 
d="M727 151l-295 388v19l295 389h141l-258 -399l258 -397h-141zM397 151l-295 388v19l295 389h141l-258 -399l258 -397h-141z" />
    <glyph glyph-name="logicalnot" unicode="&#xac;" horiz-adv-x="1323" 
d="M912 424v438h-798v168h968v-606h-170z" />
    <glyph glyph-name="uni00AD" unicode="&#xad;" horiz-adv-x="724" 
d="M65 621h553v-181h-553v181z" />
    <glyph glyph-name="registered" unicode="&#xae;" horiz-adv-x="1593" 
d="M969 904q0 78 -44 106t-137 28h-135v-256h156q70 3 115 32.5t45 89.5zM963 513q0 76 -34.5 108.5t-112.5 32.5h-163v-338h-141v849h276q149 0 235.5 -62t86.5 -194q0 -123 -128 -188q123 -52 123 -207v-55q0 -91 17 -127v-16h-145q-14 42 -14 114v83zM205 729
q0 -263 175 -449q173 -182 420 -182q249 0 420 182q174 183 174 449q0 138 -47.5 251.5t-126.5 195.5q-175 180 -420 180t-420 -180q-80 -82 -127.5 -196t-47.5 -251zM90 729q0 316 208 533q205 214 502 214q296 0 501 -214q208 -219 208 -533q0 -316 -208 -533
q-206 -217 -501 -217q-296 0 -502 217q-208 219 -208 533z" />
    <glyph glyph-name="macron" unicode="&#xaf;" horiz-adv-x="1129" 
d="M-31 1695h1193v-129h-1193v129z" />
    <glyph glyph-name="degree" unicode="&#xb0;" horiz-adv-x="830" 
d="M406 1383q-70 0 -119.5 -49.5t-49.5 -119.5t49.5 -119.5t119.5 -49.5q69 0 118.5 50t49.5 119q0 68 -50 118.5t-118 50.5zM405 936q-114 0 -195.5 81.5t-81.5 196.5q0 114 82 195.5t195 81.5q115 0 196.5 -81t81.5 -196q0 -114 -81.5 -196t-196.5 -82z" />
    <glyph glyph-name="plusminus" unicode="&#xb1;" horiz-adv-x="1144" 
d="M78 0v168h968v-168h-968zM477 663h-399v167h399v399h170v-399h399v-167h-399v-403h-170v403z" />
    <glyph glyph-name="uni00B2" unicode="&#xb2;" horiz-adv-x="700" 
d="M46 1268q29 112 100 164t206 52q150 0 221 -59t71 -144q0 -82 -59 -159q-45 -54 -205 -171q-84 -61 -118 -97h386v-121h-623q4 40 26.5 80.5t45 65t59.5 59.5q44 41 123 99q144 105 171 135q37 40 37 84q0 53 -38 81.5t-100 28.5q-71 0 -101.5 -25t-50.5 -89z" />
    <glyph glyph-name="uni00B3" unicode="&#xb3;" horiz-adv-x="679" 
d="M179 944q37 -112 154 -112q66 0 111.5 37t45.5 96q0 110 -159 110q-2 0 -6.5 -0.5t-7.5 -0.5q-4 0 -15.5 -1t-15.5 -1h-10l22 110q70 0 113 25t43 77q0 43 -33.5 66t-85.5 23q-61 0 -91 -24t-51 -78l-143 23q40 103 100.5 146.5t185.5 43.5q145 0 209 -54q66 -52 66 -133
q0 -62 -38 -102t-100 -58q173 -43 173 -191q0 -107 -88 -169t-216 -62q-266 0 -309 214z" />
    <glyph glyph-name="acute" unicode="&#xb4;" horiz-adv-x="839" 
d="M355 1474h236l-220 -280h-149z" />
    <glyph glyph-name="mu" unicode="&#xb5;" horiz-adv-x="1242" 
d="M591 -25q-91 0 -144 30.5t-109 101.5v-514h-178v1469h178v-450q0 -240 26 -318q25 -68 82 -112t137 -44t144 45.5t88 111.5q26 75 26 314v453h177v-1062h-161v126q-51 -78 -110 -114.5t-156 -36.5z" />
    <glyph glyph-name="paragraph" unicode="&#xb6;" horiz-adv-x="1070" 
d="M559 520q-175 0 -293 74t-167 207q-32 87 -32 187q0 163 75 272t206 160q92 36 211 36h273v-1456h-186v520h-87z" />
    <glyph glyph-name="periodcentered" unicode="&#xb7;" horiz-adv-x="476" 
d="M261 619q-53 0 -83.5 29.5t-30.5 80.5t30.5 81.5t83.5 30.5q54 0 85 -30t31 -82t-31 -81t-85 -29z" />
    <glyph glyph-name="cedilla" unicode="&#xb8;" horiz-adv-x="670" 
d="M373 -221q-2 16 -8 27t-19.5 18t-24.5 11.5t-33 6.5t-34 2.5t-38 1.5l52 177h134l-33 -107q74 -9 122.5 -46.5t48.5 -100.5q0 -75 -72 -132q-70 -58 -217 -58q-83 0 -144 12l11 117q66 -4 94 -4q94 0 132 26q29 20 29 49z" />
    <glyph glyph-name="uni00B9" unicode="&#xb9;" horiz-adv-x="607" 
d="M338 1275l-216 -57v128l355 117h18v-789h-157v601z" />
    <glyph glyph-name="ordmasculine" unicode="&#xba;" horiz-adv-x="915" 
d="M644 1123q0 97 -45.5 155t-134.5 58q-88 0 -133.5 -58.5t-45.5 -154.5v-80q0 -97 46 -155.5t135 -58.5q88 0 133 58.5t45 155.5v80zM122 1123q0 121 53.5 205.5t146.5 121.5q64 26 142 26q122 0 203 -56.5t117 -154.5q23 -62 23 -142v-80q0 -122 -53 -205.5t-146 -121.5
q-64 -26 -142 -26q-121 0 -202.5 57t-117.5 154q-24 65 -24 142v80z" />
    <glyph glyph-name="guillemotright" unicode="&#xbb;" horiz-adv-x="953" 
d="M102 947h141l295 -389v-19l-295 -388h-141l258 397zM432 947h141l295 -389v-19l-295 -388h-141l258 397z" />
    <glyph glyph-name="onequarter" unicode="&#xbc;" horiz-adv-x="1547" 
d="M1161 588l-17 -28l-206 -261h223v289zM1425 169h-107v-169h-157v169h-375l-6 102l377 518h161v-490h107v-130zM1050 1322l104 -66l-711 -1138l-104 66zM301 1265l-216 -57v128l355 117h18v-789h-157v601z" />
    <glyph glyph-name="onehalf" unicode="&#xbd;" horiz-adv-x="1617" 
d="M1167 671q-69 0 -107.5 -35t-38.5 -98h-157q0 90 48 151t126 90q56 21 125 21q130 0 208 -60t78 -177q0 -70 -51 -145q-9 -13 -20.5 -27t-20 -23.5t-25 -25t-23 -21.5t-26.5 -25t-25 -23l-176 -145h399v-128h-599v108l288 271q66 60 94 105q27 44 27 77q0 52 -34 81
t-90 29zM296 1265l-216 -57v128l355 117h18v-789h-157v601zM1006 1322l104 -66l-711 -1138l-104 66z" />
    <glyph glyph-name="threequarters" unicode="&#xbe;" horiz-adv-x="1674" 
d="M558 895q0 115 -160 115h-84v116h84q67 0 106.5 27t39.5 82q0 52 -35.5 77.5t-97.5 25.5q-55 0 -93.5 -23t-38.5 -69h-157q0 81 49 132.5t125 73.5q53 15 113 15q130 0 211.5 -56t81.5 -169q0 -118 -136 -171q149 -41 149 -184q0 -78 -43.5 -131.5t-110.5 -76.5t-152 -23
q-94 0 -166 33.5t-107 94.5q-25 43 -25 105h158q0 -50 42.5 -77.5t103.5 -27.5q65 0 104 27.5t39 83.5zM1253 588l-17 -28l-206 -261h223v289zM1517 169h-107v-169h-157v169h-375l-6 102l377 518h161v-490h107v-130zM1177 1322l104 -66l-711 -1138l-104 66z" />
    <glyph glyph-name="questiondown" unicode="&#xbf;" horiz-adv-x="971" 
d="M487 1101q50 0 79.5 -28t29.5 -76t-29.5 -77.5t-79.5 -29.5t-80 29.5t-30 77.5q0 49 29.5 76.5t80.5 27.5zM253 0q0 -109 58 -166.5t167 -57.5q147 0 206 114q19 37 19 90h185q-2 -130 -70 -216.5t-178 -123.5q-74 -25 -162 -25q-193 0 -301.5 97.5t-108.5 282.5
q0 117 78 241q56 88 167 195q48 45 69 103t21 146h185q-2 -102 -23 -168.5t-68 -124.5q-29 -36 -140 -155q-49 -52 -76.5 -105.5t-27.5 -126.5z" />
    <glyph glyph-name="Agrave" unicode="&#xc0;" horiz-adv-x="1373" 
d="M668 1219l-247 -681h495zM226 0h-198l556 1456h168l557 -1456h-197l-139 380h-610zM337 1941h223l194 -294h-159z" />
    <glyph glyph-name="Aacute" unicode="&#xc1;" horiz-adv-x="1373" 
d="M668 1219l-247 -681h495zM226 0h-198l556 1456h168l557 -1456h-197l-139 380h-610zM711 1796h236l-220 -280h-149z" />
    <glyph glyph-name="Acircumflex" unicode="&#xc2;" horiz-adv-x="1373" 
d="M668 1219l-247 -681h495zM226 0h-198l556 1456h168l557 -1456h-197l-139 380h-610zM550 1520h-206l216 280h192l225 -280h-204l-110 170z" />
    <glyph glyph-name="Atilde" unicode="&#xc3;" horiz-adv-x="1373" 
d="M668 1219l-247 -681h495zM226 0h-198l556 1456h168l557 -1456h-197l-139 380h-610zM526 1678q-36 0 -56 -25t-20 -64v-6h-133v5q0 97 56 160t147 63q62 0 169 -54q59 -30 94 -30q38 0 52 20t21 67h130q-3 -104 -53.5 -166t-142.5 -62q-62 0 -166 56q-68 36 -98 36z" />
    <glyph glyph-name="Adieresis" unicode="&#xc4;" horiz-adv-x="1373" 
d="M668 1219l-247 -681h495zM226 0h-198l556 1456h168l557 -1456h-197l-139 380h-610zM752 1711h188v-205h-188v205zM379 1711h188v-205h-188v205z" />
    <glyph glyph-name="Aring" unicode="&#xc5;" horiz-adv-x="1373" 
d="M668 1219l-247 -681h495zM226 0h-198l556 1456h168l557 -1456h-197l-139 380h-610zM652 1830q-43 0 -74.5 -32t-31.5 -75q0 -46 30.5 -78.5t75.5 -32.5q43 0 74.5 32.5t31.5 76.5q0 45 -31 77t-75 32zM651 1537q-76 0 -128.5 55t-52.5 132q0 72 54 125.5t126 53.5
q74 0 127 -54t53 -129t-52.5 -129t-126.5 -54z" />
    <glyph glyph-name="AE" unicode="&#xc6;" horiz-adv-x="1938" 
d="M943 1260l-425 -733h456zM981 353h-564l-205 -353h-226l880 1456h951v-152h-691l20 -471h590v-151h-584l22 -531h705v-151h-883z" />
    <glyph glyph-name="Ccedilla" unicode="&#xc7;" horiz-adv-x="1557" 
d="M1047 988q-22 160 -101.5 245t-240.5 85q-151 0 -241 -83t-127 -223q-25 -94 -25 -210v-148q0 -170 52 -293t156 -183q71 -41 168 -41q254 0 324 187q23 61 35 138h193q-22 -187 -120.5 -307.5t-270.5 -158.5l-25 -80q74 -9 122.5 -46.5t48.5 -100.5q0 -75 -72 -132
q-70 -58 -217 -58q-82 0 -144 12l11 117q66 -4 94 -4q94 0 132 26q29 20 29 49q-2 16 -8 27t-19.5 18t-24.5 11.5t-33 6.5t-34 2.5t-38 1.5l39 134h-22q-206 0 -337.5 108t-190.5 289q-41 126 -41 277v146q0 231 89.5 393t253.5 235q108 48 243 48q239 0 376 -130t159 -358
h-193z" />
    <glyph glyph-name="Egrave" unicode="&#xc8;" horiz-adv-x="1380" 
d="M361 157h733v-157h-925v1456h915v-158h-723v-468h631v-157h-631v-516zM378 1889h223l194 -294h-159z" />
    <glyph glyph-name="Eacute" unicode="&#xc9;" horiz-adv-x="1380" 
d="M361 157h733v-157h-925v1456h915v-158h-723v-468h631v-157h-631v-516zM648 1925h236l-220 -280h-149z" />
    <glyph glyph-name="Ecircumflex" unicode="&#xca;" horiz-adv-x="1380" 
d="M361 157h733v-157h-925v1456h915v-158h-723v-468h631v-157h-631v-516zM590 1649h-206l216 280h192l225 -280h-204l-110 170z" />
    <glyph glyph-name="Edieresis" unicode="&#xcb;" horiz-adv-x="1335" 
d="M361 157h733v-157h-925v1456h915v-158h-723v-468h631v-157h-631v-516zM759 1848h188v-205h-188v205zM386 1848h188v-205h-188v205z" />
    <glyph glyph-name="Igrave" unicode="&#xcc;" horiz-adv-x="562" 
d="M183 1456h192v-1456h-192v1456zM-34 1992h223l194 -294h-159z" />
    <glyph glyph-name="Iacute" unicode="&#xcd;" horiz-adv-x="562" 
d="M183 1456h192v-1456h-192v1456zM308 1815h236l-220 -280h-149z" />
    <glyph glyph-name="Icircumflex" unicode="&#xce;" horiz-adv-x="562" 
d="M183 1456h192v-1456h-192v1456zM182 1536h-206l216 280h192l225 -280h-204l-110 170z" />
    <glyph glyph-name="Idieresis" unicode="&#xcf;" horiz-adv-x="562" 
d="M183 1456h192v-1456h-192v1456zM376 1857h188v-205h-188v205zM3 1857h188v-205h-188v205z" />
    <glyph glyph-name="Eth" unicode="&#xd0;" horiz-adv-x="1508" 
d="M665 173q132 0 217 23t141 79q147 147 147 468q0 301 -139 440q-67 67 -143.5 88.5t-227.5 21.5h-308v-494h404v-132h-404v-494h313zM158 667h-161v132h161v667h506q182 0 285.5 -26t189.5 -100q231 -196 231 -599q0 -201 -65.5 -370.5t-175.5 -249.5q-87 -65 -189.5 -93
t-252.5 -28h-529v667z" />
    <glyph glyph-name="Ntilde" unicode="&#xd1;" horiz-adv-x="1541" 
d="M362 1122v-1122h-193v1456h193l735 -1127v1127h191v-1456h-193zM635 1757q-36 0 -56 -25t-20 -64v-6h-133v5q0 97 56 160t147 63q63 0 169 -54q58 -30 94 -30q38 0 52 20t21 67h130q-3 -104 -53.5 -166t-142.5 -62q-62 0 -166 56q-67 36 -98 36z" />
    <glyph glyph-name="Ograve" unicode="&#xd2;" horiz-adv-x="1707" 
d="M1098 775q0 395 -228 501q-75 35 -167 35q-101 0 -177.5 -42.5t-119.5 -108t-69 -155.5q-28 -99 -28 -230v-94q0 -184 58.5 -316t175.5 -187q75 -35 162 -35q107 0 184.5 41.5t122 116.5t65.5 169t21 211v94zM1289 681q0 -242 -88.5 -410.5t-254.5 -242.5
q-108 -48 -241 -48q-108 0 -198.5 31t-156.5 88t-112.5 128.5t-76.5 160.5q-43 128 -43 293v92q0 240 91 410.5t257 244.5q108 48 237 48q214 0 349.5 -111t195.5 -299q41 -127 41 -293v-92zM467 1959h223l194 -294h-159z" />
    <glyph glyph-name="Oacute" unicode="&#xd3;" horiz-adv-x="1707" 
d="M1098 775q0 395 -228 501q-75 35 -167 35q-101 0 -177.5 -42.5t-119.5 -108t-69 -155.5q-28 -99 -28 -230v-94q0 -184 58.5 -316t175.5 -187q75 -35 162 -35q107 0 184.5 41.5t122 116.5t65.5 169t21 211v94zM1289 681q0 -242 -88.5 -410.5t-254.5 -242.5
q-108 -48 -241 -48q-108 0 -198.5 31t-156.5 88t-112.5 128.5t-76.5 160.5q-43 128 -43 293v92q0 240 91 410.5t257 244.5q108 48 237 48q214 0 349.5 -111t195.5 -299q41 -127 41 -293v-92zM808 1811h236l-220 -280h-149z" />
    <glyph glyph-name="Ocircumflex" unicode="&#xd4;" horiz-adv-x="1707" 
d="M1098 775q0 395 -228 501q-75 35 -167 35q-101 0 -177.5 -42.5t-119.5 -108t-69 -155.5q-28 -99 -28 -230v-94q0 -184 58.5 -316t175.5 -187q75 -35 162 -35q107 0 184.5 41.5t122 116.5t65.5 169t21 211v94zM1289 681q0 -242 -88.5 -410.5t-254.5 -242.5
q-108 -48 -241 -48q-108 0 -198.5 31t-156.5 88t-112.5 128.5t-76.5 160.5q-43 128 -43 293v92q0 240 91 410.5t257 244.5q108 48 237 48q214 0 349.5 -111t195.5 -299q41 -127 41 -293v-92zM663 1541h-206l216 280h192l225 -280h-204l-110 170z" />
    <glyph glyph-name="Otilde" unicode="&#xd5;" horiz-adv-x="1707" 
d="M1098 775q0 395 -228 501q-75 35 -167 35q-101 0 -177.5 -42.5t-119.5 -108t-69 -155.5q-28 -99 -28 -230v-94q0 -184 58.5 -316t175.5 -187q75 -35 162 -35q107 0 184.5 41.5t122 116.5t65.5 169t21 211v94zM1289 681q0 -242 -88.5 -410.5t-254.5 -242.5
q-108 -48 -241 -48q-108 0 -198.5 31t-156.5 88t-112.5 128.5t-76.5 160.5q-43 128 -43 293v92q0 240 91 410.5t257 244.5q108 48 237 48q214 0 349.5 -111t195.5 -299q41 -127 41 -293v-92zM521 1732q-36 0 -56 -25t-20 -64v-6h-133v5q0 97 56 160t147 63q63 0 169 -54
q58 -30 94 -30q38 0 52 20t21 67h130q-3 -104 -53.5 -166t-142.5 -62q-62 0 -166 56q-68 36 -98 36z" />
    <glyph glyph-name="Odieresis" unicode="&#xd6;" horiz-adv-x="1614" 
d="M1098 775q0 395 -228 501q-75 35 -167 35q-101 0 -177.5 -42.5t-119.5 -108t-69 -155.5q-28 -99 -28 -230v-94q0 -184 58.5 -316t175.5 -187q75 -35 162 -35q107 0 184.5 41.5t122 116.5t65.5 169t21 211v94zM1289 681q0 -242 -88.5 -410.5t-254.5 -242.5
q-108 -48 -241 -48q-108 0 -198.5 31t-156.5 88t-112.5 128.5t-76.5 160.5q-43 128 -43 293v92q0 240 91 410.5t257 244.5q108 48 237 48q214 0 349.5 -111t195.5 -299q41 -127 41 -293v-92zM812 1798h188v-205h-188v205zM439 1798h188v-205h-188v205z" />
    <glyph glyph-name="multiply" unicode="&#xd7;" horiz-adv-x="1215" 
d="M476 724l-314 314l122 122l314 -314l313 313l120 -121l-312 -313l314 -314l-122 -122l-314 314l-315 -315l-121 121z" />
    <glyph glyph-name="Oslash" unicode="&#xd8;" horiz-adv-x="1707" 
d="M469 262q144 -121 326 -121q218 0 360 154t142 432q0 210 -85 367zM1130 1197q-99 76 -165 101q-71 27 -165 27q-219 0 -362 -149t-143 -443q0 -117 21.5 -201t67.5 -170zM801 -25q-148 0 -245 35.5t-206 118.5l-168 -188l-99 84l176 197q-99 154 -131 254
q-33 106 -33 254q0 230 92.5 405.5t249.5 264.5q163 91 362 91q133 0 234 -36q102 -35 217 -123l168 188l99 -84l-176 -198q86 -128 121 -233.5t35 -272.5q0 -230 -94 -405.5t-253 -261.5q-164 -90 -349 -90z" />
    <glyph glyph-name="Ugrave" unicode="&#xd9;" horiz-adv-x="1522" 
d="M665 137q163 0 249.5 85t86.5 248v986h193v-986q0 -234 -158 -368q-143 -122 -371 -122q-180 0 -303.5 72t-181.5 203q-40 90 -40 215v986h190v-986q0 -162 86.5 -247.5t248.5 -85.5zM443 1984h223l194 -294h-159z" />
    <glyph glyph-name="Uacute" unicode="&#xda;" horiz-adv-x="1522" 
d="M665 137q163 0 249.5 85t86.5 248v986h193v-986q0 -234 -158 -368q-143 -122 -371 -122q-180 0 -303.5 72t-181.5 203q-40 90 -40 215v986h190v-986q0 -162 86.5 -247.5t248.5 -85.5zM740 1820h236l-220 -280h-149z" />
    <glyph glyph-name="Ucircumflex" unicode="&#xdb;" horiz-adv-x="1522" 
d="M665 137q163 0 249.5 85t86.5 248v986h193v-986q0 -234 -158 -368q-143 -122 -371 -122q-180 0 -303.5 72t-181.5 203q-40 90 -40 215v986h190v-986q0 -162 86.5 -247.5t248.5 -85.5zM650 1645h-206l216 280h192l225 -280h-204l-110 170z" />
    <glyph glyph-name="Udieresis" unicode="&#xdc;" horiz-adv-x="1522" 
d="M665 137q163 0 249.5 85t86.5 248v986h193v-986q0 -234 -158 -368q-143 -122 -371 -122q-180 0 -303.5 72t-181.5 203q-40 90 -40 215v986h190v-986q0 -162 86.5 -247.5t248.5 -85.5zM823 1730h188v-205h-188v205zM450 1730h188v-205h-188v205z" />
    <glyph glyph-name="Yacute" unicode="&#xdd;" horiz-adv-x="1394" 
d="M1211 1456l-502 -913v-543h-192v543l-502 913h220l378 -731l380 731h218zM656 1816h236l-220 -280h-149z" />
    <glyph glyph-name="Thorn" unicode="&#xde;" horiz-adv-x="1440" 
d="M731 471q170 0 258 62t88 204q0 92 -46.5 157t-121.5 87q-54 14 -182 14h-375v-524h379zM158 1466h194v-298h359q142 0 239.5 -18t165.5 -66q71 -50 116 -141.5t45 -199.5q0 -185 -119 -316q-118 -129 -430 -129h-376v-298h-194v1466z" />
    <glyph glyph-name="germandbls" unicode="&#xdf;" horiz-adv-x="1316" 
d="M776 1186q0 70 -59.5 113.5t-140.5 43.5q-107 0 -175 -66t-68 -286v-991h-180v999q0 178 42.5 278t150.5 158q104 56 234 56q173 0 272 -87q99 -86 99 -200q0 -53 -16.5 -104.5t-38 -86t-47.5 -80.5t-38 -81q-12 -32 -12 -55q0 -32 16 -54.5t47 -48.5q42 -33 80 -57
q132 -84 181 -143q64 -76 64 -182q0 -139 -103 -238q-102 -99 -262 -99q-128 0 -222.5 68t-140.5 173l155 72q17 -31 27.5 -48t30.5 -43t39 -39.5t47 -24t61 -10.5q74 0 129 51.5t55 122.5q0 55 -32 96q-6 7 -39 35q-23 19 -73 53q-166 112 -205 171q-40 55 -40 117
q0 49 28 112.5t67.5 130t50.5 96.5q16 39 16 78z" />
    <glyph glyph-name="agrave" unicode="&#xe0;" horiz-adv-x="1205" 
d="M501 141q95 0 169.5 45.5t108.5 116.5v222h-154q-331 0 -331 -199q0 -89 56.5 -137t150.5 -48zM964 236q0 -133 38 -220v-16h-194q-15 29 -26 114q-127 -134 -308 -134q-123 0 -211.5 52t-127.5 142q-26 60 -26 126q0 95 38 165.5t106.5 111t153.5 60t188 19.5h184v85
q0 103 -59.5 157.5t-169.5 54.5q-76 0 -133 -28t-83 -78q-17 -32 -17 -65h-186q0 123 117 218q126 102 313 102q282 0 373 -204q30 -68 30 -159v-503zM268 1540h223l194 -294h-159z" />
    <glyph glyph-name="aacute" unicode="&#xe1;" horiz-adv-x="1205" 
d="M501 141q95 0 169.5 45.5t108.5 116.5v222h-154q-331 0 -331 -199q0 -89 56.5 -137t150.5 -48zM964 236q0 -133 38 -220v-16h-194q-15 29 -26 114q-127 -134 -308 -134q-123 0 -211.5 52t-127.5 142q-26 60 -26 126q0 95 38 165.5t106.5 111t153.5 60t188 19.5h184v85
q0 103 -59.5 157.5t-169.5 54.5q-76 0 -133 -28t-83 -78q-17 -32 -17 -65h-186q0 123 117 218q126 102 313 102q282 0 373 -204q30 -68 30 -159v-503zM551 1474h236l-220 -280h-149z" />
    <glyph glyph-name="acircumflex" unicode="&#xe2;" horiz-adv-x="1205" 
d="M501 141q95 0 169.5 45.5t108.5 116.5v222h-154q-331 0 -331 -199q0 -89 56.5 -137t150.5 -48zM964 236q0 -133 38 -220v-16h-194q-15 29 -26 114q-127 -134 -308 -134q-123 0 -211.5 52t-127.5 142q-26 60 -26 126q0 95 38 165.5t106.5 111t153.5 60t188 19.5h184v85
q0 103 -59.5 157.5t-169.5 54.5q-76 0 -133 -28t-83 -78q-17 -32 -17 -65h-186q0 123 117 218q126 102 313 102q282 0 373 -204q30 -68 30 -159v-503zM492 1194h-206l216 280h192l225 -280h-204l-110 170z" />
    <glyph glyph-name="atilde" unicode="&#xe3;" horiz-adv-x="1205" 
d="M501 141q95 0 169.5 45.5t108.5 116.5v222h-154q-331 0 -331 -199q0 -89 56.5 -137t150.5 -48zM964 236q0 -133 38 -220v-16h-194q-15 29 -26 114q-127 -134 -308 -134q-123 0 -211.5 52t-127.5 142q-26 60 -26 126q0 95 38 165.5t106.5 111t153.5 60t188 19.5h184v85
q0 103 -59.5 157.5t-169.5 54.5q-76 0 -133 -28t-83 -78q-17 -32 -17 -65h-186q0 123 117 218q126 102 313 102q282 0 373 -204q30 -68 30 -159v-503zM477 1314q-36 0 -56 -25t-20 -64v-6h-133v5q0 97 56 160t147 63q63 0 169 -54q58 -30 94 -30q38 0 52 20t21 67h130
q-3 -104 -53.5 -166t-142.5 -62q-62 0 -166 56q-67 36 -98 36z" />
    <glyph glyph-name="adieresis" unicode="&#xe4;" horiz-adv-x="1205" 
d="M501 141q95 0 169.5 45.5t108.5 116.5v222h-154q-331 0 -331 -199q0 -89 56.5 -137t150.5 -48zM964 236q0 -133 38 -220v-16h-194q-15 29 -26 114q-127 -134 -308 -134q-123 0 -211.5 52t-127.5 142q-26 60 -26 126q0 95 38 165.5t106.5 111t153.5 60t188 19.5h184v85
q0 103 -59.5 157.5t-169.5 54.5q-76 0 -133 -28t-83 -78q-17 -32 -17 -65h-186q0 123 117 218q126 102 313 102q282 0 373 -204q30 -68 30 -159v-503zM695 1475h188v-205h-188v205zM322 1475h188v-205h-188v205z" />
    <glyph glyph-name="aring" unicode="&#xe5;" horiz-adv-x="1205" 
d="M501 141q95 0 169.5 45.5t108.5 116.5v222h-154q-331 0 -331 -199q0 -89 56.5 -137t150.5 -48zM964 236q0 -133 38 -220v-16h-194q-15 29 -26 114q-127 -134 -308 -134q-123 0 -211.5 52t-127.5 142q-26 60 -26 126q0 95 38 165.5t106.5 111t153.5 60t188 19.5h184v85
q0 103 -59.5 157.5t-169.5 54.5q-76 0 -133 -28t-83 -78q-17 -32 -17 -65h-186q0 123 117 218q126 102 313 102q282 0 373 -204q30 -68 30 -159v-503zM600 1455q-43 0 -74.5 -32t-31.5 -75q0 -46 30.5 -78.5t75.5 -32.5q43 0 74.5 32.5t31.5 76.5q0 45 -31 77t-75 32z
M599 1162q-76 0 -128.5 55t-52.5 132q0 72 54 125.5t126 53.5q74 0 127 -54t53 -129t-52.5 -129t-126.5 -54z" />
    <glyph glyph-name="ae" unicode="&#xe6;" horiz-adv-x="1778" 
d="M1475 671q0 131 -65 205t-192 74q-94 0 -155.5 -52.5t-94.5 -135.5q-24 -61 -31 -122h538v31zM264 300q0 -85 56 -127.5t149 -42.5q113 0 225 80q34 24 55 48v237h-221q-89 0 -154 -31.5t-93 -89.5q-17 -36 -17 -74zM1642 101q-148 -121 -380 -121q-262 0 -397 180
q-66 -86 -176 -133t-256 -47q-165 0 -260 83.5t-95 240.5q0 169 121.5 250t326.5 81h223v85q0 110 -54 170t-160 60q-81 0 -139.5 -31.5t-87.5 -86.5q-18 -34 -18 -73l-184 19q0 117 71.5 191.5t182.5 108.5q80 24 175 24q242 0 341 -166q132 166 342 166
q217 0 329.5 -129.5t112.5 -357.5v-118h-728q6 -168 88 -267.5t242 -99.5q68 0 129.5 17t97 36t89.5 54z" />
    <glyph glyph-name="ccedilla" unicode="&#xe7;" horiz-adv-x="1119" 
d="M574 131q104 0 174.5 58t80.5 152h175q-8 -120 -83 -204t-185 -127q-52 -21 -110 -27l-21 -67q74 -9 122.5 -46.5t48.5 -100.5q0 -75 -72 -132q-70 -58 -217 -58q-83 0 -144 12l11 117q66 -4 94 -4q94 0 132 26q29 20 29 49q-2 16 -8 27t-19.5 18t-24.5 11.5t-33 6.5
t-34 2.5t-38 1.5l41 139q-144 20 -237 107t-134 221q-30 97 -30 207v42q0 180 70.5 307t198.5 189q91 44 212 44q144 0 244.5 -64t150.5 -173q31 -68 36 -155h-175q-14 160 -155 221q-44 19 -101 19q-157 0 -233 -124q-63 -102 -63 -264v-42q0 -262 153 -355q56 -34 144 -34
z" />
    <glyph glyph-name="egrave" unicode="&#xe8;" horiz-adv-x="1194" 
d="M826 654q-7 133 -71 214.5t-189 81.5q-126 0 -195.5 -87t-86.5 -223h542v14zM599 131q173 0 285 146l113 -88q-132 -209 -408 -209q-223 0 -361 148q-135 143 -135 375v42q0 190 79 324.5t217 194.5q87 38 177 38q224 0 334.5 -143.5t110.5 -387.5v-83h-733
q2 -119 52 -203t136 -126q57 -28 133 -28zM224 1508h223l194 -294h-159z" />
    <glyph glyph-name="eacute" unicode="&#xe9;" horiz-adv-x="1194" 
d="M826 654q-7 133 -71 214.5t-189 81.5q-126 0 -195.5 -87t-86.5 -223h542v14zM599 131q173 0 285 146l113 -88q-132 -209 -408 -209q-223 0 -361 148q-135 143 -135 375v42q0 190 79 324.5t217 194.5q87 38 177 38q224 0 334.5 -143.5t110.5 -387.5v-83h-733
q2 -119 52 -203t136 -126q57 -28 133 -28zM545 1474h236l-220 -280h-149z" />
    <glyph glyph-name="ecircumflex" unicode="&#xea;" horiz-adv-x="1194" 
d="M826 654q-7 133 -71 214.5t-189 81.5q-126 0 -195.5 -87t-86.5 -223h542v14zM599 131q173 0 285 146l113 -88q-132 -209 -408 -209q-223 0 -361 148q-135 143 -135 375v42q0 190 79 324.5t217 194.5q87 38 177 38q224 0 334.5 -143.5t110.5 -387.5v-83h-733
q2 -119 52 -203t136 -126q57 -28 133 -28zM486 1194h-206l216 280h192l225 -280h-204l-110 170z" />
    <glyph glyph-name="edieresis" unicode="&#xeb;" horiz-adv-x="1194" 
d="M826 654q-7 133 -71 214.5t-189 81.5q-126 0 -195.5 -87t-86.5 -223h542v14zM599 131q173 0 285 146l113 -88q-132 -209 -408 -209q-223 0 -361 148q-135 143 -135 375v42q0 190 79 324.5t217 194.5q87 38 177 38q224 0 334.5 -143.5t110.5 -387.5v-83h-733
q2 -119 52 -203t136 -126q57 -28 133 -28zM689 1475h188v-205h-188v205zM316 1475h188v-205h-188v205z" />
    <glyph glyph-name="igrave" unicode="&#xec;" horiz-adv-x="515" 
d="M-39 1534h223l194 -294h-159zM198 1062h180v-1062h-180v1062z" />
    <glyph glyph-name="iacute" unicode="&#xed;" horiz-adv-x="547" 
d="M299 1465h236l-220 -280h-149zM198 1062h180v-1062h-180v1062z" />
    <glyph glyph-name="icircumflex" unicode="&#xee;" horiz-adv-x="533" 
d="M177 1190h-206l216 280h192l225 -280h-204l-110 170zM198 1062h180v-1062h-180v1062z" />
    <glyph glyph-name="idieresis" unicode="&#xef;" horiz-adv-x="542" 
d="M376 1415h188v-205h-188v205zM3 1415h188v-205h-188v205zM198 1062h180v-1062h-180v1062z" />
    <glyph glyph-name="eth" unicode="&#xf0;" horiz-adv-x="1229" 
d="M870 529q0 193 -91 293q-90 102 -222 102q-129 0 -215 -102q-85 -100 -85 -310q0 -194 87 -292q89 -98 219 -98q129 0 217 103q90 104 90 304zM737 1003q-55 116 -142 213l-275 -127l-44 103l239 109q-97 90 -207 165h217q77 -58 125 -102l214 102l45 -102l-172 -83
q320 -368 320 -760q0 -255 -139 -400q-140 -146 -354 -146q-255 0 -398 194q-93 127 -93 348q0 261 129 403t323 142q45 0 86 -10t60 -18t66 -31z" />
    <glyph glyph-name="ntilde" unicode="&#xf1;" horiz-adv-x="1117" 
d="M321 946q124 156 324 156q346 0 346 -393v-709h-185v711q0 119 -52.5 176.5t-164.5 57.5q-92 0 -159.5 -49t-104.5 -125v-771h-185v1082h175zM433 1314q-36 0 -56 -25t-20 -64v-6h-133v5q0 97 56 160t147 63q63 0 169 -54q58 -30 94 -30q38 0 52 20t21 67h130
q-3 -104 -53.5 -166t-142.5 -62q-62 0 -166 56q-67 36 -98 36z" />
    <glyph glyph-name="ograve" unicode="&#xf2;" horiz-adv-x="1223" 
d="M277 529q0 -130 44.5 -225t128.5 -141q58 -32 134 -32q116 0 187 68t101 177q19 70 19 153v22q0 130 -45 225t-129 142q-57 32 -135 32q-142 0 -228 -120q-77 -107 -77 -279v-22zM91 551q0 183 77 315t210 194q92 42 204 42q176 0 292.5 -91t167.5 -241q34 -99 34 -219
v-22q0 -185 -76 -315t-211 -192q-91 -42 -205 -42q-175 0 -291 90.5t-167 239.5q-35 102 -35 219v22zM391 1534h223l194 -294h-159z" />
    <glyph glyph-name="oacute" unicode="&#xf3;" horiz-adv-x="1223" 
d="M277 529q0 -130 44.5 -225t128.5 -141q58 -32 134 -32q116 0 187 68t101 177q19 70 19 153v22q0 130 -45 225t-129 142q-57 32 -135 32q-142 0 -228 -120q-77 -107 -77 -279v-22zM91 551q0 183 77 315t210 194q92 42 204 42q176 0 292.5 -91t167.5 -241q34 -99 34 -219
v-22q0 -185 -76 -315t-211 -192q-91 -42 -205 -42q-175 0 -291 90.5t-167 239.5q-35 102 -35 219v22zM616 1474h236l-220 -280h-149z" />
    <glyph glyph-name="ocircumflex" unicode="&#xf4;" horiz-adv-x="1223" 
d="M277 529q0 -130 44.5 -225t128.5 -141q58 -32 134 -32q116 0 187 68t101 177q19 70 19 153v22q0 130 -45 225t-129 142q-57 32 -135 32q-142 0 -228 -120q-77 -107 -77 -279v-22zM91 551q0 183 77 315t210 194q92 42 204 42q176 0 292.5 -91t167.5 -241q34 -99 34 -219
v-22q0 -185 -76 -315t-211 -192q-91 -42 -205 -42q-175 0 -291 90.5t-167 239.5q-35 102 -35 219v22zM501 1194h-206l216 280h192l225 -280h-204l-110 170z" />
    <glyph glyph-name="otilde" unicode="&#xf5;" horiz-adv-x="1223" 
d="M277 529q0 -130 44.5 -225t128.5 -141q58 -32 134 -32q116 0 187 68t101 177q19 70 19 153v22q0 130 -45 225t-129 142q-57 32 -135 32q-142 0 -228 -120q-77 -107 -77 -279v-22zM91 551q0 183 77 315t210 194q92 42 204 42q176 0 292.5 -91t167.5 -241q34 -99 34 -219
v-22q0 -185 -76 -315t-211 -192q-91 -42 -205 -42q-175 0 -291 90.5t-167 239.5q-35 102 -35 219v22zM398 1293q-36 0 -56 -25t-20 -64v-6h-133v5q0 97 56 160t147 63q63 0 169 -54q58 -30 94 -30q38 0 52 20t21 67h130q-3 -104 -53.5 -166t-142.5 -62q-62 0 -166 56
q-68 36 -98 36z" />
    <glyph glyph-name="odieresis" unicode="&#xf6;" horiz-adv-x="1223" 
d="M277 529q0 -130 44.5 -225t128.5 -141q58 -32 134 -32q116 0 187 68t101 177q19 70 19 153v22q0 130 -45 225t-129 142q-57 32 -135 32q-142 0 -228 -120q-77 -107 -77 -279v-22zM91 551q0 183 77 315t210 194q92 42 204 42q176 0 292.5 -91t167.5 -241q34 -99 34 -219
v-22q0 -185 -76 -315t-211 -192q-91 -42 -205 -42q-175 0 -291 90.5t-167 239.5q-35 102 -35 219v22zM639 1380h188v-205h-188v205zM266 1380h188v-205h-188v205z" />
    <glyph glyph-name="divide" unicode="&#xf7;" horiz-adv-x="1150" 
d="M459 524h205v-205h-205v205zM78 639v168h968v-168h-968zM459 1127h205v-205h-205v205z" />
    <glyph glyph-name="oslash" unicode="&#xf8;" horiz-adv-x="1223" 
d="M444 187q78 -63 176 -63q139 0 229 102q91 100 91 306q0 127 -47 238zM818 867q-91 70 -191 70q-133 0 -223 -102t-90 -304q0 -151 52 -251zM621 1086q149 0 298 -87l99 128l96 -70l-107 -138q66 -89 91.5 -171t25.5 -218q0 -300 -169 -441q-137 -113 -330 -113
q-159 0 -281 80l-105 -135l-94 71l108 141q-65 74 -94.5 164.5t-29.5 218.5q0 302 147 435q147 135 345 135z" />
    <glyph glyph-name="ugrave" unicode="&#xf9;" horiz-adv-x="1150" 
d="M808 107q-108 -127 -317 -127q-181 0 -268 104.5t-87 298.5v699h185v-701q0 -244 200 -244q213 0 282 158v787h185v-1082h-176zM230 1534h223l194 -294h-159z" />
    <glyph glyph-name="uacute" unicode="&#xfa;" horiz-adv-x="1150" 
d="M808 107q-108 -127 -317 -127q-181 0 -268 104.5t-87 298.5v699h185v-701q0 -244 200 -244q213 0 282 158v787h185v-1082h-176zM523 1474h236l-220 -280h-149z" />
    <glyph glyph-name="ucircumflex" unicode="&#xfb;" horiz-adv-x="1150" 
d="M808 107q-108 -127 -317 -127q-181 0 -268 104.5t-87 298.5v699h185v-701q0 -244 200 -244q213 0 282 158v787h185v-1082h-176zM464 1194h-206l216 280h192l225 -280h-204l-110 170z" />
    <glyph glyph-name="udieresis" unicode="&#xfc;" horiz-adv-x="1150" 
d="M808 107q-108 -127 -317 -127q-181 0 -268 104.5t-87 298.5v699h185v-701q0 -244 200 -244q213 0 282 158v787h185v-1082h-176zM667 1384h188v-205h-188v205zM294 1384h188v-205h-188v205z" />
    <glyph glyph-name="yacute" unicode="&#xfd;" horiz-adv-x="1058" 
d="M84 -271q9 -3 26 -3q2 0 7 -0.5t7 -0.5h10q69 0 116 22.5t72.5 59t44.5 95.5l41 110l-386 1070h202l270 -811l252 811h198l-435 -1249q-66 -179 -195 -243q-54 -27 -126 -27q-24 0 -104 16v150zM514 1429h236l-220 -280h-149z" />
    <glyph glyph-name="thorn" unicode="&#xfe;" horiz-adv-x="1177" 
d="M298 525q0 -205 83 -303t201 -98q119 0 205 101q86 104 86 315q0 204 -84 304q-83 101 -199 101t-204 -108q-88 -106 -88 -312zM595 -24q-66 0 -116.5 17.5t-83.5 43t-80 73.5v-517h-180v1873h180v-516q74 77 128 102q68 34 164 34q147 0 246.5 -72.5t150.5 -195.5
q53 -132 53 -279q0 -166 -61 -296.5t-168 -197.5q-111 -69 -233 -69z" />
    <glyph glyph-name="ydieresis" unicode="&#xff;" horiz-adv-x="1058" 
d="M84 -271q9 -3 26 -3q2 0 7 -0.5t7 -0.5h10q69 0 116 22.5t72.5 59t44.5 95.5l41 110l-386 1070h202l270 -811l252 811h198l-435 -1249q-66 -179 -195 -243q-54 -27 -126 -27q-24 0 -104 16v150zM621 1394h188v-205h-188v205zM248 1394h188v-205h-188v205z" />
    <glyph glyph-name="OE" unicode="&#x152;" horiz-adv-x="1999" 
d="M290 576q0 -205 92.5 -325t279.5 -120q122 0 214 14v1165q-100 15 -216 15q-125 0 -209.5 -57.5t-122.5 -155t-38 -230.5v-306zM660 1477q99 0 294 -21h837v-158h-723v-468h631v-157h-631v-516h733v-157h-847q-195 -21 -292 -21q-195 0 -325.5 97t-190.5 258
q-41 111 -41 242v304q0 203 88 346t240 208q101 43 227 43z" />
    <glyph glyph-name="oe" unicode="&#x153;" horiz-adv-x="1933" 
d="M1351 950q-159 0 -237 -182q-23 -54 -34 -119h526v26q0 126 -67 200.5t-188 74.5zM282 529q0 -131 42 -226.5t124 -140.5q58 -32 133 -32q102 0 170.5 56.5t97.5 143.5t29 199v22q0 130 -42 224.5t-124 142.5q-55 32 -133 32q-142 0 -225 -120q-72 -103 -72 -279v-22z
M976 192q-133 -212 -395 -212q-175 0 -288.5 90t-162.5 240q-33 100 -33 219v22q0 185 74 316.5t205 192.5q90 42 203 42q266 0 399 -217q61 96 156 156.5t217 60.5q216 0 328.5 -129t112.5 -354v-122h-718q5 -121 49.5 -209t126.5 -130q55 -28 129 -28q193 0 308 108
l74 -126q-140 -132 -382 -132q-139 0 -240 56.5t-163 155.5z" />
    <glyph glyph-name="Scaron" unicode="&#x160;" horiz-adv-x="1268" 
d="M631 137q143 0 228.5 56.5t85.5 174.5q0 91 -44.5 138t-132.5 84q-46 20 -180 63t-186 67q-178 79 -243 208q-33 66 -33 151q0 169 136 283q137 114 359 114q176 0 300.5 -74t179.5 -202q34 -78 34 -165h-193q0 139 -86 211t-235 72q-136 0 -218.5 -58t-82.5 -178
q0 -43 15 -78t44.5 -60t58 -41.5t68.5 -33.5q62 -26 154 -52q249 -69 362 -174q116 -106 116 -273q0 -144 -82.5 -233.5t-215.5 -128.5q-96 -28 -209 -28q-153 0 -274 53t-194 145q-83 105 -83 244h193q0 -141 100 -213t258 -72zM735 1837h204l-225 -280h-192l-216 280h206
l113 -170z" />
    <glyph glyph-name="scaron" unicode="&#x161;" horiz-adv-x="1025" 
d="M280 333q5 -98 76 -150t182 -52q167 0 217 95q15 28 15 61q0 61 -30.5 94t-89.5 56q-40 16 -147.5 42.5t-143.5 39.5q-104 37 -165.5 98.5t-61.5 167.5q0 110 66.5 183t168.5 108q75 26 165 26q141 0 240 -54t145 -152q28 -60 28 -132h-186q0 61 -37.5 104.5t-92.5 65.5
q-41 16 -97 16q-95 0 -155 -39.5t-60 -119.5q0 -58 31 -85t94 -48q55 -19 125 -34q139 -31 231.5 -77.5t133.5 -130.5q23 -47 23 -116q0 -117 -68 -189.5t-178 -106.5q-77 -24 -171 -24q-206 0 -329 110q-114 101 -114 243h185zM629 1454h204l-225 -280h-192l-216 280h206
l113 -170z" />
    <glyph glyph-name="Ydieresis" unicode="&#x178;" horiz-adv-x="1394" 
d="M1211 1456l-502 -913v-543h-192v543l-502 913h220l378 -731l380 731h218zM752 1765h188v-205h-188v205zM379 1765h188v-205h-188v205z" />
    <glyph glyph-name="Zcaron" unicode="&#x17d;" horiz-adv-x="1281" 
d="M1146 0h-1060v144l798 1154h-785v158h1015v-141l-801 -1158h833v-157zM731 1801h204l-225 -280h-192l-216 280h206l113 -170z" />
    <glyph glyph-name="zcaron" unicode="&#x17e;" horiz-adv-x="1067" 
d="M947 0h-859v136l597 793h-588v153h820v-131l-603 -800h633v-151zM637 1454h204l-225 -280h-192l-216 280h206l113 -170z" />
    <glyph glyph-name="florin" unicode="&#x192;" horiz-adv-x="1182" 
d="M233 -272q66 0 90 33.5t38 118.5l177 1042h-201l24 140h201l24 133q22 120 45 165q33 66 90 99t149 33q75 0 215 -38l-35 -153q-103 24 -154 24q-56 0 -84 -28q-27 -24 -47 -132l-19 -103h204l-25 -140h-204l-191 -1092q-23 -136 -79 -198.5t-181 -62.5q-94 0 -224 26
l35 155q98 -22 152 -22z" />
    <glyph glyph-name="circumflex" unicode="&#x2c6;" horiz-adv-x="677" 
d="M231 1194h-206l216 280h192l225 -280h-204l-110 170z" />
    <glyph glyph-name="tilde" unicode="&#x2dc;" horiz-adv-x="700" 
d="M216 1314q-36 0 -56 -25t-20 -64v-6h-133v5q0 97 56 160t147 63q62 0 169 -54q59 -30 94 -30q38 0 52 20t21 67h130q-3 -104 -53.5 -166t-142.5 -62q-62 0 -166 56q-67 36 -98 36z" />
    <glyph glyph-name="uni060C" unicode="&#x60c;" horiz-adv-x="549" 
d="M296 266q47 -9 68.5 -36.5t27.5 -80.5q-2 -37 -26 -68.5t-55 -47.5q-23 -12 -46 -12q-74 0 -120.5 51.5t-46.5 127.5q0 52 20 130q20 83 65 143t117 114q4 -3 25 -21t33 -26q-75 -66 -120 -137t-45 -164q21 16 41 20t62 7z" />
    <glyph glyph-name="uni060D" unicode="&#x60d;" horiz-adv-x="723" 
d="M554 225q-301 -297 -395 -597q-18 10 -51 43l-24 26l22 64q29 77 55 131q115 223 355 456z" />
    <glyph glyph-name="uni0615" unicode="&#x615;" 
d="M37 909q10 -1 40.5 -4t49.5 -3h31q222 0 280 124q12 26 12 45q0 39 -28.5 64t-70.5 25q-7 0 -21 -2q-106 -25 -214 -147zM342 1216q67 0 115.5 -36.5t48.5 -97.5q0 -10 -4 -32q-22 -101 -117.5 -153.5t-228.5 -52.5q-159 0 -313 55l24 54q48 -20 107 -33l64 86
q5 48 5 118q0 122 -30 349l62 15q31 -236 33 -352v-53q65 60 116 91q69 42 118 42z" />
    <glyph glyph-name="uni061B" unicode="&#x61b;" horiz-adv-x="512" 
d="M290 676q47 -9 69 -37t27 -82q-4 -36 -27.5 -67t-53.5 -47q-23 -12 -46 -12q-80 0 -127 50t-47 131q0 131 56 221.5t153 163.5q4 -3 25 -21t33 -26q-75 -66 -120 -137t-45 -164q21 16 41 20t62 7zM249 230q42 0 73.5 -32t31.5 -73q0 -40 -32 -71.5t-73 -31.5
q-43 0 -74 30.5t-31 72.5q0 43 31 74t74 31z" />
    <glyph glyph-name="uni061F" unicode="&#x61f;" horiz-adv-x="1024" 
d="M98 1270q0 96 57.5 180t153.5 133t204 49q178 0 291 -118q89 -107 104 -281h-116q-20 282 -279 282q-93 0 -187 -64q-96 -89 -96 -180q0 -31 4 -58.5t15 -52t19.5 -43t28.5 -39.5t30 -32t37 -31.5t36.5 -27t39.5 -27.5q64 -44 104 -87.5t57 -107.5q19 -72 19 -167v-108
h-116v108q0 88 -22.5 145.5t-70.5 101.5l-116 86q-14 11 -46.5 38.5t-46.5 38.5q-104 125 -104 262zM564 20l-127 128l134 135l128 -128z" />
    <glyph glyph-name="uni0640" unicode="&#x640;" horiz-adv-x="907" 
d="M-9 40q-25 0 -43.5 17t-18.5 41t19.5 41t43.5 17h922q24 0 41.5 -17t17.5 -41q0 -25 -17 -41.5t-42 -16.5h-923z" />
    <glyph glyph-name="uni064B" unicode="&#x64b;" 
d="M12 1315v79l421 169v-74zM19 1136v79l421 169v-71z" />
    <glyph glyph-name="uni064C" unicode="&#x64c;" 
d="M413 1458q0 42 -17 72t-52 30q-33 0 -59.5 -20t-38.5 -47l1 1q-2 -6 -2 -16q0 -23 9 -40.5t29 -31.5t34 -21t43 -18.5t36 -14.5q17 66 17 106zM473 1457q0 -47 -22 -124l32 -12l-24 -53l-39 11q-123 -112 -343 -157l-35 48v7q20 42 20 98q0 34 -10 52t-38 20h-4
q-33 0 -72 -31l-42 42q48 48 111 48h9q49 -4 77.5 -38t28.5 -90q0 -28 -11 -86q154 48 247 111l-80 34q-94 45 -94 135q0 70 74 120q41 28 86 28q53 0 92 -48q37 -45 37 -115z" />
    <glyph glyph-name="uni064D" unicode="&#x64d;" 
d="M15 -402v79l421 169v-74zM22 -581v79l421 169v-71z" />
    <glyph glyph-name="uni064E" unicode="&#x64e;" 
d="M0 1271v80l463 178v-74z" />
    <glyph glyph-name="uni064F" unicode="&#x64f;" 
d="M234 1544q-28 0 -54 -17.5t-41 -40.5q-12 -18 -12 -38q0 -14 5 -24.5t18.5 -19.5t19.5 -12.5t24 -11.5l93 -44q19 39 19 90q0 44 -19 81t-53 37zM365 1429q0 -59 -22 -113q6 -2 9 -2t18 -6l-19 -57l-42 15q-108 -103 -313 -171l-21 58q165 55 276 133q-121 48 -159 96
q-22 26 -22 62q0 2 0.5 6t0.5 7q14 93 107 135q25 11 57 11q66 0 98 -49.5t32 -124.5z" />
    <glyph glyph-name="uni0650" unicode="&#x650;" 
d="M-5 -519v80l463 178v-74z" />
    <glyph glyph-name="uni0651" unicode="&#x651;" 
d="M138 1151q-141 8 -141 134q0 61 27 115l52 -24q-20 -50 -20 -92q0 -75 84 -75q91 0 91 141v44l53 11q17 -102 48 -148q23 -35 50 -35q38 3 58 27.5t20 64.5q0 41 -17 84t-40 73l50 34q67 -103 67 -189q0 -71 -36 -110.5t-106 -39.5t-109 71q-16 -38 -48.5 -62t-76.5 -24
h-6z" />
    <glyph glyph-name="uni0652" unicode="&#x652;" 
d="M246 1526q60 0 101.5 -36.5t62.5 -90.5q12 -32 14 -69v-7q0 -60 -30.5 -104.5t-77.5 -68.5q-34 -17 -70 -17h-6q-113 0 -160 125q-13 35 -13 72q0 60 30 106.5t75 71.5q33 18 74 18zM363 1328q0 54 -32.5 95.5t-84.5 41.5q-50 0 -84.5 -41t-34.5 -94q0 -41 21 -73.5
t52 -50.5q21 -12 46 -12q53 0 85 40t32 94z" />
    <glyph glyph-name="uni0653" unicode="&#x653;" 
d="M454 1536q16 -10 44 -28t39 -25q-53 -79 -151 -121q-36 -15 -77 -15h-7q-51 2 -128 29t-85 29q-20 5 -39 5q-84 0 -129 -124l-93 30q21 71 69 125t114 66q2 0 6.5 1t8 1.5t6.5 0.5h18q56 0 132.5 -30.5t124.5 -32.5h7q29 0 59 17t44.5 31.5t36.5 40.5z" />
    <glyph glyph-name="uni0654" unicode="&#x654;" 
d="M61 1690q0 95 66.5 153.5t164.5 58.5q44 0 82 -10l38 -9l-28 -92l-27 6q-6 1 -18.5 3t-24 3t-22.5 1q-37 0 -62 -12v2q-30 -13 -50.5 -40.5t-20.5 -63.5q0 -14 8 -36l-1 1q15 -36 48.5 -59t79.5 -23q26 0 55.5 10.5t40.5 17t42 25.5q20 11 43 29l59 -78
q-21 -15 -41.5 -28.5t-50.5 -31t-42.5 -24.5t-56 -30.5t-51.5 -27.5l-227 -126l-48 87l179 100q-57 23 -96 74.5t-39 119.5z" />
    <glyph glyph-name="uni0655" unicode="&#x655;" 
d="M143 -85q0 95 66.5 153.5t164.5 58.5q44 0 82 -10l38 -9l-28 -92l-27 6q-6 1 -18.5 3t-24 3t-22.5 1q-37 0 -62 -12v2q-30 -13 -50.5 -40.5t-20.5 -63.5q0 -14 8 -36l-1 1q15 -36 48.5 -59t79.5 -23q26 0 55.5 10.5t40.5 17t42 25.5q20 11 43 29l59 -78
q-21 -15 -41.5 -28.5t-50.5 -31t-42.5 -24.5t-56 -30.5t-51.5 -27.5l-227 -126l-48 87l179 100q-57 23 -96 74.5t-39 119.5z" />
    <glyph glyph-name="uni0656" unicode="&#x656;" 
d="M76 -340q15 -85 15 -170q0 -89 -16 -168l-65 20q13 63 13 133q0 88 -14 164z" />
    <glyph glyph-name="uni0660" unicode="&#x660;" horiz-adv-x="914" 
d="M257 483q0 -68 36.5 -118.5t91.5 -74.5q36 -16 81 -16q69 0 119.5 36.5t74.5 91.5q16 36 16 81q0 69 -36 119t-92 74q-40 17 -82 17q-70 0 -119 -36t-73 -93q-17 -40 -17 -81zM145 483q0 106 54.5 182t140.5 113q60 26 124 26q104 0 181.5 -56t114.5 -141q25 -57 25 -124
q0 -105 -55.5 -180.5t-141.5 -113.5q-57 -25 -124 -25q-105 0 -181 55t-113 140q-25 57 -25 124z" />
    <glyph glyph-name="uni0661" unicode="&#x661;" horiz-adv-x="640" 
d="M335 42q0 216 -7.5 381.5t-29 346t-66 330.5t-112.5 267l100 62q70 -122 118 -281.5t72.5 -345.5t34 -366.5t9.5 -398.5h-114z" />
    <glyph glyph-name="uni0662" unicode="&#x662;" horiz-adv-x="1089" 
d="M835 1303q0 68 -8 115l110 21l6 -4q9 -87 9 -116q0 -6 -0.5 -18t-0.5 -19q-9 -321 -208 -412q-62 -28 -140 -28q-97 0 -214 50l10 -89l5 -35q40 -336 40 -732h-118q0 367 -28 646t-108 489l-9 25q-33 89 -68 157l99 63q52 -97 87 -191q1 -3 5.5 -11t5.5 -10
q36 -83 80.5 -140t109.5 -86q45 -20 103 -20q65 0 112 28t72 78t36.5 109t11.5 130z" />
    <glyph glyph-name="uni0663" unicode="&#x663;" horiz-adv-x="1401" 
d="M1189 1212q0 86 -21 224l108 20l6 -4q24 -140 24 -241q0 -160 -60 -252.5t-190 -92.5q-96 0 -170 78q-30 31 -50 79q-40 -86 -101.5 -131t-165.5 -45q-99 0 -167 42l15 -116q40 -305 40 -734h-117q2 84 2 125q0 726 -232 1196l112 65q25 -40 50 -93.5t54.5 -124.5
t43.5 -101q32 -70 75.5 -106t123.5 -36q47 0 82 19t55 47.5t33 74t18 84t8 92.5q0 2 -0.5 10t-0.5 15q0 61 -5 124q7 1 22.5 3t21.5 3l72 9q3 -23 9.5 -81.5t11 -91.5t13 -78.5t19.5 -77.5q29 -87 72 -116q27 -17 56 -17q41 0 69 19t41 54t18 71.5t5 84.5z" />
    <glyph glyph-name="uni0664" unicode="&#x664;" horiz-adv-x="1072" 
d="M638 162q142 0 288 60l44 -111q-119 -48 -242 -62q-45 -6 -89 -6q-142 0 -247.5 51t-146.5 145q-19 45 -19 98v15q6 121 104 238q47 56 104 102l30 22q2 1 13.5 9.5t17.5 12.5q-121 14 -203 45.5t-131 94.5t-49 137q0 82 61 161q70 88 200.5 166t269.5 124l38 -113
q-167 -61 -282 -136q-88 -55 -132 -113q-36 -45 -36 -90q0 -83 117 -132q102 -43 302 -43q16 0 48 5t49 5l19 -116q-299 -93 -399 -302q-20 -43 -23 -78q0 -3 -0.5 -7t-0.5 -7q0 -76 77 -122q88 -53 218 -53z" />
    <glyph glyph-name="uni0665" unicode="&#x665;" horiz-adv-x="1204" 
d="M281 520q6 -164 94 -262t246 -98q128 0 212 72.5t113 194.5q11 49 11 92q0 135 -91 311q-90 174 -263 374q-180 -180 -280 -453q-42 -114 -42 -210v-21zM551 1434q150 -154 260 -294.5t182 -297.5q83 -181 83 -323q0 -174 -90 -296t-236 -165q-55 -16 -129 -16
q-186 0 -296.5 96.5t-147.5 263.5q-15 73 -15 136q0 70 12 125.5t40 132.5q50 140 131.5 271t177.5 225l-57 59z" />
    <glyph glyph-name="uni0666" unicode="&#x666;" horiz-adv-x="1154" 
d="M163 1394q77 -32 148.5 -44.5t169.5 -12.5q178 0 336 46l79 -69l-6 -44q-14 -99 -14 -328q0 -125 13 -273t35 -244q44 -190 100 -303q20 -40 20 -43l-110 -54q-1 3 -24 49q-55 110 -106 326q-52 222 -52 616q0 109 12 227q-160 -32 -287 -32q-201 0 -363 71z" />
    <glyph glyph-name="uni0667" unicode="&#x667;" horiz-adv-x="1165" 
d="M992 1440q18 -13 50 -32t46 -28q-77 -130 -206 -451q-173 -433 -226 -753q-13 -77 -16 -143h-114q-3 167 -30 327t-66 290t-99 266t-117 239.5t-132 225.5l96 60q201 -324 325 -652q29 -81 94 -335q144 472 305 812q53 112 90 174z" />
    <glyph glyph-name="uni0668" unicode="&#x668;" horiz-adv-x="1176" 
d="M988 17q-77 131 -144.5 294t-147.5 385q-52 144 -99 302q-66 -281 -166.5 -509.5t-254.5 -476.5l-95 60q146 238 248 465.5t157 484.5q39 182 44 398h115q4 -85 22 -184.5t33.5 -159.5t46.5 -169q83 -298 277 -712q28 -60 62 -122z" />
    <glyph glyph-name="uni0669" unicode="&#x669;" horiz-adv-x="1023" 
d="M393 1323q-59 -17 -99.5 -70.5t-59.5 -122.5q-12 -45 -12 -87q0 -54 22 -98q65 -80 212 -80q72 0 162 44q-35 210 -92 313q-55 99 -125 102h-4q-1 0 -2 -0.5t-2 -0.5zM629 787q-99 -36 -180 -36q-146 0 -245 77q-98 75 -98 211q0 117 50 214.5t128 149.5q53 35 115 35h5
q63 -3 108.5 -34t85.5 -83q68 -89 100 -229t52 -338q48 -313 120 -492q32 -78 73 -132l-65 -95q-55 54 -96.5 133.5t-69 185.5t-42.5 187t-35 206q-4 27 -6 40z" />
    <glyph glyph-name="uni066A" unicode="&#x66a;" horiz-adv-x="1217" 
d="M285 1182l-147 147l146 145l147 -147zM916 62l-147 147l146 145l147 -147zM241 39q31 83 136 361.5t163 430.5l264 698h136q-53 -137 -147 -387t-133 -351l-285 -752h-134z" />
    <glyph glyph-name="uni066B" unicode="&#x66b;" horiz-adv-x="569" 
d="M483 928h122l-537 -1064h-123z" />
    <glyph glyph-name="uni066C" unicode="&#x66c;" horiz-adv-x="456" 
d="M345 -227q-3 -58 -39.5 -94t-95.5 -39h-6q-80 0 -119.5 57t-39.5 147v17q0 251 305 410q28 -54 41 -77q-248 -117 -248 -294q0 -10 2 -30q35 28 82 28q54 0 85 -34t33 -91z" />
    <glyph glyph-name="uni066D" unicode="&#x66d;" horiz-adv-x="965" 
d="M481 1043l83 -289l158 5l143 4l-250 -167l74 -205q5 -13 15 -40t15 -40l-240 188l-235 -186l102 283l-253 169l306 -11z" />
    <glyph glyph-name="uni066E" unicode="&#x66e;" horiz-adv-x="1982" 
d="M994 158q223 0 422.5 48t356.5 134q-19 200 -166 435l99 64q126 -198 168 -391q11 -50 11 -90q0 -38 -23 -72q-24 -35 -73 -68h1q-206 -119 -592 -166q-100 -12 -185 -12h-19q-334 3 -561 81q-63 27 -111 57t-92.5 73.5t-68.5 104t-24 134.5q0 144 99 308q14 -10 93 -71
l-2 -2t-1 -2q0 -3 -17 -37l-28 -60q-29 -73 -29 -135q0 -72 30 -117.5t88 -83.5q199 -132 624 -132z" />
    <glyph glyph-name="uni066F" unicode="&#x66f;" horiz-adv-x="1581" 
d="M1257 156q31 0 65 4q-6 154 -51.5 277.5t-126.5 196.5q-57 51 -115 51h-2q-86 -8 -151 -131q-55 -104 -55 -199q0 -75 36 -113.5t105 -62.5q64 -23 168 -23q10 0 28 -0.5t26 -0.5q4 0 15.5 0.5t18.5 0.5h39zM245 -2q0 -230 145.5 -355t389.5 -125h19q196 0 341 158
q130 141 176 362l-252 3q-94 8 -170.5 41t-121.5 86q-61 79 -61 183q0 185 117 340q85 113 201 113q123 0 231 -117v1q83 -91 130 -225.5t47 -296.5q0 -33 -4 -93q1 -1 -1 -31q-3 -58 -40 -180q-33 -108 -102 -203t-151 -151q-155 -107 -374 -107q-194 0 -329 72
q-152 73 -225 206q-85 137 -85 318q0 125 44 273q33 112 89 222l105 -56q-119 -235 -119 -438z" />
    <glyph glyph-name="uni0670" unicode="&#x670;" 
d="M83 1457q15 -85 15 -170q0 -88 -16 -168l-65 20q13 63 13 133q0 89 -14 164z" />
    <glyph glyph-name="uni06AA" unicode="&#x6aa;" horiz-adv-x="2461" 
d="M1385 1193q3 -14 30 -111q-418 -123 -622 -315q-32 -30 -52.5 -52.5t-40 -59.5t-21.5 -73q27 -17 129 -35q133 -22 311 -22q193 0 309 11q33 3 122.5 13.5t159.5 16.5t135 6q181 0 275 -53q121 -76 190 -197q45 -79 62 -123l-59 -99q-854 -82 -1541 -82q-418 0 -694 39
l19 113q285 -37 677 -37q596 0 1312 62q91 8 145 12q-2 4 -19 53q-40 71 -84.5 112.5t-113.5 63.5t-171 22q-201 0 -365 -28q-122 -21 -292 -21q-279 0 -417 31q-71 17 -113 42h1q-69 44 -69 112v12q0 131 130 252q107 100 290 189t377 146z" />
    <glyph glyph-name="uni06C2" unicode="&#x6c2;" horiz-adv-x="1264" 
d="M1332 98q0 -24 -17 -41t-41 -17q-104 0 -177.5 43.5t-142.5 120.5q-20 22 -72.5 82t-81.5 92q-81 86 -155 118q-42 18 -90 18q-106 0 -189 -76q-117 -110 -190 -374l-112 30q82 311 234 443q109 93 257 93q101 0 177 -44t142 -118q17 -19 66.5 -77t86 -96t74.5 -69
q88 -70 173 -70q24 0 41 -17t17 -41zM108 986q0 95 66.5 153.5t164.5 58.5q44 0 82 -10l38 -9l-28 -92l-27 6q-2 0 -26.5 3.5t-38.5 3.5q-35 0 -62 -12v2q-29 -12 -50 -41t-21 -63q0 -14 8 -36l-1 1q15 -36 48.5 -59t79.5 -23q26 0 55.5 10.5t40.5 17t42 25.5q20 11 43 29
l59 -78q-21 -15 -41.5 -28.5t-50.5 -31t-42.5 -24.5t-56 -30.5t-51.5 -27.5l-227 -126l-48 87l179 100q-57 23 -96 74.5t-39 119.5z" />
    <glyph glyph-name="uni06C3" unicode="&#x6c3;" horiz-adv-x="1433" 
d="M1494 98q0 -24 -17 -41t-41 -17q-104 0 -177.5 43.5t-142.5 120.5q-20 22 -72.5 82t-81.5 92q-81 86 -155 118q-42 18 -90 18q-106 0 -189 -76q-117 -110 -190 -374l-112 30q82 311 234 443q108 93 257 93q101 0 177 -44t142 -118q17 -19 66.5 -77t86 -96t74.5 -69
q88 -70 173 -70q24 0 41 -17t17 -41zM851 776l-134 134l132 132l133 -134zM495 778l-134 133l132 133l134 -134z" />
    <glyph glyph-name="uni06D4" unicode="&#x6d4;" horiz-adv-x="657" 
d="M671 158v-118h-681v118h681z" />
    <glyph glyph-name="uni06D5" unicode="&#x6d5;" horiz-adv-x="983" 
d="M489 762q-170 -152 -241 -305q-27 -59 -27 -113q0 -104 111 -158q62 -31 153 -31q3 0 12 0.5t16 0.5q67 0 121 24.5t87 64.5q29 35 29 93q0 71 -68 178q-69 108 -193 246zM485 36q-105 0 -192.5 41.5t-130.5 107.5q-43 67 -43 158q0 78 41 169q42 93 112 182
q70 78 148 148l-77 74l80 80q21 -18 41.5 -38t53 -54.5t39.5 -42.5q146 -153 228 -306q68 -126 68 -212q0 -151 -101 -229t-267 -78z" />
    <glyph glyph-name="uni06F0" unicode="&#x6f0;" horiz-adv-x="952" 
d="M257 503q0 -68 36.5 -118.5t91.5 -74.5q36 -16 81 -16q69 0 119.5 36.5t74.5 91.5q16 36 16 81q0 69 -36 119t-92 74q-40 17 -82 17q-70 0 -119 -36t-73 -93q-17 -40 -17 -81zM145 503q0 106 54.5 182t140.5 113q60 26 124 26q104 0 181.5 -56t114.5 -141q25 -57 25 -124
q0 -105 -55.5 -180.5t-141.5 -113.5q-57 -25 -124 -25q-105 0 -181 55t-113 140q-25 57 -25 124z" />
    </font>
</defs>
</svg>
