<?xml version="1.0" encoding="utf-8"?>
<!-- Generator: Adobe Illustrator 22.0.1, SVG Export Plug-In . SVG Version: 6.00 Build 0)  -->
<svg version="1.1" id="Layer_1" xmlns="http://www.w3.org/2000/svg" xmlns:xlink="http://www.w3.org/1999/xlink" x="0px" y="0px"
	 viewBox="0 0 500 300" style="enable-background:new 0 0 500 300;" xml:space="preserve">
<style type="text/css">
	.st0{fill:#fff;}
	.st1{fill:#fff;}
</style>
<g>
	<g>
		<g>
			<path class="st0" d="M215.3,20.9h-30.1V49v30.1v47.4c2.9,33.2,29.2,59.2,61.3,59.2V154c-10.1,0-19.1-5-24.9-12.8
				c-4.3-5.8-6.3-12.9-6.3-20.1v-42h31.2V49h-31.2V20.9z"/>
			<path class="st1" d="M284.7,126.5C282,142.1,269,154,253.5,154v31.6c32.1,0,58.4-26,61.3-59.2H284.7z"/>
		</g>
		
			<rect x="275.2" y="74.3" transform="matrix(-1.836970e-16 1 -1 -1.836970e-16 389.0834 -179.1253)" class="st1" width="17.8" height="61.3"/>
		
			<rect x="279.1" y="53.6" transform="matrix(-1.836970e-16 1 -1 -1.836970e-16 368.3248 -199.8839)" class="st1" width="10" height="61.3"/>
	</g>
	<g>
		<polygon class="st0" points="67.3,261.7 64,258.4 60.7,261.8 64,265.1 67.3,261.9 70.5,265.1 73.8,261.8 70.5,258.5 		"/>
		
			<rect x="77.9" y="259.7" transform="matrix(0.7072 -0.707 0.707 0.7072 -161.9363 133.7955)" class="st0" width="5.4" height="5.4"/>
		<path class="st0" d="M86.3,244.1c-0.3-0.8-0.5-1.7-0.9-2.5s-0.6-1.6-1-2.3l-4.9,2.4c0.3,0.7,0.7,1.4,1,2.1
			c0.3,0.7,0.6,1.4,0.9,2.1s0.5,1.3,0.6,1.8c0.2,0.5,0.2,1,0.2,1.2c0,0.4-0.2,0.8-0.5,1.1c-0.3,0.3-0.8,0.5-1.3,0.7
			c-0.5,0.2-1,0.3-1.6,0.4c-0.6,0.1-1.1,0.1-1.6,0.1h-1.6h-0.4c-0.5,0-0.9-0.1-1.2-0.3c-0.3-0.2-0.5-0.5-0.7-0.8
			c-0.2-0.3-0.3-0.6-0.4-1s-0.1-0.7-0.2-1c-0.1-0.5-0.1-0.9-0.2-1.3c-0.1-0.4-0.1-0.8-0.2-1.2c-0.1-0.4-0.2-0.8-0.3-1.2
			s-0.2-0.9-0.4-1.4l-5,1.4c0.1,0.4,0.2,0.9,0.3,1.4c0.1,0.5,0.2,1,0.3,1.4c0.1,0.5,0,0.9,0,1.4c-0.1,0.4-0.2,0.9-0.5,1.2
			c-0.2,0.3-0.5,0.5-0.8,0.7c-0.3,0.2-0.7,0.3-1.2,0.5s-1.1,0.2-1.7,0.2s-1.4,0.1-2.2,0.1h-0.6H45.4h-0.7H29.8h-0.4
			c-0.4,0-0.7-0.1-1.1-0.3c-0.4-0.2-0.7-0.6-1.1-1.2s-0.8-1.3-1.2-2.2c-0.4-0.9-0.9-2.1-1.3-3.4l-5,2.2c0.3,0.7,0.6,1.4,0.9,2.2
			c0.3,0.8,0.6,1.6,0.9,2.4s0.5,1.5,0.7,2.2c0.2,0.7,0.3,1.3,0.3,1.7c0,0.7-0.1,1.3-0.4,2s-0.7,1.3-1.1,1.9c-0.5,0.6-1,1.2-1.7,1.8
			c-0.6,0.6-1.3,1.2-2.1,1.7c-0.8,0.5-1.5,1.1-2.4,1.6s-1.6,0.9-2.5,1.4l3.2,4.4c1.5-0.7,2.9-1.6,4.2-2.5c1.3-0.9,2.5-2,3.5-3.1
			c1-1.1,1.9-2.3,2.6-3.6c0.7-1.3,1.2-2.6,1.4-4.1c0.5,0.2,1,0.3,1.4,0.4c0.3,0,0.5,0,0.7,0v0h0.3h0.3h14.9h0.7h14.9H61H61v0
			c0.8,0,1.6,0,2.4-0.1c0.8,0,1.6-0.1,2.4-0.3s1.5-0.3,2.2-0.6c0.7-0.2,1.3-0.6,1.9-1c0.3,0.3,0.6,0.5,1,0.7
			c0.4,0.2,0.8,0.4,1.3,0.6c0.5,0.2,1,0.3,1.5,0.4c0.4,0.1,0.9,0.1,1.3,0.1v0h0.3h0.4h2c1.4,0,2.6-0.1,3.8-0.4
			c1.1-0.3,2.1-0.8,3-1.4c0.8-0.6,1.5-1.4,1.9-2.4s0.7-2.2,0.7-3.5c0-0.8-0.1-1.6-0.2-2.4C86.7,245.8,86.5,244.9,86.3,244.1z"/>
		<path class="st0" d="M125.4,244.1c-0.3-0.8-0.5-1.7-0.9-2.5c-0.3-0.8-0.6-1.6-1-2.3l-4.9,2.4c0.3,0.7,0.7,1.4,1,2.1
			c0.3,0.7,0.6,1.4,0.9,2.1c0.3,0.7,0.5,1.3,0.7,1.8c0.2,0.5,0.2,1,0.2,1.2c0,0.5-0.2,0.9-0.5,1.2c-0.4,0.3-0.8,0.6-1.3,0.7
			c-0.5,0.2-1.1,0.3-1.7,0.3c-0.6,0.1-1.1,0.1-1.6,0.1h-3.4h-0.5c-0.5,0-0.9-0.1-1.3-0.2s-0.6-0.3-0.8-0.6c-0.2-0.3-0.4-0.6-0.6-0.9
			s-0.4-0.8-0.6-1.3l-5.7-13.7l-5,2.1c0.4,1,0.9,2.1,1.4,3.3c0.5,1.1,1,2.3,1.5,3.4c0.5,1.2,1,2.3,1.5,3.4c0.5,1.1,1,2.2,1.4,3.3
			c-0.2,0.2-0.5,0.4-0.8,0.5s-0.6,0.3-1,0.3c-0.4,0.1-0.7,0.2-1.1,0.2c-0.4,0-0.7,0.1-1,0.1c-0.4,0-0.8,0-1.2-0.1
			c-0.4-0.1-0.9-0.2-1.4-0.4c-0.5-0.2-1-0.4-1.5-0.8c-0.5-0.3-1.1-0.7-1.6-1.3l-3.1,4.4c1.2,1.3,2.6,2.2,4,2.8
			c1.4,0.6,2.9,0.9,4.4,0.9c0.7,0,1.4,0,2-0.1c0.6-0.1,1.2-0.2,1.8-0.3c0.6-0.1,1.1-0.3,1.7-0.6c0.5-0.2,1.1-0.5,1.6-0.9
			c0.3,0.3,0.6,0.5,0.9,0.8s0.7,0.4,1.1,0.6c0.4,0.2,0.9,0.3,1.4,0.4c0.5,0.1,1,0.1,1.7,0.1v0h0.2h0.5h3.4c1.4,0,2.7-0.1,3.9-0.4
			c1.2-0.3,2.3-0.7,3.2-1.4c0.9-0.6,1.6-1.4,2.1-2.4c0.5-1,0.8-2.2,0.8-3.6c0-0.8-0.1-1.6-0.2-2.4
			C125.8,245.8,125.6,244.9,125.4,244.1z"/>
		<polygon class="st0" points="120.2,233.5 116.9,230.2 113.6,233.5 117,236.8 120.2,233.6 123.5,236.9 126.8,233.6 123.4,230.2 		
			"/>
		<path class="st0" d="M160.2,255.2c-0.6-0.4-1.3-0.7-2.1-1c-0.8-0.2-1.6-0.5-2.5-0.7c-0.4-0.1-0.9-0.2-1.3-0.3
			c-0.4-0.1-0.8-0.2-1.2-0.4c-0.3-0.1-0.6-0.3-0.8-0.5c-0.2-0.2-0.3-0.5-0.3-0.8c0.1-0.8,0.4-1.5,0.9-2.2c0.5-0.7,1-1.3,1.7-1.8
			s1.3-0.9,2.1-1.2s1.5-0.5,2.2-0.5c0.4,0,0.9,0.1,1.4,0.2s1,0.3,1.6,0.6l1.9-5c-0.8-0.4-1.6-0.8-2.5-1s-1.6-0.3-2.4-0.3
			c-1,0-2,0.2-3,0.5c-1,0.3-1.9,0.7-2.7,1.3c-0.8,0.5-1.6,1.2-2.3,1.9c-0.7,0.7-1.3,1.5-1.8,2.4c-0.5,0.9-0.9,1.8-1.2,2.7
			c-0.3,1-0.5,1.9-0.5,2.9c-0.1,1,0,1.9,0.3,2.6s0.7,1.4,1.2,1.9c0.5,0.5,1.1,1,1.8,1.3s1.5,0.7,2.2,0.9s1.6,0.5,2.4,0.6
			s1.6,0.3,2.3,0.5c-0.1,0.4-0.4,0.9-1,1.3c-0.6,0.4-1.4,0.8-2.3,1.1s-2.1,0.6-3.3,0.8c-1.3,0.2-2.6,0.3-4.1,0.3
			c-1.1,0-2.2-0.1-3.2-0.3c-1-0.2-1.9-0.5-2.7-1s-1.4-1.1-1.9-1.9c-0.5-0.8-0.7-1.8-0.7-3c0-0.8,0.1-1.7,0.2-2.5
			c0.1-0.8,0.3-1.6,0.5-2.4s0.5-1.6,0.7-2.3c0.3-0.8,0.6-1.5,0.9-2.3l-4.3-1.8c0,0.1-0.2,0.4-0.4,1c-0.2,0.6-0.5,1.3-0.8,2.2
			c-0.3,0.9-0.6,1.9-0.8,3.1s-0.4,2.3-0.5,3.6c0,0.3,0,0.5-0.1,0.8c0,0.3,0,0.6,0,0.9c0,1.9,0.3,3.5,1,5c0.7,1.4,1.6,2.6,2.7,3.6
			s2.6,1.7,4.2,2.2c1.6,0.5,3.4,0.7,5.3,0.7c1,0,2.2-0.1,3.3-0.2s2.3-0.4,3.5-0.7c1.1-0.3,2.2-0.7,3.3-1.2c1-0.5,2-1.1,2.7-1.8
			c0.8-0.7,1.4-1.6,1.9-2.5c0.5-0.9,0.7-2,0.7-3.2c0-1-0.2-1.8-0.6-2.5S160.8,255.6,160.2,255.2z"/>
		<path class="st0" d="M181.5,247.7c-0.3-1.2-0.8-2.3-1.5-3.5s-1.5-2.3-2.4-3.4c-0.9-1.1-1.9-2.1-3-3.1c-1.1-1-2.2-1.8-3.3-2.6
			l-3,4.5c0.6,0.4,1.2,0.8,1.8,1.3c0.7,0.5,1.3,1,2,1.6c0.7,0.6,1.3,1.2,1.9,1.8c0.6,0.6,1.2,1.2,1.7,1.9c0.5,0.6,0.9,1.2,1.1,1.8
			c0.3,0.6,0.4,1.1,0.4,1.5c0,0.4-0.2,0.7-0.5,0.9c-0.3,0.2-0.7,0.4-1.2,0.6s-0.9,0.2-1.4,0.3s-0.8,0.1-1.1,0.1
			c-0.5,0-1-0.1-1.7-0.2c-0.6-0.2-1.3-0.4-2-0.6c-0.7-0.3-1.3-0.5-2-0.9c-0.6-0.3-1.2-0.6-1.7-0.9l-2.3,5.2c0.7,0.4,1.4,0.8,2.1,1.2
			c0.8,0.4,1.5,0.7,2.4,1c0.8,0.3,1.6,0.5,2.5,0.7c0.8,0.2,1.6,0.3,2.4,0.3c0.1,0,0.2,0,0.3,0s0.2,0,0.3,0c1.2,0,2.4-0.2,3.4-0.5
			s1.9-0.9,2.7-1.5c0.7-0.6,1.3-1.4,1.7-2.3c0.4-0.9,0.6-1.9,0.6-2.9c0-0.3,0-0.6-0.1-1C181.6,248.4,181.5,248.1,181.5,247.7z"/>
		<polygon class="st0" points="248.6,236.3 251.9,239.6 255.2,236.2 251.9,232.9 248.6,236.2 245.4,232.9 242.1,236.2 245.4,239.5 
					"/>
		<polygon class="st0" points="262.9,230.4 266.2,233.6 269.5,230.3 266.1,227 262.9,230.2 259.6,227 256.3,230.3 259.7,233.6 		"/>
		<path class="st0" d="M270.2,241.8c-0.3-0.9-0.7-1.7-1.1-2.5c-0.5-0.8-1-1.5-1.6-2.1c-0.6-0.6-1.3-1.1-2-1.4
			c-0.8-0.3-1.6-0.5-2.5-0.5c-0.7,0-1.4,0.1-2,0.4c-0.6,0.3-1.2,0.6-1.7,1c-0.5,0.4-0.9,0.9-1.3,1.5c-0.4,0.6-0.7,1.2-1,1.8
			s-0.5,1.3-0.6,2c-0.1,0.7-0.2,1.3-0.2,2c0,1.4,0.3,2.5,0.8,3.3c0.5,0.8,1.2,1.4,2.1,1.9s2,0.7,3.3,0.7c1.3,0.1,2.6,0,4.1-0.1
			c-0.3,0.3-0.8,0.5-1.3,0.6c-0.5,0.2-1.1,0.3-1.8,0.4c-0.6,0.1-1.3,0.2-2,0.3c-0.7,0.1-1.4,0.1-2.1,0.1c-0.7,0-1.3,0-1.9,0.1
			c-0.6,0-1.1,0-1.5,0h-0.3c-0.5,0-0.9-0.1-1.2-0.3c-0.3-0.2-0.5-0.5-0.7-0.8c-0.2-0.3-0.3-0.6-0.4-1s-0.1-0.7-0.2-1
			c-0.1-0.5-0.1-0.9-0.2-1.3c-0.1-0.4-0.1-0.8-0.2-1.2c-0.1-0.4-0.2-0.8-0.3-1.2s-0.2-0.9-0.4-1.4l-5,1.4c0.1,0.4,0.2,0.9,0.3,1.4
			c0.1,0.5,0.2,1,0.3,1.4c0.1,0.5,0,0.9,0,1.4c-0.1,0.4-0.2,0.9-0.5,1.2c-0.2,0.3-0.5,0.5-0.8,0.7c-0.3,0.2-0.7,0.3-1.2,0.5
			s-1.1,0.2-1.7,0.2s-1.4,0.1-2.2,0.1h-0.6h-1.8c0.3-0.5,0.5-1.1,0.7-1.7c0.2-0.6,0.3-1.3,0.3-2c0-1-0.1-2-0.4-2.9
			c-0.3-1-0.9-1.9-1.6-2.6c-0.7-0.8-1.6-1.4-2.7-1.9s-2.3-0.7-3.7-0.7c-1.2,0-2.3,0.1-3.3,0.4c-1,0.3-2,0.6-2.8,1.1
			c-0.9,0.4-1.6,1-2.4,1.6c-0.7,0.6-1.4,1.3-2,2c-0.6,0.7-1.2,1.5-1.7,2.2c-0.5,0.8-1,1.6-1.5,2.4c-0.2-0.4-0.3-0.8-0.3-1.2
			c0-0.4,0-0.8,0-1.1c0-0.4,0.1-0.8,0.2-1.2c0.1-0.4,0.2-0.8,0.3-1.2l-4.5-1.5c-0.3,1.2-0.5,2.2-0.8,3c-0.2,0.8-0.4,1.5-0.6,2
			s-0.4,1-0.5,1.3c-0.2,0.3-0.3,0.6-0.5,0.8l0,0c-0.1,0.1-0.2,0.3-0.4,0.4c-0.2,0.1-0.4,0.3-0.6,0.4s-0.6,0.2-1,0.3
			c-0.4,0.1-0.9,0.1-1.4,0.1h-0.3h-14.9h-0.5c-0.3,0-0.6,0-0.8,0c-0.2,0-0.5-0.1-0.7-0.1c-0.2-0.1-0.4-0.2-0.5-0.3
			c-0.2-0.1-0.3-0.3-0.4-0.6c-0.2-0.4-0.3-0.9-0.3-1.6c0-0.7,0-1.5,0-2.4c0-0.9,0.1-1.8,0.1-2.7c0-0.9,0.1-1.9,0-2.7
			c0-1,0-2-0.1-3.2s-0.1-2.3-0.1-3.4c-0.1-1.1-0.1-2.2-0.2-3.2c-0.1-1-0.2-1.9-0.4-2.7l-5.1,1.6c0.2,0.9,0.3,1.9,0.4,3.1
			c0.1,1.2,0.2,2.4,0.2,3.7c0.1,1.3,0.1,2.6,0.1,3.9c0,1.3,0,2.5,0,3.6c0,1.1,0,2,0,2.9s0,1.5,0,2.1c0,1.1,0.1,2.1,0.4,3
			c0.3,0.9,0.7,1.7,1.4,2.4c0.6,0.7,1.4,1.2,2.4,1.6c0.9,0.4,2.1,0.6,3.4,0.6v0h0.2h0.5h14.9h0.5h0.2v0c1.4,0,2.7-0.2,3.8-0.6
			c1.1-0.4,2.1-1,2.9-1.8c0.7,0.6,1.4,1.1,2.1,1.4c0.7,0.4,1.4,0.6,2.2,0.8c0.8,0.2,1.6,0.3,2.5,0.4s1.9,0.1,3,0.1
			c1.1,0,2.2-0.1,3.3-0.2c1.1-0.1,2.3-0.3,3.4-0.6c0.3,0.1,0.5,0.2,0.8,0.2c0.3,0.1,0.6,0.1,1,0.1s0.8,0,1.3,0.1c0.5,0,1,0,1.6,0
			h4.7h0.6h0.1v0c0.8,0,1.6,0,2.4-0.1c0.8,0,1.6-0.1,2.4-0.3s1.5-0.3,2.2-0.6c0.7-0.2,1.3-0.6,1.9-1c0.3,0.3,0.6,0.5,1,0.7
			c0.4,0.2,0.8,0.4,1.3,0.6c0.5,0.2,1,0.3,1.5,0.4c0.4,0.1,0.9,0.1,1.3,0.1v0h0.3h0.3h0.1v0c1.3,0,2.6,0,3.8-0.1
			c1.3-0.1,2.5-0.3,3.6-0.5c1.1-0.3,2.2-0.6,3.1-1.1c0.9-0.5,1.8-1.1,2.5-1.8c0.7-0.7,1.2-1.6,1.6-2.6c0.4-1,0.6-2.2,0.6-3.6
			c0-0.8-0.1-1.7-0.2-2.6C270.7,243.5,270.5,242.7,270.2,241.8z M265.2,245.5c-0.4,0-0.7,0-1.1,0c-0.4,0-0.8,0-1.2-0.1
			c-0.4-0.1-0.8-0.1-1.1-0.3s-0.6-0.3-0.8-0.5c-0.2-0.2-0.3-0.5-0.3-0.8c0-0.4,0.1-0.7,0.2-1.1s0.3-0.7,0.6-0.9
			c0.2-0.3,0.5-0.5,0.8-0.7c0.3-0.2,0.6-0.2,0.8-0.2c0.4,0,0.8,0.2,1.2,0.5s0.6,0.6,0.9,1.1c0.3,0.4,0.5,0.9,0.6,1.4
			s0.3,1.1,0.4,1.6C265.9,245.4,265.6,245.4,265.2,245.5z M234.8,248.9c-0.4,0.4-0.9,0.8-1.4,1.1s-1.2,0.6-1.9,0.7
			c-0.7,0.2-1.4,0.3-2.1,0.5c-0.7,0.1-1.5,0.2-2.3,0.2c-0.8,0-1.5,0.1-2.2,0.1c-0.5,0-1.1,0-1.6,0c-0.6,0-1.1,0-1.5-0.1
			c0.2-0.4,0.5-0.9,0.9-1.3c0.4-0.5,0.8-0.9,1.2-1.4c0.5-0.5,1-0.9,1.6-1.4c0.6-0.4,1.2-0.8,1.8-1.2c0.6-0.3,1.3-0.6,2-0.8
			c0.7-0.2,1.4-0.3,2.2-0.3c1.2,0,2.2,0.2,2.9,0.6c0.7,0.4,1.2,1,1.3,1.8C235.5,248,235.2,248.5,234.8,248.9z"/>
		<path class="st0" d="M278.7,237.5c-0.1-1.4-0.2-2.9-0.4-4.5c-0.2-1.6-0.4-3.1-0.6-4.7l-5.3,1.8c0.1,0.6,0.2,1.1,0.3,1.6
			c0.1,0.5,0.2,1.1,0.2,1.7c0.1,0.6,0.1,1.3,0.2,2s0.1,1.6,0.2,2.5c0.1,1,0.1,2,0.2,3.3c0.1,1.2,0.1,2.7,0.2,4.3c0,0.8,0,1.6,0,2.6
			c0,0.9,0,1.9-0.1,2.9s-0.1,2-0.1,3c-0.1,1-0.1,2-0.2,2.9l5.3-0.8c0.1-1,0.1-2,0.2-3c0-1,0.1-2,0.1-3c0-1,0-1.9,0-2.9s0-1.8,0-2.6
			c0-0.9,0-1.9,0-3.2C278.9,240.3,278.8,238.9,278.7,237.5z"/>
		<path class="st0" d="M367.8,245.2c-0.2-0.7-0.4-1.4-0.6-2.1c-0.2-0.7-0.5-1.3-0.7-1.8c-0.2-0.5-0.4-1-0.6-1.3l-0.4-0.8l-4.3,2.4
			c0.2,0.4,0.5,1,0.8,1.6c0.3,0.6,0.6,1.3,0.9,2c0.3,0.7,0.5,1.4,0.7,2.1s0.3,1.4,0.3,2c0,0.3-0.1,0.7-0.3,0.9
			c-0.2,0.3-0.4,0.5-0.6,0.7c-0.3,0.2-0.6,0.4-0.9,0.5c-0.3,0.1-0.7,0.2-1,0.2c-0.5,0-0.9-0.1-1.2-0.4c-0.3-0.3-0.5-0.6-0.6-1.1
			c-0.1-0.4-0.2-0.9-0.2-1.5s0-1.1,0.1-1.7c0.1-0.6,0.1-1.1,0.2-1.6s0.1-0.9,0.1-1.3l-4.4-0.7c-0.1,0.5-0.2,1-0.3,1.6
			c-0.1,0.6-0.2,1.2-0.4,1.8c-0.2,0.6-0.4,1.2-0.6,1.7c-0.2,0.6-0.5,1.1-0.8,1.5c-0.3,0.4-0.6,0.8-1,1.1c-0.4,0.3-0.8,0.4-1.2,0.5
			c-0.4,0.1-0.6,0-0.8-0.3c-0.2-0.2-0.3-0.6-0.3-1c0-0.4,0-0.9,0-1.4s0.2-1.1,0.3-1.7s0.2-1.1,0.4-1.7c0.1-0.5,0.2-1,0.3-1.4
			l-4.6-0.8c-0.3,1-0.5,2-0.8,3c-0.3,1-0.6,1.8-1.1,2.6c-0.4,0.8-0.9,1.4-1.5,1.8c-0.6,0.5-1.3,0.7-2.2,0.7h-0.3h-14.9h-0.6
			c-0.7,0-1.4,0-1.9-0.1c-0.6-0.1-1.2-0.1-1.8-0.3c0.5-0.5,1-1.1,1.4-1.7s0.8-1.2,1.2-1.9c0.3-0.6,0.6-1.3,0.7-1.9
			c0.2-0.6,0.2-1.2,0.2-1.7c0-0.3-0.1-0.6-0.2-0.9s-0.3-0.7-0.6-1.1c-0.3-0.4-0.6-0.8-1.1-1.2c-0.4-0.4-1-0.7-1.7-1.1
			c-0.8-0.3-1.6-0.6-2.6-0.8c-0.9-0.2-1.9-0.3-2.8-0.3c-0.3,0-0.6,0-0.8,0s-0.6,0-0.8,0.1c-0.5,0.1-1.1,0.2-1.7,0.3
			c-0.6,0.1-1.3,0.4-2,0.6c-0.7,0.3-1.4,0.6-2.1,1c-0.7,0.4-1.4,0.9-2.1,1.5l-0.3,4c0.5,0.4,0.9,0.9,1.3,1.2
			c0.4,0.4,0.8,0.8,1.2,1.2c0.4,0.4,0.7,0.8,1.1,1.1c0.4,0.4,0.7,0.7,1.1,1.1c-0.8,0.2-1.6,0.3-2.4,0.4c-0.8,0.1-1.6,0.1-2.4,0.1
			h-0.3c-0.6,0-1-0.1-1.4-0.2s-0.6-0.4-0.8-0.8c0,0-0.1-0.4-0.2-1.2c-0.1-0.7-0.2-1.7-0.4-3s-0.4-2.8-0.6-4.6
			c-0.2-1.8-0.4-3.8-0.7-5.9l-5.4,1.2c0,0.4,0.1,0.7,0.1,1c0,0.3,0,0.5,0.1,0.7c0,0.2,0,0.4,0,0.5c0,0.1,0,0.3,0,0.4
			c-0.4,0.1-0.9,0.4-1.5,0.6c-0.6,0.3-1.2,0.6-1.8,1c-0.6,0.4-1.2,0.9-1.8,1.4s-1.1,1.1-1.6,1.7c-0.5,0.6-0.9,1.3-1.2,2
			c-0.3,0.7-0.4,1.5-0.4,2.2c0,1,0.2,1.9,0.6,2.7c0.4,0.7,1,1.4,1.7,1.8c0.7,0.5,1.6,0.8,2.6,1.1c1,0.2,2,0.3,3.2,0.3
			c0.5,0,1,0,1.6-0.1c0.5,0,1.1-0.1,1.7-0.2c0.3,0.4,0.7,0.8,1,1.1c0.4,0.3,0.8,0.6,1.3,0.8c0.7,0.3,1.3,0.5,2,0.6
			c0.6,0.1,1,0.1,1.5,0.1v0h0.2h0.5h0v0c0.8,0,1.7,0,2.5-0.1c0.9-0.1,1.8-0.2,2.7-0.4c0.9-0.2,1.7-0.4,2.5-0.7s1.6-0.6,2.2-1
			c0.6,0.5,1.3,0.9,1.9,1.1c0.7,0.3,1.4,0.5,2.2,0.7c0.8,0.2,1.6,0.3,2.4,0.3c0.8,0.1,1.7,0.1,2.6,0.1l0.6,0h14.9h0.6h0.1v0
			c0.7,0,1.3-0.1,1.9-0.2c0.6-0.1,1.1-0.3,1.5-0.5c0.4-0.2,0.8-0.4,1.1-0.7s0.6-0.5,0.8-0.8c0.3,0.4,0.5,0.7,0.9,1
			c0.3,0.3,0.6,0.5,1,0.7c0.4,0.2,0.8,0.4,1.2,0.5c0.5,0.1,1,0.2,1.5,0.1c0.6,0,1.2-0.1,1.7-0.2c0.5-0.1,1-0.3,1.4-0.5
			c0.4-0.2,0.8-0.4,1.1-0.7c0.3-0.3,0.6-0.6,0.9-1c0.2,0.3,0.5,0.6,0.8,0.9c0.3,0.3,0.7,0.5,1.1,0.7c0.4,0.2,0.9,0.4,1.4,0.5
			c0.5,0.1,1.1,0.2,1.7,0.2c1.3,0,2.4-0.2,3.4-0.6c1-0.4,1.8-0.9,2.4-1.5c0.6-0.6,1.1-1.4,1.4-2.3c0.3-0.9,0.5-2,0.5-3.1
			c0-0.7-0.1-1.4-0.2-2.2S368,245.9,367.8,245.2z M296.4,249c-0.3,0-0.5,0-0.7,0c-0.3,0-0.7,0-1.2,0c-0.4,0-0.8-0.1-1.2-0.1
			s-0.7-0.1-1-0.2s-0.4-0.2-0.4-0.4c0-0.3,0.2-0.6,0.5-1c0.3-0.4,0.7-0.7,1.2-1c0.5-0.3,1-0.7,1.5-1c0.5-0.3,1-0.6,1.5-0.8
			c0.1,0.7,0.1,1.3,0.2,1.7c0.1,0.5,0.1,0.9,0.1,1.2c0,0.3,0.1,0.6,0.1,0.9c0,0.2,0.1,0.5,0.1,0.6
			C296.9,248.9,296.7,248.9,296.4,249z M319,245.6c-0.3,0.4-0.7,0.8-1.1,1.1c-0.4,0.4-0.8,0.8-1.3,1.1c-0.4,0.4-0.8,0.7-1.1,0.9
			l-4.7-4c0.3-0.1,0.7-0.2,1.1-0.3c0.4-0.1,0.9-0.2,1.3-0.2s0.9-0.1,1.3-0.2c0.4,0,0.8-0.1,1.1-0.1c0.3,0,0.7,0,1,0
			c0.4,0,0.8,0.1,1.1,0.1c0.4,0.1,0.8,0.1,1.1,0.2c0.4,0.1,0.7,0.2,0.9,0.3C319.6,244.8,319.4,245.2,319,245.6z"/>
		<polygon class="st0" points="393.7,233.5 390.4,230.2 387.1,233.5 390.4,236.8 393.7,233.6 396.9,236.9 400.2,233.6 396.9,230.2 
					"/>
		<path class="st0" d="M398.8,244.1c-0.3-0.8-0.5-1.7-0.9-2.5c-0.3-0.8-0.6-1.6-1-2.3l-4.9,2.4c0.3,0.7,0.7,1.4,1,2.1
			c0.3,0.7,0.6,1.4,0.9,2.1c0.3,0.7,0.5,1.3,0.7,1.8c0.2,0.5,0.2,1,0.2,1.2c0,0.5-0.2,0.9-0.5,1.2c-0.4,0.3-0.8,0.6-1.3,0.7
			c-0.5,0.2-1.1,0.3-1.7,0.3c-0.6,0.1-1.1,0.1-1.6,0.1h-3.4h-0.7h-0.1c-0.1-0.9-0.2-1.7-0.5-2.6c-0.2-0.9-0.5-1.8-0.9-2.6
			c-0.4-0.8-0.8-1.6-1.2-2.3c-0.5-0.7-1-1.4-1.6-1.9c-0.6-0.5-1.3-1-2-1.3c-0.7-0.3-1.5-0.5-2.4-0.5c-0.7,0-1.4,0.1-2.1,0.4
			c-0.6,0.3-1.2,0.6-1.7,1.1c-0.5,0.5-1,1-1.4,1.6s-0.8,1.3-1.1,2c-0.3,0.7-0.5,1.4-0.6,2.2c-0.1,0.7-0.2,1.5-0.2,2.2
			c0,1.1,0.2,2.1,0.6,2.9c0.4,0.9,0.9,1.6,1.6,2.2c0.7,0.6,1.5,1.1,2.4,1.4c0.9,0.3,2,0.6,3.1,0.6c0.4,0,0.8,0,1.4,0.1
			c0.6,0,1.1,0,1.6,0c-0.3,0.7-0.7,1.4-1.4,2.1c-0.7,0.7-1.5,1.3-2.5,1.9c-1,0.6-2.2,1.1-3.5,1.6c-1.3,0.5-2.8,0.9-4.4,1.2l1.3,5.3
			c1.8-0.3,3.6-0.7,5.2-1.4s3.2-1.5,4.6-2.5c1.4-1,2.5-2.2,3.5-3.6c1-1.4,1.7-2.9,2.1-4.6h0.4h0.7h3.4c1.4,0,2.7-0.1,3.9-0.4
			c1.2-0.3,2.3-0.7,3.2-1.4c0.9-0.6,1.6-1.4,2.1-2.4c0.5-1,0.8-2.2,0.8-3.6c0-0.8-0.1-1.6-0.2-2.4
			C399.3,245.8,399.1,244.9,398.8,244.1z M379.7,251.4c-0.4,0-0.9,0-1.3-0.1c-0.5,0-0.9-0.1-1.4-0.2c-0.5-0.1-0.9-0.2-1.3-0.4
			s-0.7-0.4-0.9-0.6c-0.2-0.3-0.4-0.6-0.4-1c0-0.4,0.1-0.8,0.3-1.3c0.2-0.4,0.4-0.8,0.7-1.2s0.6-0.6,0.9-0.9
			c0.3-0.2,0.6-0.3,0.8-0.2c0.5,0.1,0.9,0.3,1.3,0.7c0.4,0.3,0.7,0.8,1.1,1.3c0.3,0.5,0.6,1.1,0.8,1.8c0.2,0.7,0.4,1.3,0.6,2.1
			H379.7z"/>
		<path class="st0" d="M415.9,237.9c-0.8-0.7-1.5-1.3-2.1-1.8l-3.4,4.2l1.1,0.9l-0.3,0.3c-0.1,0.1-0.2,0.2-0.3,0.3
			c-0.1,0.1-0.2,0.2-0.3,0.3c-0.1,0.1-0.2,0.3-0.4,0.5c-2,2.5-3,4.9-3,7.1c0,1.1,0.2,2.1,0.7,2.9c0.5,0.9,1.1,1.6,1.9,2.2
			s1.6,1.1,2.6,1.4c0.9,0.3,1.9,0.5,2.8,0.5c1,0,2-0.1,2.9-0.4c1-0.3,1.8-0.7,2.6-1.3c0.8-0.6,1.4-1.3,1.8-2.2
			c0.5-0.9,0.7-1.9,0.7-3c0-2.6-1.5-5.7-4.5-9C417.7,239.6,416.7,238.7,415.9,237.9z M418.2,250.6c-0.2,0.2-0.5,0.4-0.8,0.5
			s-0.7,0.2-1.1,0.3c-0.4,0.1-0.8,0.1-1.1,0.1c-0.3,0-0.6,0-1-0.1c-0.4-0.1-0.8-0.2-1.1-0.3c-0.4-0.1-0.7-0.3-0.9-0.5
			s-0.4-0.4-0.4-0.7c0-0.5,0.1-1,0.2-1.5c0.2-0.5,0.4-1,0.7-1.5c0.3-0.5,0.6-0.9,0.9-1.4s0.7-0.8,1-1.2c0.5,0.5,0.9,0.9,1.4,1.4
			c0.5,0.5,0.9,1,1.2,1.5s0.7,1,0.9,1.4c0.2,0.4,0.3,0.9,0.3,1.2C418.5,250.1,418.4,250.3,418.2,250.6z"/>
		<path class="st0" d="M439.6,258.4c0.5-1.2,0.8-2.4,0.9-3.8c0.1-0.9,0.1-1.9,0-3c-0.1-1.1-0.3-2.1-0.6-3.2
			c-0.3-1.1-0.7-2.1-1.2-3.1c-0.5-1-1.1-1.9-1.7-2.6c-0.7-0.8-1.4-1.4-2.3-1.8c-0.9-0.5-1.8-0.7-2.9-0.7c-0.7,0-1.4,0.1-2.1,0.4
			c-0.6,0.3-1.2,0.6-1.7,1.1c-0.5,0.5-1,1-1.4,1.6s-0.8,1.3-1.1,2c-0.3,0.7-0.5,1.4-0.6,2.2c-0.1,0.7-0.2,1.5-0.2,2.2
			c0,1.1,0.2,2.1,0.6,2.9c0.4,0.9,0.9,1.6,1.6,2.2c0.7,0.6,1.5,1.1,2.4,1.4c0.9,0.3,2,0.6,3.1,0.6c0.4,0,0.8,0,1.4,0.1
			c0.6,0,1.1,0,1.6,0c-0.3,0.7-0.7,1.4-1.4,2.1c-0.7,0.7-1.5,1.3-2.5,1.9c-1,0.6-2.2,1.1-3.5,1.6c-1.3,0.5-2.8,0.9-4.4,1.2l1.3,5.3
			c1.3-0.2,2.6-0.5,3.9-0.9s2.5-0.9,3.6-1.5c1.1-0.6,2.2-1.3,3.1-2.1c1-0.8,1.8-1.7,2.5-2.7C438.5,260.6,439.1,259.5,439.6,258.4z
			 M434.5,251.4c-0.4,0-0.9,0-1.3,0s-0.9-0.1-1.4-0.2c-0.5-0.1-0.9-0.2-1.3-0.4c-0.4-0.2-0.7-0.4-0.9-0.6c-0.2-0.3-0.4-0.6-0.4-1
			c0-0.4,0.1-0.8,0.3-1.3c0.2-0.4,0.4-0.8,0.7-1.2s0.6-0.6,0.9-0.9c0.3-0.2,0.6-0.3,0.8-0.2c0.5,0.1,0.9,0.3,1.3,0.7
			c0.4,0.3,0.7,0.8,1.1,1.3c0.3,0.5,0.6,1.1,0.8,1.8c0.2,0.7,0.4,1.3,0.6,2.1H434.5z"/>
		<polygon class="st0" points="484.2,223 471,228.5 470.9,231 485.1,225 		"/>
		<path class="st0" d="M482.7,243.9c-0.4-0.7-0.8-1.5-1.3-2.2c-0.5-0.7-1-1.4-1.6-2c-0.6-0.6-1.1-1.2-1.7-1.8
			c-0.6-0.5-1.2-1-1.7-1.4l11.4-5.3l-2.1-4.6l-14.5,6.4l-0.5,4.7c0.6,0.5,1.3,1.1,1.9,1.6c0.6,0.6,1.3,1.1,1.8,1.7s1.1,1.1,1.7,1.7
			s1,1.1,1.4,1.5s0.7,0.9,1,1.3c0.3,0.4,0.4,0.8,0.5,1c0.2,0.8,0.3,1.5,0.2,2c-0.1,0.5-0.3,1-0.7,1.3c-0.3,0.3-0.8,0.6-1.3,0.8
			c-0.5,0.2-1.1,0.3-1.8,0.4c-0.6,0.1-1.3,0.1-2,0.1c-0.7,0-1.4,0-2,0h-0.9h-0.7h-14.9h-0.4c-0.4,0-0.7-0.1-1.1-0.3
			c-0.4-0.2-0.7-0.6-1.1-1.2s-0.8-1.3-1.2-2.2c-0.4-0.9-0.9-2.1-1.3-3.4l-5,2.2c0.3,0.7,0.6,1.4,0.9,2.2c0.3,0.8,0.6,1.6,0.9,2.4
			s0.5,1.5,0.7,2.2c0.2,0.7,0.3,1.3,0.3,1.7c0,0.7-0.1,1.3-0.4,2s-0.7,1.3-1.1,1.9c-0.5,0.6-1,1.2-1.7,1.8c-0.6,0.6-1.3,1.2-2.1,1.7
			c-0.8,0.5-1.5,1.1-2.4,1.6s-1.6,0.9-2.5,1.4l3.2,4.4c1.5-0.7,2.9-1.6,4.2-2.5c1.3-0.9,2.5-2,3.5-3.1c1-1.1,1.9-2.3,2.6-3.6
			c0.7-1.3,1.2-2.6,1.4-4.1c0.5,0.2,1,0.3,1.4,0.4c0.3,0,0.5,0,0.7,0v0h0.3h0.3h14.9h0.7h4.7c1.3,0,2.4-0.2,3.5-0.6
			c1.1-0.4,2-1,2.7-1.8c0.8-0.8,1.4-1.6,1.8-2.7c0.4-1,0.7-2.1,0.7-3.3c0-0.7-0.1-1.5-0.3-2.2C483.4,245.4,483.1,244.7,482.7,243.9z
			"/>
	</g>
</g>
</svg>
