<?xml version="1.0" encoding="utf-8"?>
<!-- Generator: Adobe Illustrator 22.1.0, SVG Export Plug-In . SVG Version: 6.00 Build 0)  -->
<svg version="1.1" xmlns="http://www.w3.org/2000/svg" xmlns:xlink="http://www.w3.org/1999/xlink" x="0px" y="0px"
	 viewBox="0 0 483.3 266" style="enable-background:new 0 0 483.3 266;" xml:space="preserve">
<style type="text/css">
	.st0{clip-path:url(#SVGID_8_);}
	.st1{fill:#1A1A1A;}
	.st2{clip-path:url(#SVGID_10_);fill:#FFFFFF;}
	.st3{fill:#FFFFFF;stroke:#4D4D4D;stroke-width:0.6;stroke-miterlimit:10;}
	.st4{fill:#4D4D4D;}
	.st5{fill:#FFFFFF;}
	.st6{fill:#FFFFFF;stroke:#4D4D4D;stroke-width:0.3944;stroke-miterlimit:10;}
	.st7{clip-path:url(#SVGID_8_);fill:none;}
	.st8{clip-path:url(#SVGID_16_);}
	.st9{fill:none;stroke:#979797;stroke-miterlimit:10;}
	.st10{fill:#A9A8A6;}
	.st11{fill:#BA2027;}
	.st12{fill:none;stroke:#FFFFFF;stroke-width:3.2;stroke-linejoin:round;stroke-miterlimit:10;}
	.st13{fill:#FFFFFF;stroke:#58595B;stroke-width:0.75;stroke-miterlimit:10;}
	.st14{fill:none;stroke:#9C9C9C;stroke-width:0.75;stroke-miterlimit:10;}
	.st15{fill:none;stroke:#B55D62;stroke-miterlimit:10;}
	.st16{fill:none;stroke:#AE6175;stroke-miterlimit:10;}
	.st17{fill:none;stroke:#B36376;stroke-miterlimit:10;}
	.st18{fill:none;}
	.st19{fill:none;stroke:#BB6578;stroke-miterlimit:10;}
	.st20{fill:none;stroke:#BD6679;stroke-miterlimit:10;}
	.st21{fill:#BA1F25;}
	.st22{fill:#8F1519;}
	.st23{fill:none;stroke:#8C8C8C;stroke-width:0.75;stroke-miterlimit:10;}
	.st24{fill:none;stroke:#FFFFFF;stroke-width:0.6307;stroke-miterlimit:10;}
	.st25{fill:none;stroke:#FFFFFF;stroke-linecap:round;stroke-linejoin:round;stroke-miterlimit:10;}
	.st26{fill:none;stroke:#FFFFFF;stroke-width:1.1381;stroke-miterlimit:10;}
	.st27{fill:#BD2027;}
	.st28{fill:none;stroke:#FFFFFF;stroke-width:1.138;stroke-linecap:round;stroke-linejoin:round;stroke-miterlimit:10;}
	.st29{fill:none;stroke:#FFFFFF;stroke-width:1.138;stroke-linejoin:round;stroke-miterlimit:10;}
	.st30{fill:#FFFFFF;stroke:#FFFFFF;stroke-width:0.25;stroke-linejoin:round;stroke-miterlimit:10;}
	.st31{fill:none;stroke:#CB6A7C;stroke-miterlimit:10;}
	.st32{fill:none;stroke:#949494;stroke-width:0.75;stroke-miterlimit:10;}
	.st33{fill:#C12127;}
	.st34{fill:#A32025;}
	.st35{fill:none;stroke:#FFFFFF;stroke-width:1.9027;stroke-linecap:round;stroke-linejoin:round;stroke-miterlimit:10;}
	.st36{fill:none;stroke:#FFFFFF;stroke-width:1.4;stroke-linecap:round;stroke-linejoin:round;stroke-miterlimit:10;}
	.st37{fill:#C62027;}
	.st38{fill:none;stroke:#FFFFFF;stroke-width:0.9333;stroke-miterlimit:10;}
	.st39{fill:#4D4D4D;stroke:#FFFFFF;stroke-linecap:round;stroke-linejoin:round;stroke-miterlimit:10;}
	.st40{fill:#FFFFFF;stroke:#4D4D4D;stroke-width:0.7087;stroke-miterlimit:10;}
	.st41{fill:none;stroke:#4D4D4D;stroke-width:1.4;stroke-linecap:round;stroke-linejoin:round;stroke-miterlimit:10;}
	.st42{stroke:#4D4D4D;stroke-width:0.7087;stroke-miterlimit:10;}
	.st43{fill:none;stroke:#FFFFFF;stroke-width:0.5;stroke-miterlimit:10;}
	.st44{fill:none;stroke:#FFFFFF;stroke-width:1.135;stroke-linejoin:round;stroke-miterlimit:10;}
	.st45{fill:none;stroke:#ADADAD;stroke-width:4.173;stroke-miterlimit:10;}
	.st46{fill:none;stroke:#FFFFFF;stroke-width:0.974;stroke-miterlimit:10;}
	.st47{fill:#FFFFFF;stroke:#FFFFFF;stroke-width:0.2881;stroke-miterlimit:10;}
	.st48{fill:#FFFFFF;stroke:#FFFFFF;stroke-width:0.1657;stroke-miterlimit:10;}
	.st49{fill:none;stroke:#FFFFFF;stroke-width:0.1657;stroke-miterlimit:10;}
	.st50{clip-path:url(#SVGID_32_);}
	.st51{clip-path:url(#SVGID_34_);fill:#FFFFFF;}
	.st52{clip-path:url(#SVGID_32_);fill:none;}
	.st53{clip-path:url(#SVGID_40_);}
	.st54{clip-path:url(#SVGID_44_);}
	.st55{clip-path:url(#SVGID_46_);fill:#FFFFFF;}
	.st56{clip-path:url(#SVGID_44_);fill:none;}
	.st57{clip-path:url(#SVGID_52_);}
	.st58{fill:none;stroke:#4D4D4D;stroke-width:1.4923;stroke-linecap:round;stroke-linejoin:round;stroke-miterlimit:10;}
	.st59{fill:none;stroke:#4D4D4D;stroke-width:1.2567;stroke-linecap:round;stroke-linejoin:round;stroke-miterlimit:10;}
	.st60{clip-path:url(#SVGID_58_);}
	.st61{clip-path:url(#SVGID_60_);}
	.st62{fill:none;stroke:#666666;stroke-width:0.5329;stroke-miterlimit:10;}
	.st63{fill:#AD243F;}
	.st64{fill:none;stroke:#FFFFFF;stroke-width:0.992;stroke-miterlimit:10;}
	.st65{clip-path:url(#SVGID_62_);fill:#FFFFFF;}
	.st66{fill:#FFFFFF;stroke:#4D4D4D;stroke-width:0.3732;stroke-miterlimit:10;}
	.st67{clip-path:url(#SVGID_64_);fill:#FFFFFF;}
	.st68{fill:#BD243F;}
	.st69{clip-path:url(#SVGID_66_);}
	.st70{clip-path:url(#SVGID_68_);fill:#FFFFFF;}
	.st71{clip-path:url(#SVGID_70_);fill:#FFFFFF;}
	.st72{clip-path:url(#SVGID_72_);}
	.st73{fill:none;stroke:#8E8E8E;stroke-miterlimit:10;}
	.st74{clip-path:url(#SVGID_74_);}
	.st75{clip-path:url(#SVGID_78_);fill:#FFFFFF;}
	.st76{clip-path:url(#SVGID_80_);fill:#FFFFFF;}
	.st77{clip-path:url(#SVGID_84_);}
	.st78{fill:none;stroke:#333333;stroke-width:2;stroke-miterlimit:10;}
	.st79{fill:none;stroke:#1A1A1A;stroke-miterlimit:10;}
	.st80{fill:none;stroke:#9C9C9C;stroke-width:1.5;stroke-miterlimit:10;}
</style>
<g id="Layer_1">
	<g>
		<path class="st5" d="M417,266.3c0.7,0,1.4,0,2.2-0.1c22.2-1.1,39.8-19.5,39.8-41.9c0-17.1-10.2-31.8-24.9-38.4c3.1,3.8,5,8.7,5,14
			c0,12.2-9.9,22.1-22.1,22.1h-88.4l-44.2,44.2H417"/>
		<path class="st5" d="M417,133.7h-44.2V1.1l-44.2,44.2v176.8l44.2-44.2H417c25.6,0,46.4,20.8,46.4,46.4c0,13.4-5.7,25.6-14.9,34
			c20.7-11.2,34.8-33.1,34.8-58.4C483.3,163.4,453.7,133.7,417,133.7"/>
		<path class="st5" d="M417,266.3c0.7,0,1.4,0,2.2-0.1c22.2-1.1,39.8-19.5,39.8-41.9c0-17.1-10.2-31.8-24.9-38.4c3.1,3.8,5,8.7,5,14
			c0,12.2-9.9,22.1-22.1,22.1h-88.4l-44.2,44.2H417"/>
		<path class="st5" d="M268.1,197.4c-0.2-2.5-0.6-4.8-1.4-7c-0.5-1.4-1.1-2.7-1.9-3.9c-7.6-12.6-26.6-15.2-43.1,1.2l-2.4,2.5v-56.5
			l-15.8,12.8v66.1h-15.5c-0.3-2.9-1-6-2.1-9.2c-1.1-3.2-2.5-6.1-4.3-8.7c-1.8-2.5-4-4.7-6.7-6.3c-2.6-1.6-5.4-2.4-8.6-2.4
			c-2.7,0-5,0.8-7,2.4c-2.2,1.8-4.1,4-5.6,6.6c-1.5,2.7-2.7,5.6-3.5,8.7c-0.8,3.1-1.2,6-1.2,8.5c0,4,0.6,7.3,1.8,9.6
			c1.2,2.4,2.8,4.1,4.9,5.5c2.2,1.4,5,2.3,8.1,2.8c3.4,0.5,7.1,0.8,11.2,0.8h1.7c-0.6,1.6-1.6,3.6-2.1,4.7h0
			c-7.3,13.5-23.5,13.1-37,13.1h-3.3l-4.3,17.6h15.5c11.8,0,36.1-7.9,41.7-33.5l0.4-1.9l50.1,0c4.2-0.1,8.2-1,11.7-2.8
			c3.8-1.9,7.2-4.4,9.9-7.4c2.8-3.1,5-6.5,6.5-10.2c1.5-3.7,2.3-7.4,2.3-11C268.2,198.8,268.2,198.1,268.1,197.4 M167.8,212.5
			c-2.3-0.1-4.1-0.2-5.4-0.5c-1.2-0.3-2.1-0.8-2.6-1.4c-0.5-0.7-0.7-1.6-0.7-3c0-1.9,0.7-3.6,2-5.2c1.3-1.5,3-2.3,5.2-2.3
			c1.3,0,2.5,0.4,3.7,1.2c1.1,0.8,2.2,1.9,3.1,3.1c1,1.2,1.7,2.6,2.3,4.1c0.6,1.5,1,2.8,1.3,4C173,212.6,170.1,212.5,167.8,212.5z
			 M251,210.1c-2.6,1.7-7,2.5-13.2,2.5h-23.9c0,0,13.8-14,21.9-17.7c8.1-3.7,12.9-1.2,15.1,0.2c2.1,1.3,3.9,4.4,3.9,7.7
			C254.9,206,253.6,208.4,251,210.1z"/>
		<path class="st5" d="M51.4,207.8c4.4,0.1,6.8,0,10.3-1c3.3-0.9,7.2-3.8,9.3-6.6l2.4-3.2l2,3.7c2.2,2.8,4.5,4.9,7.3,6
			c2.1,0.9,3.2,1.2,6.6,1.4c2.6,0.2,5.3-0.4,8.1-1.6c2.7-1.3,4.8-3.1,6.5-5.8l2.5-4c1.8,4.1,4.1,6.8,7.8,9.2
			c0.1,0.1,0.2,0.1,0.3,0.2c3,1.3,5.3,1.9,10.1,1.9c10.1,0,19.1-5.6,22.2-18.1c2-8,1.6-15.5,0.7-20.9h0c-0.1-0.7-0.3-1.5-0.4-2.3
			l-13.4,3.1c1.5,5.9,3.8,19.7-6.1,20.6c-12.6,1.1-12.6-5.7-11.9-11.4l0.9-7.8l-13,3.8l-0.6,5.2c-0.9,7.7-5.4,11-13.6,10.1
			c-2.5-0.3-4.7-1.9-5.7-4.2c-1.1-2.5-1.4-3.5-0.9-7.8l0.6-5.7l-12.9,5.1l-0.5,4.6c-0.5,3-2.9,5.1-5.3,6.5c-2.5,1.4-6.6,1.5-9.7,1.1
			"/>
		<path class="st5" d="M64.7,188.5c-2.2,1.8-5.5,1.5-8.8,1.5l-22.7,0.1v0c-4.7,0.1-9,1.1-13.1,3.1c-4.2,2.1-8.2,4.4-11.2,7.8
			c-3.1,3.4-5.3,5.6-7,9.7c-1.7,4.1-2.6,8.2-2.6,12.2c0,3.7,0.5,7.1,1.6,10.2c1.1,3.1,2.9,5.8,5.4,8.2c2.5,2.3,5.8,4.2,10,5.5
			c4.2,1.3,9.3,2,15.4,2h102.6l4.6-18.3h-103c-7.3,0-12.6-0.6-16.2-1.9c-4.3-1.5-6.7-4.5-6.7-9c0-3.1,1.6-5.9,5.1-8
			c3.2-2,7.8-3.6,14.9-3.6l21.9-0.3c3.4,0,7.7-1.7,11.2-3.1"/>
	</g>
</g>
<g id="Layer_2">
</g>
</svg>
